<?xml version="1.0" encoding="utf-8" standalone="no"?>
<!DOCTYPE svg PUBLIC "-//W3C//DTD SVG 1.1//EN"
  "http://www.w3.org/Graphics/SVG/1.1/DTD/svg11.dtd">
<svg xmlns:xlink="http://www.w3.org/1999/xlink" width="202.896pt" height="202.896pt" viewBox="0 0 202.896 202.896" xmlns="http://www.w3.org/2000/svg" version="1.1">
 <metadata>
  <rdf:RDF xmlns:dc="http://purl.org/dc/elements/1.1/" xmlns:cc="http://creativecommons.org/ns#" xmlns:rdf="http://www.w3.org/1999/02/22-rdf-syntax-ns#">
   <cc:Work>
    <dc:type rdf:resource="http://purl.org/dc/dcmitype/StillImage"/>
    <dc:date>2023-06-25T20:18:23.704904</dc:date>
    <dc:format>image/svg+xml</dc:format>
    <dc:creator>
     <cc:Agent>
      <dc:title>Matplotlib v3.7.0, https://matplotlib.org/</dc:title>
     </cc:Agent>
    </dc:creator>
   </cc:Work>
  </rdf:RDF>
 </metadata>
 <defs>
  <style type="text/css">*{stroke-linejoin: round; stroke-linecap: butt}</style>
 </defs>
 <g id="figure_1">
  <g id="patch_1">
   <path d="M 0 202.896 
L 202.896 202.896 
L 202.896 -0 
L 0 -0 
z
" style="fill: #ffffff"/>
  </g>
  <g id="patch_2">
   <path d="M 7.2 195.696 
L 195.696 195.696 
L 195.696 7.2 
L 7.2 7.2 
z
" style="fill: #ffffff"/>
  </g>
  <g id="axes_1">
   <g id="line2d_1">
    <path d="M 29.052406 138.894435 
L 29.052406 45.692635 
L 117.209687 14.828438 
L 117.209687 108.030238 
L 29.052406 138.894435 
" clip-path="url(#p121b49f690)" style="fill: none; stroke: #0000ff; stroke-width: 1.5; stroke-linecap: round"/>
   </g>
   <g id="line2d_2">
    <path d="M 117.209687 14.828438 
L 178.93808 58.907079 
L 178.93808 152.108879 
L 117.209687 108.030238 
L 117.209687 14.828438 
" clip-path="url(#p121b49f690)" style="fill: none; stroke: #0000ff; stroke-width: 1.5; stroke-linecap: round"/>
   </g>
   <g id="line2d_3">
    <path d="M 90.780799 182.973075 
L 90.780799 89.771275 
L 29.052406 45.692635 
L 29.052406 138.894435 
L 90.780799 182.973075 
" clip-path="url(#p121b49f690)" style="fill: none; stroke: #0000ff; stroke-width: 1.5; stroke-linecap: round"/>
   </g>
   <g id="line2d_4">
    <path d="M 90.780799 89.771275 
L 90.780799 182.973075 
L 178.93808 152.108879 
L 178.93808 58.907079 
L 90.780799 89.771275 
" clip-path="url(#p121b49f690)" style="fill: none; stroke: #0000ff; stroke-width: 1.5; stroke-linecap: round"/>
   </g>
   <g id="line2d_5">
    <path d="M 178.93808 152.108879 
L 90.780799 182.973075 
L 29.052406 138.894435 
L 117.209687 108.030238 
L 178.93808 152.108879 
" clip-path="url(#p121b49f690)" style="fill: none; stroke: #0000ff; stroke-width: 1.5; stroke-linecap: round"/>
   </g>
   <g id="line2d_6">
    <path d="M 117.209687 14.828438 
L 29.052406 45.692635 
L 90.780799 89.771275 
L 178.93808 58.907079 
L 117.209687 14.828438 
" clip-path="url(#p121b49f690)" style="fill: none; stroke: #0000ff; stroke-width: 1.5; stroke-linecap: round"/>
   </g>
   <g id="line2d_7">
    <path d="M 103.995243 98.900757 
L 59.916603 114.332855 
L 90.780799 136.372175 
L 103.995243 98.900757 
L 90.780799 89.771275 
" clip-path="url(#p121b49f690)" style="fill: none; stroke: #0000ff; stroke-width: 0.8; stroke-linecap: square"/>
    <defs>
     <path id="mce843e2168" d="M 0 2.5 
C 0.663008 2.5 1.29895 2.236584 1.767767 1.767767 
C 2.236584 1.29895 2.5 0.663008 2.5 0 
C 2.5 -0.663008 2.236584 -1.29895 1.767767 -1.767767 
C 1.29895 -2.236584 0.663008 -2.5 0 -2.5 
C -0.663008 -2.5 -1.29895 -2.236584 -1.767767 -1.767767 
C -2.236584 -1.29895 -2.5 -0.663008 -2.5 0 
C -2.5 0.663008 -2.236584 1.29895 -1.767767 1.767767 
C -1.29895 2.236584 -0.663008 2.5 0 2.5 
z
" style="stroke: #0000ff"/>
    </defs>
    <g clip-path="url(#p121b49f690)">
     <use xlink:href="#mce843e2168" x="103.995243" y="98.900757" style="fill: #0000ff; stroke: #0000ff"/>
     <use xlink:href="#mce843e2168" x="59.916603" y="114.332855" style="fill: #0000ff; stroke: #0000ff"/>
     <use xlink:href="#mce843e2168" x="90.780799" y="136.372175" style="fill: #0000ff; stroke: #0000ff"/>
     <use xlink:href="#mce843e2168" x="103.995243" y="98.900757" style="fill: #0000ff; stroke: #0000ff"/>
     <use xlink:href="#mce843e2168" x="90.780799" y="89.771275" style="fill: #0000ff; stroke: #0000ff"/>
    </g>
   </g>
   <g id="patch_3">
    <path d="M 103.995243 98.900757 
Q 90.771651 103.530386 78.286721 107.901407 
" clip-path="url(#p121b49f690)" style="fill: none; stroke: #000000; stroke-width: 0.7; stroke-linecap: round"/>
    <path d="M 81.392052 108.297541 
L 78.286721 107.901407 
L 80.466826 105.654823 
z
" clip-path="url(#p121b49f690)" style="stroke: #000000; stroke-width: 0.7; stroke-linecap: round"/>
   </g>
   <g id="text_1">
    <!-- $\vec{b}_1$ -->
    <g transform="translate(68.590195 113.332913) scale(0.1 -0.1)">
     <defs>
      <path id="STIXGeneral-Regular-20d7" d="M -109 4186 
L -954 3507 
L -1069 3558 
Q -755 3821 -755 3917 
Q -755 4013 -1069 4013 
L -2899 4013 
L -2899 4358 
L -1069 4358 
Q -755 4358 -755 4454 
Q -755 4474 -768 4496 
Q -781 4518 -816 4553 
Q -851 4589 -880 4621 
Q -909 4653 -973 4713 
Q -1037 4774 -1075 4813 
L -960 4864 
L -109 4186 
z
" transform="scale(0.015625)"/>
      <path id="STIXGeneral-Italic-62" d="M 1043 1856 
L 1050 1856 
Q 1370 2387 1654 2604 
Q 1939 2822 2285 2822 
Q 2618 2822 2822 2617 
Q 3027 2413 3027 2054 
Q 3027 1562 2726 1062 
Q 2426 563 1942 246 
Q 1459 -70 979 -70 
Q 685 -70 416 32 
Q 147 134 147 269 
L 147 307 
L 1056 3654 
Q 1114 3885 1114 3955 
Q 1114 4058 1053 4080 
Q 992 4102 704 4115 
L 704 4224 
Q 1184 4282 1683 4371 
L 1715 4339 
L 1581 3814 
L 1043 1856 
z
M 2483 1958 
Q 2483 2509 2035 2509 
Q 1594 2509 1158 1773 
Q 954 1427 826 1008 
Q 698 589 698 294 
Q 698 77 992 77 
Q 1414 77 1779 454 
Q 2074 762 2278 1187 
Q 2483 1613 2483 1958 
z
" transform="scale(0.015625)"/>
      <path id="STIXGeneral-Regular-31" d="M 2522 0 
L 755 0 
L 755 96 
Q 1107 115 1235 227 
Q 1363 339 1363 608 
L 1363 3482 
Q 1363 3795 1171 3795 
Q 1082 3795 883 3718 
L 710 3654 
L 710 3744 
L 1856 4326 
L 1914 4307 
L 1914 486 
Q 1914 275 2042 185 
Q 2170 96 2522 96 
L 2522 0 
z
" transform="scale(0.015625)"/>
     </defs>
     <use xlink:href="#STIXGeneral-Regular-20d7" transform="translate(54.796871 26)"/>
     <use xlink:href="#STIXGeneral-Italic-62"/>
     <use xlink:href="#STIXGeneral-Regular-31" transform="translate(51.543266 -13.228125) scale(0.7)"/>
    </g>
   </g>
   <g id="text_2">
    <!-- $\vec{b}_2$ -->
    <g transform="translate(121.050181 117.957968) scale(0.1 -0.1)">
     <defs>
      <path id="STIXGeneral-Regular-32" d="M 3034 877 
L 2688 0 
L 186 0 
L 186 77 
L 1325 1286 
Q 1773 1754 1965 2144 
Q 2157 2534 2157 2950 
Q 2157 3379 1920 3616 
Q 1683 3853 1267 3853 
Q 922 3853 720 3673 
Q 518 3494 326 3021 
L 192 3053 
Q 301 3648 630 3987 
Q 960 4326 1523 4326 
Q 2054 4326 2380 4006 
Q 2707 3686 2707 3200 
Q 2707 2477 1888 1613 
L 832 486 
L 2330 486 
Q 2541 486 2665 569 
Q 2790 653 2944 915 
L 3034 877 
z
" transform="scale(0.015625)"/>
     </defs>
     <use xlink:href="#STIXGeneral-Regular-20d7" transform="translate(54.796871 26)"/>
     <use xlink:href="#STIXGeneral-Italic-62"/>
     <use xlink:href="#STIXGeneral-Regular-32" transform="translate(51.543266 -13.228125) scale(0.7)"/>
    </g>
   </g>
   <g id="text_3">
    <!-- $\vec{b}_3$ -->
    <g transform="translate(99.445243 69.959814) scale(0.1 -0.1)">
     <defs>
      <path id="STIXGeneral-Regular-33" d="M 390 3264 
L 288 3290 
Q 435 3770 748 4048 
Q 1062 4326 1542 4326 
Q 1990 4326 2265 4083 
Q 2541 3840 2541 3450 
Q 2541 2925 1946 2566 
Q 2298 2413 2477 2227 
Q 2758 1914 2758 1402 
Q 2758 890 2464 506 
Q 2246 211 1840 60 
Q 1434 -90 979 -90 
Q 262 -90 262 275 
Q 262 378 339 442 
Q 416 506 525 506 
Q 685 506 915 339 
Q 1197 141 1466 141 
Q 1818 141 2058 425 
Q 2298 710 2298 1120 
Q 2298 1856 1632 2048 
Q 1434 2112 979 2112 
L 979 2202 
Q 1338 2323 1517 2432 
Q 2035 2726 2035 3290 
Q 2035 3610 1852 3776 
Q 1670 3942 1344 3942 
Q 768 3942 390 3264 
z
" transform="scale(0.015625)"/>
     </defs>
     <use xlink:href="#STIXGeneral-Regular-20d7" transform="translate(54.796871 26)"/>
     <use xlink:href="#STIXGeneral-Italic-62"/>
     <use xlink:href="#STIXGeneral-Regular-33" transform="translate(51.543266 -13.228125) scale(0.7)"/>
    </g>
   </g>
   <g id="text_4">
    <!-- Γ -->
    <g style="fill: #0000ff" transform="translate(103.995243 98.900757) scale(0.1 -0.1)">
     <defs>
      <path id="STIXGeneral-Regular-393" d="M 3693 3162 
L 3533 3162 
Q 3482 3642 3299 3818 
Q 3117 3994 2637 3994 
L 1517 3994 
Q 1382 3994 1334 3942 
Q 1286 3891 1286 3738 
L 1286 723 
Q 1286 352 1388 246 
Q 1491 141 1869 122 
L 1869 0 
L 70 0 
L 70 122 
Q 435 147 534 262 
Q 634 378 634 794 
L 634 3526 
Q 634 3878 538 3984 
Q 442 4090 77 4115 
L 77 4237 
L 3661 4237 
L 3693 3162 
z
" transform="scale(0.015625)"/>
     </defs>
     <use xlink:href="#STIXGeneral-Regular-393"/>
    </g>
   </g>
   <g id="text_5">
    <!-- X -->
    <g style="fill: #0000ff" transform="translate(59.916603 114.332855) scale(0.1 -0.1)">
     <defs>
      <path id="STIXGeneral-Regular-58" d="M 4506 0 
L 2611 0 
L 2611 122 
L 2778 134 
Q 3098 154 3098 320 
Q 3098 461 2771 947 
L 2163 1850 
L 1402 896 
Q 1062 474 1062 326 
Q 1062 230 1168 185 
Q 1274 141 1549 122 
L 1549 0 
L 64 0 
L 64 122 
Q 314 147 470 268 
Q 627 390 992 851 
L 1990 2099 
L 1312 3091 
Q 864 3744 665 3913 
Q 467 4083 141 4115 
L 141 4237 
L 2067 4237 
L 2067 4115 
L 1882 4109 
Q 1734 4102 1660 4064 
Q 1587 4026 1587 3923 
Q 1587 3885 1596 3843 
Q 1606 3802 1635 3744 
Q 1664 3686 1689 3638 
Q 1715 3590 1769 3507 
Q 1824 3424 1862 3366 
Q 1901 3309 1984 3190 
Q 2067 3072 2118 2995 
L 2400 2586 
L 3117 3482 
Q 3373 3795 3373 3910 
Q 3373 4019 3283 4064 
Q 3194 4109 2938 4115 
L 2938 4237 
L 4454 4237 
L 4454 4115 
Q 4147 4096 3968 3977 
Q 3789 3859 3482 3482 
L 2566 2349 
L 3795 595 
Q 3981 326 4115 240 
Q 4250 154 4506 122 
L 4506 0 
z
" transform="scale(0.015625)"/>
     </defs>
     <use xlink:href="#STIXGeneral-Regular-58"/>
    </g>
   </g>
   <g id="text_6">
    <!-- M -->
    <g style="fill: #0000ff" transform="translate(90.780799 136.372175) scale(0.1 -0.1)">
     <defs>
      <path id="STIXGeneral-Regular-4d" d="M 5530 0 
L 3738 0 
L 3738 122 
Q 4115 147 4214 265 
Q 4314 384 4314 787 
L 4314 3661 
L 2682 0 
L 2592 0 
L 979 3514 
L 979 966 
Q 979 448 1088 294 
Q 1197 141 1574 122 
L 1574 0 
L 77 0 
L 77 122 
Q 358 141 480 205 
Q 602 269 650 432 
Q 698 595 698 966 
L 698 3514 
Q 698 3878 589 3984 
Q 480 4090 90 4115 
L 90 4237 
L 1357 4237 
L 2835 1024 
L 4250 4237 
L 5523 4237 
L 5523 4115 
Q 5178 4109 5072 3993 
Q 4966 3878 4966 3520 
L 4966 717 
Q 4966 378 5072 262 
Q 5178 147 5530 122 
L 5530 0 
z
" transform="scale(0.015625)"/>
     </defs>
     <use xlink:href="#STIXGeneral-Regular-4d"/>
    </g>
   </g>
   <g id="text_7">
    <!-- Γ -->
    <g style="fill: #0000ff" transform="translate(103.995243 98.900757) scale(0.1 -0.1)">
     <use xlink:href="#STIXGeneral-Regular-393"/>
    </g>
   </g>
   <g id="text_8">
    <!-- R -->
    <g style="fill: #0000ff" transform="translate(90.780799 89.771275) scale(0.1 -0.1)">
     <defs>
      <path id="STIXGeneral-Regular-52" d="M 4224 0 
L 3187 0 
L 1664 1971 
L 1306 1958 
L 1306 717 
Q 1306 352 1405 249 
Q 1504 147 1875 122 
L 1875 0 
L 109 0 
L 109 122 
Q 474 154 563 262 
Q 653 371 653 794 
L 653 3526 
Q 653 3885 563 3987 
Q 474 4090 109 4115 
L 109 4237 
L 1850 4237 
Q 2726 4237 3187 3859 
Q 3501 3603 3501 3091 
Q 3501 2221 2342 2042 
L 3622 422 
Q 3757 256 3878 198 
Q 4000 141 4224 122 
L 4224 0 
z
M 1306 3731 
L 1306 2195 
Q 1766 2202 1990 2246 
Q 2214 2291 2438 2413 
Q 2803 2618 2803 3142 
Q 2803 4000 1632 4000 
Q 1459 4000 1382 3945 
Q 1306 3891 1306 3731 
z
" transform="scale(0.015625)"/>
     </defs>
     <use xlink:href="#STIXGeneral-Regular-52"/>
    </g>
   </g>
   <g id="patch_4">
    <path d="M 103.995243 98.900757 
Q 103.995243 84.920487 103.995243 71.722841 
" clip-path="url(#p121b49f690)" style="fill: none; stroke: #000000; stroke-width: 0.7; stroke-linecap: round"/>
    <path d="M 102.595243 74.522841 
L 103.995243 71.722841 
L 105.395243 74.522841 
z
" clip-path="url(#p121b49f690)" style="stroke: #000000; stroke-width: 0.7; stroke-linecap: round"/>
   </g>
   <g id="patch_5">
    <path d="M 103.995243 98.900757 
Q 113.254502 105.512553 121.87685 111.669547 
" clip-path="url(#p121b49f690)" style="fill: none; stroke: #000000; stroke-width: 0.7; stroke-linecap: round"/>
    <path d="M 120.411742 108.903059 
L 121.87685 111.669547 
L 118.784595 111.181741 
z
" clip-path="url(#p121b49f690)" style="stroke: #000000; stroke-width: 0.7; stroke-linecap: round"/>
   </g>
  </g>
 </g>
 <defs>
  <clipPath id="p121b49f690">
   <rect x="7.2" y="7.2" width="188.496" height="188.496"/>
  </clipPath>
 </defs>
</svg>
