<?xml version="1.0" encoding="utf-8" standalone="no"?>
<!DOCTYPE svg PUBLIC "-//W3C//DTD SVG 1.1//EN"
  "http://www.w3.org/Graphics/SVG/1.1/DTD/svg11.dtd">
<svg xmlns:xlink="http://www.w3.org/1999/xlink" width="202.896pt" height="202.896pt" viewBox="0 0 202.896 202.896" xmlns="http://www.w3.org/2000/svg" version="1.1">
 <metadata>
  <rdf:RDF xmlns:dc="http://purl.org/dc/elements/1.1/" xmlns:cc="http://creativecommons.org/ns#" xmlns:rdf="http://www.w3.org/1999/02/22-rdf-syntax-ns#">
   <cc:Work>
    <dc:type rdf:resource="http://purl.org/dc/dcmitype/StillImage"/>
    <dc:date>2023-06-27T13:59:16.410614</dc:date>
    <dc:format>image/svg+xml</dc:format>
    <dc:creator>
     <cc:Agent>
      <dc:title>Matplotlib v3.7.0, https://matplotlib.org/</dc:title>
     </cc:Agent>
    </dc:creator>
   </cc:Work>
  </rdf:RDF>
 </metadata>
 <defs>
  <style type="text/css">*{stroke-linejoin: round; stroke-linecap: butt}</style>
 </defs>
 <g id="figure_1">
  <g id="patch_1">
   <path d="M 0 202.896 
L 202.896 202.896 
L 202.896 -0 
L 0 -0 
z
" style="fill: #ffffff"/>
  </g>
  <g id="patch_2">
   <path d="M 7.2 195.696 
L 195.696 195.696 
L 195.696 7.2 
L 7.2 7.2 
z
" style="fill: #ffffff"/>
  </g>
  <g id="axes_1">
   <g id="line2d_1">
    <path d="M 120.076844 95.797124 
L 103.995243 125.805799 
L 103.995243 71.995715 
L 120.076844 41.987039 
L 120.076844 95.797124 
" clip-path="url(#p6861f750c6)" style="fill: none; stroke: #0000ff; stroke-width: 1.5; stroke-linecap: round"/>
   </g>
   <g id="line2d_2">
    <path d="M 120.076844 95.797124 
L 180.094194 103.837924 
L 164.012594 133.846599 
L 103.995243 125.805799 
L 120.076844 95.797124 
" clip-path="url(#p6861f750c6)" style="fill: none; stroke: #0000ff; stroke-width: 1.5; stroke-linecap: round"/>
   </g>
   <g id="line2d_3">
    <path d="M 120.076844 95.797124 
L 120.076844 41.987039 
L 180.094194 50.02784 
L 180.094194 103.837924 
L 120.076844 95.797124 
" clip-path="url(#p6861f750c6)" style="fill: none; stroke: #0000ff; stroke-width: 1.5; stroke-linecap: round"/>
   </g>
   <g id="line2d_4">
    <path d="M 180.094194 103.837924 
L 180.094194 50.02784 
L 164.012594 80.036515 
L 164.012594 133.846599 
L 180.094194 103.837924 
" clip-path="url(#p6861f750c6)" style="fill: none; stroke: #0000ff; stroke-width: 1.5; stroke-linecap: round"/>
   </g>
   <g id="line2d_5">
    <path d="M 103.995243 125.805799 
L 164.012594 133.846599 
L 164.012594 80.036515 
L 103.995243 71.995715 
L 103.995243 125.805799 
" clip-path="url(#p6861f750c6)" style="fill: none; stroke: #0000ff; stroke-width: 1.5; stroke-linecap: round"/>
   </g>
   <g id="line2d_6">
    <path d="M 120.076844 41.987039 
L 103.995243 71.995715 
L 164.012594 80.036515 
L 180.094194 50.02784 
L 120.076844 41.987039 
" clip-path="url(#p6861f750c6)" style="fill: none; stroke: #0000ff; stroke-width: 1.5; stroke-linecap: round"/>
   </g>
   <g id="line2d_7">
    <path d="M 142.044719 87.916819 
L 131.060781 91.856971 
" clip-path="url(#p6861f750c6)" style="fill: none; stroke: #0000ff; stroke-opacity: 0.7"/>
   </g>
   <g id="line2d_8">
    <path d="M 131.060781 91.856971 
L 120.076844 95.797124 
" clip-path="url(#p6861f750c6)" style="fill: none; stroke: #0000ff; stroke-opacity: 0.7"/>
   </g>
   <g id="line2d_9">
    <path d="M 142.044719 87.916819 
L 123.019981 79.956267 
" clip-path="url(#p6861f750c6)" style="fill: none; stroke: #0000ff; stroke-opacity: 0.7"/>
   </g>
   <g id="line2d_10">
    <path d="M 123.019981 79.956267 
L 103.995243 71.995715 
" clip-path="url(#p6861f750c6)" style="fill: none; stroke: #0000ff; stroke-opacity: 0.7"/>
   </g>
   <g id="line2d_11">
    <path d="M 142.044719 87.916819 
L 131.060781 64.951929 
" clip-path="url(#p6861f750c6)" style="fill: none; stroke: #0000ff; stroke-opacity: 0.7"/>
   </g>
   <g id="line2d_12">
    <path d="M 131.060781 64.951929 
L 120.076844 41.987039 
" clip-path="url(#p6861f750c6)" style="fill: none; stroke: #0000ff; stroke-opacity: 0.7"/>
   </g>
   <g id="line2d_13">
    <path d="M 142.044719 87.916819 
L 161.069456 95.877372 
" clip-path="url(#p6861f750c6)" style="fill: none; stroke: #0000ff; stroke-opacity: 0.7"/>
   </g>
   <g id="line2d_14">
    <path d="M 161.069456 95.877372 
L 180.094194 103.837924 
" clip-path="url(#p6861f750c6)" style="fill: none; stroke: #0000ff; stroke-opacity: 0.7"/>
   </g>
   <g id="line2d_15">
    <path d="M 142.044719 87.916819 
L 161.069456 68.972329 
" clip-path="url(#p6861f750c6)" style="fill: none; stroke: #0000ff; stroke-opacity: 0.7"/>
   </g>
   <g id="line2d_16">
    <path d="M 161.069456 68.972329 
L 180.094194 50.02784 
" clip-path="url(#p6861f750c6)" style="fill: none; stroke: #0000ff; stroke-opacity: 0.7"/>
   </g>
   <g id="line2d_17">
    <path d="M 142.044719 87.916819 
L 123.019981 106.861309 
" clip-path="url(#p6861f750c6)" style="fill: none; stroke: #0000ff; stroke-opacity: 0.7"/>
   </g>
   <g id="line2d_18">
    <path d="M 123.019981 106.861309 
L 103.995243 125.805799 
" clip-path="url(#p6861f750c6)" style="fill: none; stroke: #0000ff; stroke-opacity: 0.7"/>
   </g>
   <g id="line2d_19">
    <path d="M 142.044719 87.916819 
L 153.028656 110.881709 
" clip-path="url(#p6861f750c6)" style="fill: none; stroke: #0000ff; stroke-opacity: 0.7"/>
   </g>
   <g id="line2d_20">
    <path d="M 153.028656 110.881709 
L 164.012594 133.846599 
" clip-path="url(#p6861f750c6)" style="fill: none; stroke: #0000ff; stroke-opacity: 0.7"/>
   </g>
   <g id="line2d_21">
    <path d="M 142.044719 87.916819 
L 153.028656 83.976667 
" clip-path="url(#p6861f750c6)" style="fill: none; stroke: #0000ff; stroke-opacity: 0.7"/>
   </g>
   <g id="line2d_22">
    <path d="M 153.028656 83.976667 
L 164.012594 80.036515 
" clip-path="url(#p6861f750c6)" style="fill: none; stroke: #0000ff; stroke-opacity: 0.7"/>
   </g>
   <g id="line2d_23">
    <path d="M 120.076844 95.797124 
L 164.012594 133.846599 
L 164.012594 80.036515 
L 120.076844 41.987039 
L 120.076844 95.797124 
" clip-path="url(#p6861f750c6)" style="fill: none; stroke: #ff0000; stroke-width: 1.5; stroke-linecap: round"/>
   </g>
   <g id="line2d_24">
    <path d="M 120.076844 95.797124 
L 43.977893 117.764999 
L 87.913643 155.814474 
L 164.012594 133.846599 
L 120.076844 95.797124 
" clip-path="url(#p6861f750c6)" style="fill: none; stroke: #ff0000; stroke-width: 1.5; stroke-linecap: round"/>
   </g>
   <g id="line2d_25">
    <path d="M 120.076844 95.797124 
L 120.076844 41.987039 
L 43.977893 63.954914 
L 43.977893 117.764999 
L 120.076844 95.797124 
" clip-path="url(#p6861f750c6)" style="fill: none; stroke: #ff0000; stroke-width: 1.5; stroke-linecap: round"/>
   </g>
   <g id="line2d_26">
    <path d="M 43.977893 117.764999 
L 43.977893 63.954914 
L 87.913643 102.00439 
L 87.913643 155.814474 
L 43.977893 117.764999 
" clip-path="url(#p6861f750c6)" style="fill: none; stroke: #ff0000; stroke-width: 1.5; stroke-linecap: round"/>
   </g>
   <g id="line2d_27">
    <path d="M 164.012594 133.846599 
L 87.913643 155.814474 
L 87.913643 102.00439 
L 164.012594 80.036515 
L 164.012594 133.846599 
" clip-path="url(#p6861f750c6)" style="fill: none; stroke: #ff0000; stroke-width: 1.5; stroke-linecap: round"/>
   </g>
   <g id="line2d_28">
    <path d="M 120.076844 41.987039 
L 164.012594 80.036515 
L 87.913643 102.00439 
L 43.977893 63.954914 
L 120.076844 41.987039 
" clip-path="url(#p6861f750c6)" style="fill: none; stroke: #ff0000; stroke-width: 1.5; stroke-linecap: round"/>
   </g>
   <g id="line2d_29">
    <path d="M 103.995243 125.805799 
L 114.979181 121.865647 
" clip-path="url(#p6861f750c6)" style="fill: none; stroke: #ff0000; stroke-opacity: 0.7"/>
   </g>
   <g id="line2d_30">
    <path d="M 114.979181 121.865647 
L 125.963118 117.925495 
" clip-path="url(#p6861f750c6)" style="fill: none; stroke: #ff0000; stroke-opacity: 0.7"/>
   </g>
   <g id="line2d_31">
    <path d="M 125.963118 117.925495 
L 114.979181 94.960605 
" clip-path="url(#p6861f750c6)" style="fill: none; stroke: #ff0000; stroke-opacity: 0.7"/>
   </g>
   <g id="line2d_32">
    <path d="M 114.979181 94.960605 
L 103.995243 71.995715 
" clip-path="url(#p6861f750c6)" style="fill: none; stroke: #ff0000; stroke-opacity: 0.7"/>
   </g>
   <g id="line2d_33">
    <path d="M 125.963118 117.925495 
L 144.987856 98.981005 
" clip-path="url(#p6861f750c6)" style="fill: none; stroke: #ff0000; stroke-opacity: 0.7"/>
   </g>
   <g id="line2d_34">
    <path d="M 144.987856 98.981005 
L 164.012594 80.036515 
" clip-path="url(#p6861f750c6)" style="fill: none; stroke: #ff0000; stroke-opacity: 0.7"/>
   </g>
   <g id="line2d_35">
    <path d="M 82.027368 79.876019 
L 101.052106 87.836571 
" clip-path="url(#p6861f750c6)" style="fill: none; stroke: #ff0000; stroke-opacity: 0.7"/>
   </g>
   <g id="line2d_36">
    <path d="M 101.052106 87.836571 
L 120.076844 95.797124 
" clip-path="url(#p6861f750c6)" style="fill: none; stroke: #ff0000; stroke-opacity: 0.7"/>
   </g>
   <g id="line2d_37">
    <path d="M 82.027368 79.876019 
L 101.052106 60.931529 
" clip-path="url(#p6861f750c6)" style="fill: none; stroke: #ff0000; stroke-opacity: 0.7"/>
   </g>
   <g id="line2d_38">
    <path d="M 101.052106 60.931529 
L 120.076844 41.987039 
" clip-path="url(#p6861f750c6)" style="fill: none; stroke: #ff0000; stroke-opacity: 0.7"/>
   </g>
   <g id="line2d_39">
    <path d="M 142.044719 87.916819 
L 123.019981 106.861309 
" clip-path="url(#p6861f750c6)" style="fill: none; stroke: #ff0000; stroke-opacity: 0.7"/>
   </g>
   <g id="line2d_40">
    <path d="M 123.019981 106.861309 
L 103.995243 125.805799 
" clip-path="url(#p6861f750c6)" style="fill: none; stroke: #ff0000; stroke-opacity: 0.7"/>
   </g>
   <g id="line2d_41">
    <path d="M 142.044719 87.916819 
L 123.019981 79.956267 
" clip-path="url(#p6861f750c6)" style="fill: none; stroke: #ff0000; stroke-opacity: 0.7"/>
   </g>
   <g id="line2d_42">
    <path d="M 123.019981 79.956267 
L 103.995243 71.995715 
" clip-path="url(#p6861f750c6)" style="fill: none; stroke: #ff0000; stroke-opacity: 0.7"/>
   </g>
   <g id="line2d_43">
    <path d="M 82.027368 79.876019 
L 63.002631 71.915467 
" clip-path="url(#p6861f750c6)" style="fill: none; stroke: #ff0000; stroke-opacity: 0.7"/>
   </g>
   <g id="line2d_44">
    <path d="M 63.002631 71.915467 
L 43.977893 63.954914 
" clip-path="url(#p6861f750c6)" style="fill: none; stroke: #ff0000; stroke-opacity: 0.7"/>
   </g>
   <g id="line2d_45">
    <path d="M 142.044719 87.916819 
L 153.028656 83.976667 
" clip-path="url(#p6861f750c6)" style="fill: none; stroke: #ff0000; stroke-opacity: 0.7"/>
   </g>
   <g id="line2d_46">
    <path d="M 153.028656 83.976667 
L 164.012594 80.036515 
" clip-path="url(#p6861f750c6)" style="fill: none; stroke: #ff0000; stroke-opacity: 0.7"/>
   </g>
   <g id="line2d_47">
    <path d="M 65.945768 109.884694 
L 54.96183 86.919804 
" clip-path="url(#p6861f750c6)" style="fill: none; stroke: #ff0000; stroke-opacity: 0.7"/>
   </g>
   <g id="line2d_48">
    <path d="M 54.96183 86.919804 
L 43.977893 63.954914 
" clip-path="url(#p6861f750c6)" style="fill: none; stroke: #ff0000; stroke-opacity: 0.7"/>
   </g>
   <g id="line2d_49">
    <path d="M 125.963118 117.925495 
L 144.987856 125.886047 
" clip-path="url(#p6861f750c6)" style="fill: none; stroke: #ff0000; stroke-opacity: 0.7"/>
   </g>
   <g id="line2d_50">
    <path d="M 144.987856 125.886047 
L 164.012594 133.846599 
" clip-path="url(#p6861f750c6)" style="fill: none; stroke: #ff0000; stroke-opacity: 0.7"/>
   </g>
   <g id="line2d_51">
    <path d="M 103.995243 125.805799 
L 84.970505 117.845247 
" clip-path="url(#p6861f750c6)" style="fill: none; stroke: #ff0000; stroke-opacity: 0.7"/>
   </g>
   <g id="line2d_52">
    <path d="M 84.970505 117.845247 
L 65.945768 109.884694 
" clip-path="url(#p6861f750c6)" style="fill: none; stroke: #ff0000; stroke-opacity: 0.7"/>
   </g>
   <g id="line2d_53">
    <path d="M 82.027368 79.876019 
L 63.002631 98.820509 
" clip-path="url(#p6861f750c6)" style="fill: none; stroke: #ff0000; stroke-opacity: 0.7"/>
   </g>
   <g id="line2d_54">
    <path d="M 63.002631 98.820509 
L 43.977893 117.764999 
" clip-path="url(#p6861f750c6)" style="fill: none; stroke: #ff0000; stroke-opacity: 0.7"/>
   </g>
   <g id="line2d_55">
    <path d="M 142.044719 87.916819 
L 131.060781 91.856971 
" clip-path="url(#p6861f750c6)" style="fill: none; stroke: #ff0000; stroke-opacity: 0.7"/>
   </g>
   <g id="line2d_56">
    <path d="M 131.060781 91.856971 
L 120.076844 95.797124 
" clip-path="url(#p6861f750c6)" style="fill: none; stroke: #ff0000; stroke-opacity: 0.7"/>
   </g>
   <g id="line2d_57">
    <path d="M 142.044719 87.916819 
L 153.028656 110.881709 
" clip-path="url(#p6861f750c6)" style="fill: none; stroke: #ff0000; stroke-opacity: 0.7"/>
   </g>
   <g id="line2d_58">
    <path d="M 153.028656 110.881709 
L 164.012594 133.846599 
" clip-path="url(#p6861f750c6)" style="fill: none; stroke: #ff0000; stroke-opacity: 0.7"/>
   </g>
   <g id="line2d_59">
    <path d="M 142.044719 87.916819 
L 131.060781 64.951929 
" clip-path="url(#p6861f750c6)" style="fill: none; stroke: #ff0000; stroke-opacity: 0.7"/>
   </g>
   <g id="line2d_60">
    <path d="M 131.060781 64.951929 
L 120.076844 41.987039 
" clip-path="url(#p6861f750c6)" style="fill: none; stroke: #ff0000; stroke-opacity: 0.7"/>
   </g>
   <g id="line2d_61">
    <path d="M 65.945768 109.884694 
L 54.96183 113.824846 
" clip-path="url(#p6861f750c6)" style="fill: none; stroke: #ff0000; stroke-opacity: 0.7"/>
   </g>
   <g id="line2d_62">
    <path d="M 54.96183 113.824846 
L 43.977893 117.764999 
" clip-path="url(#p6861f750c6)" style="fill: none; stroke: #ff0000; stroke-opacity: 0.7"/>
   </g>
   <g id="line2d_63">
    <path d="M 65.945768 109.884694 
L 76.929705 105.944542 
" clip-path="url(#p6861f750c6)" style="fill: none; stroke: #ff0000; stroke-opacity: 0.7"/>
   </g>
   <g id="line2d_64">
    <path d="M 76.929705 105.944542 
L 87.913643 102.00439 
" clip-path="url(#p6861f750c6)" style="fill: none; stroke: #ff0000; stroke-opacity: 0.7"/>
   </g>
   <g id="line2d_65">
    <path d="M 65.945768 109.884694 
L 76.929705 132.849584 
" clip-path="url(#p6861f750c6)" style="fill: none; stroke: #ff0000; stroke-opacity: 0.7"/>
   </g>
   <g id="line2d_66">
    <path d="M 76.929705 132.849584 
L 87.913643 155.814474 
" clip-path="url(#p6861f750c6)" style="fill: none; stroke: #ff0000; stroke-opacity: 0.7"/>
   </g>
   <g id="line2d_67">
    <path d="M 125.963118 117.925495 
L 106.93838 136.869984 
" clip-path="url(#p6861f750c6)" style="fill: none; stroke: #ff0000; stroke-opacity: 0.7"/>
   </g>
   <g id="line2d_68">
    <path d="M 106.93838 136.869984 
L 87.913643 155.814474 
" clip-path="url(#p6861f750c6)" style="fill: none; stroke: #ff0000; stroke-opacity: 0.7"/>
   </g>
   <g id="line2d_69">
    <path d="M 125.963118 117.925495 
L 106.93838 109.964942 
" clip-path="url(#p6861f750c6)" style="fill: none; stroke: #ff0000; stroke-opacity: 0.7"/>
   </g>
   <g id="line2d_70">
    <path d="M 106.93838 109.964942 
L 87.913643 102.00439 
" clip-path="url(#p6861f750c6)" style="fill: none; stroke: #ff0000; stroke-opacity: 0.7"/>
   </g>
   <g id="line2d_71">
    <path d="M 82.027368 79.876019 
L 93.011306 102.840909 
" clip-path="url(#p6861f750c6)" style="fill: none; stroke: #ff0000; stroke-opacity: 0.7"/>
   </g>
   <g id="line2d_72">
    <path d="M 93.011306 102.840909 
L 103.995243 125.805799 
" clip-path="url(#p6861f750c6)" style="fill: none; stroke: #ff0000; stroke-opacity: 0.7"/>
   </g>
   <g id="line2d_73">
    <path d="M 82.027368 79.876019 
L 93.011306 75.935867 
" clip-path="url(#p6861f750c6)" style="fill: none; stroke: #ff0000; stroke-opacity: 0.7"/>
   </g>
   <g id="line2d_74">
    <path d="M 93.011306 75.935867 
L 103.995243 71.995715 
" clip-path="url(#p6861f750c6)" style="fill: none; stroke: #ff0000; stroke-opacity: 0.7"/>
   </g>
   <g id="line2d_75">
    <path d="M 65.945768 109.884694 
L 84.970505 90.940204 
" clip-path="url(#p6861f750c6)" style="fill: none; stroke: #ff0000; stroke-opacity: 0.7"/>
   </g>
   <g id="line2d_76">
    <path d="M 84.970505 90.940204 
L 103.995243 71.995715 
" clip-path="url(#p6861f750c6)" style="fill: none; stroke: #ff0000; stroke-opacity: 0.7"/>
   </g>
   <g id="patch_3">
    <path d="M 120.076844 95.797124 
Q 129.079446 97.003244 137.306356 98.105441 
" clip-path="url(#p6861f750c6)" style="fill: none; stroke: #000000; stroke-width: 0.7; stroke-linecap: round"/>
    <path d="M 134.717055 96.346031 
L 137.306356 98.105441 
L 134.345248 99.121236 
z
" clip-path="url(#p6861f750c6)" style="stroke: #000000; stroke-width: 0.7; stroke-linecap: round"/>
   </g>
   <g id="Path3DCollection_1"/>
   <g id="text_1">
    <!-- $\vec{a}_1$ -->
    <g transform="translate(109.848284 108.729848) scale(0.1 -0.1)">
     <defs>
      <path id="STIXGeneral-Regular-20d7" d="M -109 4186 
L -954 3507 
L -1069 3558 
Q -755 3821 -755 3917 
Q -755 4013 -1069 4013 
L -2899 4013 
L -2899 4358 
L -1069 4358 
Q -755 4358 -755 4454 
Q -755 4474 -768 4496 
Q -781 4518 -816 4553 
Q -851 4589 -880 4621 
Q -909 4653 -973 4713 
Q -1037 4774 -1075 4813 
L -960 4864 
L -109 4186 
z
" transform="scale(0.015625)"/>
      <path id="STIXGeneral-Italic-61" d="M 2963 710 
L 3046 640 
Q 2688 205 2518 70 
Q 2349 -64 2157 -64 
Q 1901 -64 1901 198 
Q 1901 358 2048 934 
Q 1690 397 1389 163 
Q 1088 -70 749 -70 
Q 467 -70 288 125 
Q 109 320 109 672 
Q 109 1158 387 1664 
Q 666 2170 1094 2496 
Q 1523 2822 1939 2822 
Q 2368 2822 2451 2451 
L 2522 2758 
L 2541 2778 
L 2931 2822 
L 2976 2803 
Q 2970 2778 2938 2669 
Q 2368 595 2368 346 
Q 2368 262 2458 262 
Q 2554 262 2790 525 
L 2963 710 
z
M 2336 2310 
Q 2336 2477 2240 2579 
Q 2144 2682 1978 2682 
Q 1542 2682 1139 2093 
Q 928 1779 787 1395 
Q 646 1011 646 717 
Q 646 243 1030 243 
Q 1408 243 1843 870 
Q 2336 1581 2336 2310 
z
" transform="scale(0.015625)"/>
      <path id="STIXGeneral-Regular-31" d="M 2522 0 
L 755 0 
L 755 96 
Q 1107 115 1235 227 
Q 1363 339 1363 608 
L 1363 3482 
Q 1363 3795 1171 3795 
Q 1082 3795 883 3718 
L 710 3654 
L 710 3744 
L 1856 4326 
L 1914 4307 
L 1914 486 
Q 1914 275 2042 185 
Q 2170 96 2522 96 
L 2522 0 
z
" transform="scale(0.015625)"/>
     </defs>
     <use xlink:href="#STIXGeneral-Regular-20d7" transform="translate(54.821873 2)"/>
     <use xlink:href="#STIXGeneral-Italic-61" transform="translate(0 0.203125)"/>
     <use xlink:href="#STIXGeneral-Regular-31" transform="translate(51.643272 -13.025) scale(0.7)"/>
    </g>
   </g>
   <g id="text_2">
    <!-- $\vec{a}_2$ -->
    <g transform="translate(136.482916 101.041091) scale(0.1 -0.1)">
     <defs>
      <path id="STIXGeneral-Regular-32" d="M 3034 877 
L 2688 0 
L 186 0 
L 186 77 
L 1325 1286 
Q 1773 1754 1965 2144 
Q 2157 2534 2157 2950 
Q 2157 3379 1920 3616 
Q 1683 3853 1267 3853 
Q 922 3853 720 3673 
Q 518 3494 326 3021 
L 192 3053 
Q 301 3648 630 3987 
Q 960 4326 1523 4326 
Q 2054 4326 2380 4006 
Q 2707 3686 2707 3200 
Q 2707 2477 1888 1613 
L 832 486 
L 2330 486 
Q 2541 486 2665 569 
Q 2790 653 2944 915 
L 3034 877 
z
" transform="scale(0.015625)"/>
     </defs>
     <use xlink:href="#STIXGeneral-Regular-20d7" transform="translate(54.821873 2)"/>
     <use xlink:href="#STIXGeneral-Italic-61" transform="translate(0 0.203125)"/>
     <use xlink:href="#STIXGeneral-Regular-32" transform="translate(51.643272 -13.025) scale(0.7)"/>
    </g>
   </g>
   <g id="text_3">
    <!-- $\vec{a}_3$ -->
    <g transform="translate(115.476844 79.443282) scale(0.1 -0.1)">
     <defs>
      <path id="STIXGeneral-Regular-33" d="M 390 3264 
L 288 3290 
Q 435 3770 748 4048 
Q 1062 4326 1542 4326 
Q 1990 4326 2265 4083 
Q 2541 3840 2541 3450 
Q 2541 2925 1946 2566 
Q 2298 2413 2477 2227 
Q 2758 1914 2758 1402 
Q 2758 890 2464 506 
Q 2246 211 1840 60 
Q 1434 -90 979 -90 
Q 262 -90 262 275 
Q 262 378 339 442 
Q 416 506 525 506 
Q 685 506 915 339 
Q 1197 141 1466 141 
Q 1818 141 2058 425 
Q 2298 710 2298 1120 
Q 2298 1856 1632 2048 
Q 1434 2112 979 2112 
L 979 2202 
Q 1338 2323 1517 2432 
Q 2035 2726 2035 3290 
Q 2035 3610 1852 3776 
Q 1670 3942 1344 3942 
Q 768 3942 390 3264 
z
" transform="scale(0.015625)"/>
     </defs>
     <use xlink:href="#STIXGeneral-Regular-20d7" transform="translate(54.821873 2)"/>
     <use xlink:href="#STIXGeneral-Italic-61" transform="translate(0 0.203125)"/>
     <use xlink:href="#STIXGeneral-Regular-33" transform="translate(51.643272 -13.025) scale(0.7)"/>
    </g>
   </g>
   <g id="text_4">
    <!-- $\vec{a}_1$ -->
    <g transform="translate(130.854356 111.544128) scale(0.1 -0.1)">
     <use xlink:href="#STIXGeneral-Regular-20d7" transform="translate(54.821873 2)"/>
     <use xlink:href="#STIXGeneral-Italic-61" transform="translate(0 0.203125)"/>
     <use xlink:href="#STIXGeneral-Regular-31" transform="translate(51.643272 -13.025) scale(0.7)"/>
    </g>
   </g>
   <g id="text_5">
    <!-- $\vec{a}_2$ -->
    <g transform="translate(88.842211 105.915567) scale(0.1 -0.1)">
     <use xlink:href="#STIXGeneral-Regular-20d7" transform="translate(54.821873 2)"/>
     <use xlink:href="#STIXGeneral-Italic-61" transform="translate(0 0.203125)"/>
     <use xlink:href="#STIXGeneral-Regular-32" transform="translate(51.643272 -13.025) scale(0.7)"/>
    </g>
   </g>
   <g id="text_6">
    <!-- $\vec{a}_3$ -->
    <g transform="translate(115.476844 79.443282) scale(0.1 -0.1)">
     <use xlink:href="#STIXGeneral-Regular-20d7" transform="translate(54.821873 2)"/>
     <use xlink:href="#STIXGeneral-Italic-61" transform="translate(0 0.203125)"/>
     <use xlink:href="#STIXGeneral-Regular-33" transform="translate(51.643272 -13.025) scale(0.7)"/>
    </g>
   </g>
   <g id="patch_4">
    <path d="M 120.076844 95.797124 
Q 120.076844 87.725611 120.076844 80.436722 
" clip-path="url(#p6861f750c6)" style="fill: none; stroke: #000000; stroke-width: 0.7; stroke-linecap: round"/>
    <path d="M 118.676844 83.236722 
L 120.076844 80.436722 
L 121.476844 83.236722 
z
" clip-path="url(#p6861f750c6)" style="stroke: #000000; stroke-width: 0.7; stroke-linecap: round"/>
   </g>
   <g id="Path3DCollection_2">
    <path d="M 120.076844 99.332658 
C 121.014478 99.332658 121.913836 98.960131 122.576844 98.297124 
C 123.239852 97.634116 123.612378 96.734758 123.612378 95.797124 
C 123.612378 94.859489 123.239852 93.960131 122.576844 93.297124 
C 121.913836 92.634116 121.014478 92.26159 120.076844 92.26159 
C 119.139209 92.26159 118.239852 92.634116 117.576844 93.297124 
C 116.913836 93.960131 116.54131 94.859489 116.54131 95.797124 
C 116.54131 96.734758 116.913836 97.634116 117.576844 98.297124 
C 118.239852 98.960131 119.139209 99.332658 120.076844 99.332658 
z
" clip-path="url(#p6861f750c6)" style="fill: #0000ff; fill-opacity: 0.7; stroke: #0000ff; stroke-opacity: 0.7"/>
    <path d="M 180.094194 107.373458 
C 181.031829 107.373458 181.931186 107.000932 182.594194 106.337924 
C 183.257202 105.674916 183.629728 104.775559 183.629728 103.837924 
C 183.629728 102.900289 183.257202 102.000932 182.594194 101.337924 
C 181.931186 100.674916 181.031829 100.30239 180.094194 100.30239 
C 179.15656 100.30239 178.257202 100.674916 177.594194 101.337924 
C 176.931186 102.000932 176.55866 102.900289 176.55866 103.837924 
C 176.55866 104.775559 176.931186 105.674916 177.594194 106.337924 
C 178.257202 107.000932 179.15656 107.373458 180.094194 107.373458 
z
" clip-path="url(#p6861f750c6)" style="fill: #0000ff; fill-opacity: 0.7; stroke: #0000ff; stroke-opacity: 0.7"/>
    <path d="M 120.076844 45.522573 
C 121.014478 45.522573 121.913836 45.150047 122.576844 44.487039 
C 123.239852 43.824032 123.612378 42.924674 123.612378 41.987039 
C 123.612378 41.049405 123.239852 40.150047 122.576844 39.487039 
C 121.913836 38.824032 121.014478 38.451506 120.076844 38.451506 
C 119.139209 38.451506 118.239852 38.824032 117.576844 39.487039 
C 116.913836 40.150047 116.54131 41.049405 116.54131 41.987039 
C 116.54131 42.924674 116.913836 43.824032 117.576844 44.487039 
C 118.239852 45.150047 119.139209 45.522573 120.076844 45.522573 
z
" clip-path="url(#p6861f750c6)" style="fill: #0000ff; fill-opacity: 0.7; stroke: #0000ff; stroke-opacity: 0.7"/>
    <path d="M 180.094194 53.563374 
C 181.031829 53.563374 181.931186 53.190847 182.594194 52.52784 
C 183.257202 51.864832 183.629728 50.965474 183.629728 50.02784 
C 183.629728 49.090205 183.257202 48.190847 182.594194 47.52784 
C 181.931186 46.864832 181.031829 46.492306 180.094194 46.492306 
C 179.15656 46.492306 178.257202 46.864832 177.594194 47.52784 
C 176.931186 48.190847 176.55866 49.090205 176.55866 50.02784 
C 176.55866 50.965474 176.931186 51.864832 177.594194 52.52784 
C 178.257202 53.190847 179.15656 53.563374 180.094194 53.563374 
z
" clip-path="url(#p6861f750c6)" style="fill: #0000ff; fill-opacity: 0.7; stroke: #0000ff; stroke-opacity: 0.7"/>
    <path d="M 142.044719 91.452353 
C 142.982353 91.452353 143.881711 91.079827 144.544719 90.416819 
C 145.207726 89.753812 145.580253 88.854454 145.580253 87.916819 
C 145.580253 86.979185 145.207726 86.079827 144.544719 85.416819 
C 143.881711 84.753812 142.982353 84.381285 142.044719 84.381285 
C 141.107084 84.381285 140.207726 84.753812 139.544719 85.416819 
C 138.881711 86.079827 138.509185 86.979185 138.509185 87.916819 
C 138.509185 88.854454 138.881711 89.753812 139.544719 90.416819 
C 140.207726 91.079827 141.107084 91.452353 142.044719 91.452353 
z
" clip-path="url(#p6861f750c6)" style="fill: #0000ff; fill-opacity: 0.7; stroke: #0000ff; stroke-opacity: 0.7"/>
    <path d="M 103.995243 129.341333 
C 104.932878 129.341333 105.832235 128.968807 106.495243 128.305799 
C 107.158251 127.642791 107.530777 126.743433 107.530777 125.805799 
C 107.530777 124.868164 107.158251 123.968807 106.495243 123.305799 
C 105.832235 122.642791 104.932878 122.270265 103.995243 122.270265 
C 103.057609 122.270265 102.158251 122.642791 101.495243 123.305799 
C 100.832235 123.968807 100.459709 124.868164 100.459709 125.805799 
C 100.459709 126.743433 100.832235 127.642791 101.495243 128.305799 
C 102.158251 128.968807 103.057609 129.341333 103.995243 129.341333 
z
" clip-path="url(#p6861f750c6)" style="fill: #0000ff; fill-opacity: 0.7; stroke: #0000ff; stroke-opacity: 0.7"/>
    <path d="M 164.012594 137.382133 
C 164.950228 137.382133 165.849586 137.009607 166.512594 136.346599 
C 167.175601 135.683591 167.548128 134.784234 167.548128 133.846599 
C 167.548128 132.908965 167.175601 132.009607 166.512594 131.346599 
C 165.849586 130.683591 164.950228 130.311065 164.012594 130.311065 
C 163.074959 130.311065 162.175601 130.683591 161.512594 131.346599 
C 160.849586 132.009607 160.47706 132.908965 160.47706 133.846599 
C 160.47706 134.784234 160.849586 135.683591 161.512594 136.346599 
C 162.175601 137.009607 163.074959 137.382133 164.012594 137.382133 
z
" clip-path="url(#p6861f750c6)" style="fill: #0000ff; fill-opacity: 0.7; stroke: #0000ff; stroke-opacity: 0.7"/>
    <path d="M 103.995243 75.531249 
C 104.932878 75.531249 105.832235 75.158722 106.495243 74.495715 
C 107.158251 73.832707 107.530777 72.933349 107.530777 71.995715 
C 107.530777 71.05808 107.158251 70.158722 106.495243 69.495715 
C 105.832235 68.832707 104.932878 68.460181 103.995243 68.460181 
C 103.057609 68.460181 102.158251 68.832707 101.495243 69.495715 
C 100.832235 70.158722 100.459709 71.05808 100.459709 71.995715 
C 100.459709 72.933349 100.832235 73.832707 101.495243 74.495715 
C 102.158251 75.158722 103.057609 75.531249 103.995243 75.531249 
z
" clip-path="url(#p6861f750c6)" style="fill: #0000ff; fill-opacity: 0.7; stroke: #0000ff; stroke-opacity: 0.7"/>
    <path d="M 164.012594 83.572049 
C 164.950228 83.572049 165.849586 83.199523 166.512594 82.536515 
C 167.175601 81.873507 167.548128 80.974149 167.548128 80.036515 
C 167.548128 79.09888 167.175601 78.199523 166.512594 77.536515 
C 165.849586 76.873507 164.950228 76.500981 164.012594 76.500981 
C 163.074959 76.500981 162.175601 76.873507 161.512594 77.536515 
C 160.849586 78.199523 160.47706 79.09888 160.47706 80.036515 
C 160.47706 80.974149 160.849586 81.873507 161.512594 82.536515 
C 162.175601 83.199523 163.074959 83.572049 164.012594 83.572049 
z
" clip-path="url(#p6861f750c6)" style="fill: #0000ff; fill-opacity: 0.7; stroke: #0000ff; stroke-opacity: 0.7"/>
   </g>
   <g id="patch_5">
    <path d="M 120.076844 95.797124 
Q 120.076844 87.725611 120.076844 80.436722 
" clip-path="url(#p6861f750c6)" style="fill: none; stroke: #000000; stroke-width: 0.7; stroke-linecap: round"/>
    <path d="M 118.676844 83.236722 
L 120.076844 80.436722 
L 121.476844 83.236722 
z
" clip-path="url(#p6861f750c6)" style="stroke: #000000; stroke-width: 0.7; stroke-linecap: round"/>
   </g>
   <g id="Path3DCollection_3"/>
   <g id="legend_1">
    <g id="line2d_77">
     <path d="M 16.2 166.846 
L 26.2 166.846 
L 36.2 166.846 
" style="fill: none; stroke: #0000ff; stroke-width: 1.5; stroke-linecap: round"/>
    </g>
    <g id="text_7">
     <!-- original -->
     <g transform="translate(44.2 170.346) scale(0.1 -0.1)">
      <defs>
       <path id="STIXGeneral-Regular-6f" d="M 3008 1478 
Q 3008 806 2608 371 
Q 2208 -64 1568 -64 
Q 979 -64 582 368 
Q 186 800 186 1459 
Q 186 2125 582 2534 
Q 979 2944 1626 2944 
Q 2221 2944 2614 2537 
Q 3008 2131 3008 1478 
z
M 2432 1306 
Q 2432 2035 2112 2445 
Q 1856 2765 1504 2765 
Q 1171 2765 966 2493 
Q 762 2221 762 1747 
Q 762 928 1101 435 
Q 1318 115 1677 115 
Q 2029 115 2230 432 
Q 2432 749 2432 1306 
z
" transform="scale(0.015625)"/>
       <path id="STIXGeneral-Regular-72" d="M 1024 2931 
L 1024 2342 
Q 1267 2688 1430 2816 
Q 1594 2944 1792 2944 
Q 1958 2944 2051 2854 
Q 2144 2765 2144 2605 
Q 2144 2470 2077 2393 
Q 2010 2317 1894 2317 
Q 1773 2317 1638 2445 
Q 1536 2541 1472 2541 
Q 1338 2541 1181 2355 
Q 1024 2170 1024 2016 
L 1024 576 
Q 1024 301 1133 205 
Q 1242 109 1568 96 
L 1568 0 
L 32 0 
L 32 96 
Q 339 154 412 224 
Q 486 294 486 538 
L 486 2138 
Q 486 2349 438 2435 
Q 390 2522 269 2522 
Q 166 2522 45 2496 
L 45 2598 
Q 448 2726 992 2944 
L 1024 2931 
z
" transform="scale(0.015625)"/>
       <path id="STIXGeneral-Regular-69" d="M 1152 4045 
Q 1152 3904 1056 3811 
Q 960 3718 819 3718 
Q 685 3718 592 3811 
Q 499 3904 499 4045 
Q 499 4179 595 4275 
Q 691 4371 826 4371 
Q 966 4371 1059 4275 
Q 1152 4179 1152 4045 
z
M 1619 0 
L 102 0 
L 102 96 
Q 435 115 521 211 
Q 608 307 608 666 
L 608 2118 
Q 608 2342 563 2432 
Q 518 2522 397 2522 
Q 243 2522 128 2490 
L 128 2592 
L 1120 2944 
L 1146 2918 
L 1146 672 
Q 1146 314 1226 218 
Q 1306 122 1619 96 
L 1619 0 
z
" transform="scale(0.015625)"/>
       <path id="STIXGeneral-Regular-67" d="M 3008 2483 
L 2477 2483 
Q 2598 2208 2598 1946 
Q 2598 1453 2265 1203 
Q 1933 954 1600 954 
Q 1530 954 1357 973 
L 1235 986 
Q 1107 947 979 812 
Q 851 678 851 582 
Q 851 435 1350 410 
L 2176 371 
Q 2528 358 2739 172 
Q 2950 -13 2950 -314 
Q 2950 -685 2566 -986 
Q 2035 -1395 1286 -1395 
Q 826 -1395 502 -1212 
Q 179 -1030 179 -774 
Q 179 -595 320 -419 
Q 461 -243 806 6 
Q 602 102 534 172 
Q 467 243 467 346 
Q 467 531 762 787 
Q 909 915 1037 1043 
Q 717 1203 579 1401 
Q 442 1600 442 1901 
Q 442 2336 752 2640 
Q 1062 2944 1510 2944 
Q 1766 2944 2022 2848 
L 2163 2797 
Q 2349 2733 2515 2733 
L 3008 2733 
L 3008 2483 
z
M 973 2163 
L 973 2144 
Q 973 1683 1155 1398 
Q 1338 1114 1632 1114 
Q 1850 1114 1978 1270 
Q 2106 1427 2106 1690 
Q 2106 2112 1914 2464 
Q 1754 2765 1446 2765 
Q 1222 2765 1097 2605 
Q 973 2445 973 2163 
z
M 2771 -410 
Q 2771 -230 2595 -163 
Q 2419 -96 1978 -96 
Q 1344 -96 941 -13 
Q 749 -243 688 -348 
Q 627 -454 627 -563 
Q 627 -774 880 -902 
Q 1133 -1030 1555 -1030 
Q 2099 -1030 2435 -860 
Q 2771 -691 2771 -410 
z
" transform="scale(0.015625)"/>
       <path id="STIXGeneral-Regular-6e" d="M 3104 0 
L 1773 0 
L 1779 96 
Q 2016 115 2096 233 
Q 2176 352 2176 672 
L 2176 1946 
Q 2176 2592 1709 2592 
Q 1549 2592 1408 2515 
Q 1267 2438 1050 2227 
L 1050 461 
Q 1050 269 1136 192 
Q 1222 115 1466 96 
L 1466 0 
L 115 0 
L 115 96 
Q 358 115 435 214 
Q 512 314 512 602 
L 512 2157 
Q 512 2394 467 2483 
Q 422 2573 288 2573 
Q 160 2573 102 2547 
L 102 2656 
Q 550 2784 979 2944 
L 1030 2925 
L 1030 2426 
L 1037 2426 
Q 1491 2944 1958 2944 
Q 2323 2944 2518 2688 
Q 2714 2432 2714 1958 
L 2714 544 
Q 2714 288 2790 205 
Q 2867 122 3104 96 
L 3104 0 
z
" transform="scale(0.015625)"/>
       <path id="STIXGeneral-Regular-61" d="M 2829 422 
L 2829 243 
Q 2586 -64 2253 -64 
Q 1888 -64 1843 403 
L 1837 403 
Q 1427 -64 909 -64 
Q 608 -64 422 112 
Q 237 288 237 602 
Q 237 1050 685 1350 
Q 992 1555 1837 1869 
L 1837 2214 
Q 1837 2502 1699 2646 
Q 1562 2790 1338 2790 
Q 1146 2790 1018 2697 
Q 890 2605 890 2477 
Q 890 2419 909 2348 
Q 928 2278 928 2208 
Q 928 2112 841 2029 
Q 755 1946 634 1946 
Q 525 1946 441 2029 
Q 358 2112 358 2240 
Q 358 2547 685 2752 
Q 986 2944 1421 2944 
Q 1939 2944 2176 2656 
Q 2291 2522 2323 2384 
Q 2355 2246 2355 1946 
L 2355 723 
Q 2355 301 2554 301 
Q 2682 301 2829 422 
z
M 1837 813 
L 1837 1715 
Q 1248 1510 1018 1293 
Q 800 1094 800 800 
Q 800 557 921 432 
Q 1043 307 1242 307 
Q 1453 307 1613 410 
Q 1747 506 1792 589 
Q 1837 672 1837 813 
z
" transform="scale(0.015625)"/>
       <path id="STIXGeneral-Regular-6c" d="M 1645 0 
L 134 0 
L 134 96 
Q 435 122 531 221 
Q 627 320 627 589 
L 627 3590 
Q 627 3821 569 3910 
Q 512 4000 358 4000 
Q 224 4000 122 3987 
L 122 4090 
Q 730 4237 1133 4371 
L 1165 4346 
L 1165 557 
Q 1165 288 1254 201 
Q 1344 115 1645 96 
L 1645 0 
z
" transform="scale(0.015625)"/>
      </defs>
      <use xlink:href="#STIXGeneral-Regular-6f"/>
      <use xlink:href="#STIXGeneral-Regular-72" x="49.999985"/>
      <use xlink:href="#STIXGeneral-Regular-69" x="83.299973"/>
      <use xlink:href="#STIXGeneral-Regular-67" x="111.09996"/>
      <use xlink:href="#STIXGeneral-Regular-69" x="161.099945"/>
      <use xlink:href="#STIXGeneral-Regular-6e" x="188.899933"/>
      <use xlink:href="#STIXGeneral-Regular-61" x="238.899918"/>
      <use xlink:href="#STIXGeneral-Regular-6c" x="283.299911"/>
     </g>
    </g>
    <g id="Path3DCollection_4">
     <defs>
      <path id="m4ff83f2d0f" d="M 0 3.535534 
C 0.937635 3.535534 1.836992 3.163008 2.5 2.5 
C 3.163008 1.836992 3.535534 0.937635 3.535534 0 
C 3.535534 -0.937635 3.163008 -1.836992 2.5 -2.5 
C 1.836992 -3.163008 0.937635 -3.535534 0 -3.535534 
C -0.937635 -3.535534 -1.836992 -3.163008 -2.5 -2.5 
C -3.163008 -1.836992 -3.535534 -0.937635 -3.535534 0 
C -3.535534 0.937635 -3.163008 1.836992 -2.5 2.5 
C -1.836992 3.163008 -0.937635 3.535534 0 3.535534 
z
" style="stroke: #0000ff"/>
     </defs>
     <g>
      <use xlink:href="#m4ff83f2d0f" x="26.2" y="181.900687" style="fill: #0000ff; stroke: #0000ff"/>
     </g>
    </g>
    <g id="text_8">
     <!-- H -->
     <g transform="translate(44.2 184.525687) scale(0.1 -0.1)">
      <defs>
       <path id="STIXGeneral-Regular-48" d="M 4499 0 
L 2714 0 
L 2714 122 
Q 3085 147 3181 265 
Q 3277 384 3277 794 
L 3277 2016 
L 1338 2016 
L 1338 723 
Q 1338 371 1440 256 
Q 1542 141 1894 122 
L 1901 0 
L 115 0 
L 115 122 
Q 493 147 589 259 
Q 685 371 685 781 
L 685 3507 
Q 685 3878 585 3980 
Q 486 4083 115 4115 
L 115 4237 
L 1907 4237 
L 1907 4115 
Q 1549 4083 1443 3977 
Q 1338 3872 1338 3507 
L 1338 2298 
L 3277 2298 
L 3277 3507 
Q 3277 3878 3177 3980 
Q 3078 4083 2707 4115 
L 2707 4237 
L 4499 4237 
L 4499 4115 
Q 4141 4083 4035 3977 
Q 3930 3872 3930 3507 
L 3930 710 
Q 3930 371 4035 259 
Q 4141 147 4499 122 
L 4499 0 
z
" transform="scale(0.015625)"/>
      </defs>
      <use xlink:href="#STIXGeneral-Regular-48"/>
     </g>
    </g>
    <g id="line2d_78">
     <path d="M 95.309375 166.846 
L 105.309375 166.846 
L 115.309375 166.846 
" style="fill: none; stroke: #ff0000; stroke-width: 1.5; stroke-linecap: round"/>
    </g>
    <g id="text_9">
     <!-- transformed -->
     <g transform="translate(123.309375 170.346) scale(0.1 -0.1)">
      <defs>
       <path id="STIXGeneral-Regular-74" d="M 1702 493 
L 1786 422 
Q 1478 -64 1011 -64 
Q 448 -64 448 749 
L 448 2675 
L 109 2675 
Q 83 2694 83 2720 
Q 83 2771 192 2842 
Q 435 2982 813 3526 
Q 826 3546 874 3606 
Q 922 3667 941 3706 
Q 986 3706 986 3622 
L 986 2880 
L 1632 2880 
L 1632 2675 
L 986 2675 
L 986 845 
Q 986 538 1062 403 
Q 1139 269 1318 269 
Q 1510 269 1702 493 
z
" transform="scale(0.015625)"/>
       <path id="STIXGeneral-Regular-73" d="M 998 1926 
L 1664 1523 
Q 1984 1331 2105 1164 
Q 2227 998 2227 736 
Q 2227 416 1961 176 
Q 1696 -64 1331 -64 
Q 1030 -64 864 -6 
Q 691 51 570 51 
Q 461 51 416 -26 
L 333 -26 
L 333 979 
L 435 979 
Q 538 512 730 294 
Q 922 77 1248 77 
Q 1485 77 1632 211 
Q 1779 346 1779 550 
Q 1779 845 1440 1030 
L 1094 1222 
Q 326 1651 326 2150 
Q 326 2522 566 2730 
Q 806 2938 1210 2938 
Q 1491 2938 1638 2867 
Q 1754 2816 1818 2816 
Q 1862 2816 1920 2880 
L 1990 2880 
L 2022 2010 
L 1926 2010 
Q 1818 2445 1654 2621 
Q 1491 2797 1203 2797 
Q 986 2797 854 2688 
Q 723 2579 723 2362 
Q 723 2253 796 2128 
Q 870 2003 998 1926 
z
" transform="scale(0.015625)"/>
       <path id="STIXGeneral-Regular-66" d="M 134 2880 
L 659 2880 
Q 666 3264 710 3478 
Q 755 3693 883 3910 
Q 1152 4371 1786 4371 
Q 2074 4371 2262 4259 
Q 2451 4147 2451 3974 
Q 2451 3866 2374 3789 
Q 2298 3712 2182 3712 
Q 2029 3712 1894 3942 
Q 1741 4192 1555 4192 
Q 1197 4192 1197 3622 
L 1197 2880 
L 1978 2880 
L 1978 2675 
L 1197 2675 
L 1197 666 
Q 1197 307 1299 208 
Q 1402 109 1792 96 
L 1792 0 
L 128 0 
L 128 96 
Q 474 115 566 214 
Q 659 314 659 666 
L 659 2675 
L 134 2675 
L 134 2880 
z
" transform="scale(0.015625)"/>
       <path id="STIXGeneral-Regular-6d" d="M 4960 0 
L 3565 0 
L 3565 96 
Q 3834 122 3907 208 
Q 3981 294 3981 576 
L 3981 1894 
Q 3981 2278 3869 2444 
Q 3757 2611 3488 2611 
Q 3264 2611 3107 2521 
Q 2950 2432 2803 2221 
L 2803 608 
Q 2803 301 2896 201 
Q 2989 102 3264 96 
L 3264 0 
L 1830 0 
L 1830 96 
Q 2112 115 2189 188 
Q 2266 262 2266 550 
L 2266 1901 
Q 2266 2611 1850 2611 
Q 1670 2611 1468 2531 
Q 1267 2451 1171 2336 
Q 1088 2240 1088 2227 
L 1088 448 
Q 1088 243 1177 176 
Q 1267 109 1523 96 
L 1523 0 
L 102 0 
L 102 96 
Q 371 102 460 195 
Q 550 288 550 563 
L 550 2150 
Q 550 2387 499 2480 
Q 448 2573 326 2573 
Q 230 2573 122 2547 
L 122 2656 
Q 557 2778 1011 2944 
L 1062 2925 
L 1062 2451 
L 1075 2451 
Q 1363 2752 1584 2848 
Q 1805 2944 2054 2944 
Q 2560 2944 2733 2406 
Q 3232 2944 3776 2944 
Q 4518 2944 4518 1792 
L 4518 493 
Q 4518 282 4582 202 
Q 4646 122 4794 109 
L 4960 96 
L 4960 0 
z
" transform="scale(0.015625)"/>
       <path id="STIXGeneral-Regular-65" d="M 2611 1050 
L 2714 1005 
Q 2330 -64 1376 -64 
Q 813 -64 486 329 
Q 160 723 160 1389 
Q 160 2074 525 2509 
Q 890 2944 1485 2944 
Q 2061 2944 2374 2502 
Q 2560 2246 2592 1773 
L 621 1773 
Q 646 1370 700 1158 
Q 755 947 915 730 
Q 1184 378 1626 378 
Q 1939 378 2153 531 
Q 2368 685 2611 1050 
z
M 634 1978 
L 1939 1978 
Q 1882 2381 1750 2547 
Q 1619 2714 1312 2714 
Q 1043 2714 864 2525 
Q 685 2336 634 1978 
z
" transform="scale(0.015625)"/>
       <path id="STIXGeneral-Regular-64" d="M 3142 269 
L 2202 -64 
L 2176 -45 
L 2176 365 
Q 1869 -64 1357 -64 
Q 826 -64 499 317 
Q 173 698 173 1312 
Q 173 1990 563 2467 
Q 954 2944 1504 2944 
Q 1850 2944 2176 2669 
L 2176 3667 
Q 2176 3866 2118 3930 
Q 2061 3994 1882 3994 
Q 1792 3994 1741 3987 
L 1741 4090 
Q 2323 4243 2682 4371 
L 2714 4358 
L 2714 730 
Q 2714 506 2768 435 
Q 2822 365 2995 365 
Q 3034 365 3142 371 
L 3142 269 
z
M 2176 653 
L 2176 2125 
Q 2176 2381 1981 2573 
Q 1786 2765 1523 2765 
Q 1158 2765 940 2438 
Q 723 2112 723 1568 
Q 723 979 963 624 
Q 1203 269 1606 269 
Q 1907 269 2080 474 
Q 2176 582 2176 653 
z
" transform="scale(0.015625)"/>
      </defs>
      <use xlink:href="#STIXGeneral-Regular-74"/>
      <use xlink:href="#STIXGeneral-Regular-72" x="27.799988"/>
      <use xlink:href="#STIXGeneral-Regular-61" x="61.099976"/>
      <use xlink:href="#STIXGeneral-Regular-6e" x="105.499969"/>
      <use xlink:href="#STIXGeneral-Regular-73" x="155.499954"/>
      <use xlink:href="#STIXGeneral-Regular-66" x="194.399948"/>
      <use xlink:href="#STIXGeneral-Regular-6f" x="227.699936"/>
      <use xlink:href="#STIXGeneral-Regular-72" x="277.699921"/>
      <use xlink:href="#STIXGeneral-Regular-6d" x="310.999908"/>
      <use xlink:href="#STIXGeneral-Regular-65" x="388.799896"/>
      <use xlink:href="#STIXGeneral-Regular-64" x="433.19989"/>
     </g>
    </g>
    <g id="Path3DCollection_5">
     <defs>
      <path id="m8e315dfd83" d="M 0 3.535534 
C 0.937635 3.535534 1.836992 3.163008 2.5 2.5 
C 3.163008 1.836992 3.535534 0.937635 3.535534 0 
C 3.535534 -0.937635 3.163008 -1.836992 2.5 -2.5 
C 1.836992 -3.163008 0.937635 -3.535534 0 -3.535534 
C -0.937635 -3.535534 -1.836992 -3.163008 -2.5 -2.5 
C -3.163008 -1.836992 -3.535534 -0.937635 -3.535534 0 
C -3.535534 0.937635 -3.163008 1.836992 -2.5 2.5 
C -1.836992 3.163008 -0.937635 3.535534 0 3.535534 
z
" style="stroke: #ff0000"/>
     </defs>
     <g>
      <use xlink:href="#m8e315dfd83" x="105.309375" y="181.891312" style="fill: #ff0000; stroke: #ff0000"/>
     </g>
    </g>
    <g id="text_10">
     <!-- H -->
     <g transform="translate(123.309375 184.516312) scale(0.1 -0.1)">
      <use xlink:href="#STIXGeneral-Regular-48"/>
     </g>
    </g>
   </g>
   <g id="patch_6">
    <path d="M 120.076844 95.797124 
Q 108.662001 99.092305 97.999079 102.170425 
" clip-path="url(#p6861f750c6)" style="fill: none; stroke: #000000; stroke-width: 0.7; stroke-linecap: round"/>
    <path d="M 101.077522 102.738922 
L 97.999079 102.170425 
L 100.300942 100.048769 
z
" clip-path="url(#p6861f750c6)" style="stroke: #000000; stroke-width: 0.7; stroke-linecap: round"/>
   </g>
   <g id="Path3DCollection_6">
    <path d="M 120.076844 99.332658 
C 121.014478 99.332658 121.913836 98.960131 122.576844 98.297124 
C 123.239852 97.634116 123.612378 96.734758 123.612378 95.797124 
C 123.612378 94.859489 123.239852 93.960131 122.576844 93.297124 
C 121.913836 92.634116 121.014478 92.26159 120.076844 92.26159 
C 119.139209 92.26159 118.239852 92.634116 117.576844 93.297124 
C 116.913836 93.960131 116.54131 94.859489 116.54131 95.797124 
C 116.54131 96.734758 116.913836 97.634116 117.576844 98.297124 
C 118.239852 98.960131 119.139209 99.332658 120.076844 99.332658 
z
" clip-path="url(#p6861f750c6)" style="fill: #ff0000; fill-opacity: 0.7; stroke: #ff0000; stroke-opacity: 0.7"/>
    <path d="M 120.076844 45.522573 
C 121.014478 45.522573 121.913836 45.150047 122.576844 44.487039 
C 123.239852 43.824032 123.612378 42.924674 123.612378 41.987039 
C 123.612378 41.049405 123.239852 40.150047 122.576844 39.487039 
C 121.913836 38.824032 121.014478 38.451506 120.076844 38.451506 
C 119.139209 38.451506 118.239852 38.824032 117.576844 39.487039 
C 116.913836 40.150047 116.54131 41.049405 116.54131 41.987039 
C 116.54131 42.924674 116.913836 43.824032 117.576844 44.487039 
C 118.239852 45.150047 119.139209 45.522573 120.076844 45.522573 
z
" clip-path="url(#p6861f750c6)" style="fill: #ff0000; fill-opacity: 0.7; stroke: #ff0000; stroke-opacity: 0.7"/>
    <path d="M 82.027368 83.411553 
C 82.965003 83.411553 83.864361 83.039027 84.527368 82.376019 
C 85.190376 81.713011 85.562902 80.813654 85.562902 79.876019 
C 85.562902 78.938384 85.190376 78.039027 84.527368 77.376019 
C 83.864361 76.713011 82.965003 76.340485 82.027368 76.340485 
C 81.089734 76.340485 80.190376 76.713011 79.527368 77.376019 
C 78.864361 78.039027 78.491834 78.938384 78.491834 79.876019 
C 78.491834 80.813654 78.864361 81.713011 79.527368 82.376019 
C 80.190376 83.039027 81.089734 83.411553 82.027368 83.411553 
z
" clip-path="url(#p6861f750c6)" style="fill: #ff0000; fill-opacity: 0.7; stroke: #ff0000; stroke-opacity: 0.7"/>
    <path d="M 43.977893 121.300533 
C 44.915527 121.300533 45.814885 120.928006 46.477893 120.264999 
C 47.140901 119.601991 47.513427 118.702633 47.513427 117.764999 
C 47.513427 116.827364 47.140901 115.928006 46.477893 115.264999 
C 45.814885 114.601991 44.915527 114.229465 43.977893 114.229465 
C 43.040258 114.229465 42.140901 114.601991 41.477893 115.264999 
C 40.814885 115.928006 40.442359 116.827364 40.442359 117.764999 
C 40.442359 118.702633 40.814885 119.601991 41.477893 120.264999 
C 42.140901 120.928006 43.040258 121.300533 43.977893 121.300533 
z
" clip-path="url(#p6861f750c6)" style="fill: #ff0000; fill-opacity: 0.7; stroke: #ff0000; stroke-opacity: 0.7"/>
    <path d="M 142.044719 91.452353 
C 142.982353 91.452353 143.881711 91.079827 144.544719 90.416819 
C 145.207726 89.753812 145.580253 88.854454 145.580253 87.916819 
C 145.580253 86.979185 145.207726 86.079827 144.544719 85.416819 
C 143.881711 84.753812 142.982353 84.381285 142.044719 84.381285 
C 141.107084 84.381285 140.207726 84.753812 139.544719 85.416819 
C 138.881711 86.079827 138.509185 86.979185 138.509185 87.916819 
C 138.509185 88.854454 138.881711 89.753812 139.544719 90.416819 
C 140.207726 91.079827 141.107084 91.452353 142.044719 91.452353 
z
" clip-path="url(#p6861f750c6)" style="fill: #ff0000; fill-opacity: 0.7; stroke: #ff0000; stroke-opacity: 0.7"/>
    <path d="M 103.995243 129.341333 
C 104.932878 129.341333 105.832235 128.968807 106.495243 128.305799 
C 107.158251 127.642791 107.530777 126.743433 107.530777 125.805799 
C 107.530777 124.868164 107.158251 123.968807 106.495243 123.305799 
C 105.832235 122.642791 104.932878 122.270265 103.995243 122.270265 
C 103.057609 122.270265 102.158251 122.642791 101.495243 123.305799 
C 100.832235 123.968807 100.459709 124.868164 100.459709 125.805799 
C 100.459709 126.743433 100.832235 127.642791 101.495243 128.305799 
C 102.158251 128.968807 103.057609 129.341333 103.995243 129.341333 
z
" clip-path="url(#p6861f750c6)" style="fill: #ff0000; fill-opacity: 0.7; stroke: #ff0000; stroke-opacity: 0.7"/>
    <path d="M 164.012594 137.382133 
C 164.950228 137.382133 165.849586 137.009607 166.512594 136.346599 
C 167.175601 135.683591 167.548128 134.784234 167.548128 133.846599 
C 167.548128 132.908965 167.175601 132.009607 166.512594 131.346599 
C 165.849586 130.683591 164.950228 130.311065 164.012594 130.311065 
C 163.074959 130.311065 162.175601 130.683591 161.512594 131.346599 
C 160.849586 132.009607 160.47706 132.908965 160.47706 133.846599 
C 160.47706 134.784234 160.849586 135.683591 161.512594 136.346599 
C 162.175601 137.009607 163.074959 137.382133 164.012594 137.382133 
z
" clip-path="url(#p6861f750c6)" style="fill: #ff0000; fill-opacity: 0.7; stroke: #ff0000; stroke-opacity: 0.7"/>
    <path d="M 43.977893 67.490448 
C 44.915527 67.490448 45.814885 67.117922 46.477893 66.454914 
C 47.140901 65.791907 47.513427 64.892549 47.513427 63.954914 
C 47.513427 63.01728 47.140901 62.117922 46.477893 61.454914 
C 45.814885 60.791907 44.915527 60.41938 43.977893 60.41938 
C 43.040258 60.41938 42.140901 60.791907 41.477893 61.454914 
C 40.814885 62.117922 40.442359 63.01728 40.442359 63.954914 
C 40.442359 64.892549 40.814885 65.791907 41.477893 66.454914 
C 42.140901 67.117922 43.040258 67.490448 43.977893 67.490448 
z
" clip-path="url(#p6861f750c6)" style="fill: #ff0000; fill-opacity: 0.7; stroke: #ff0000; stroke-opacity: 0.7"/>
    <path d="M 103.995243 75.531249 
C 104.932878 75.531249 105.832235 75.158722 106.495243 74.495715 
C 107.158251 73.832707 107.530777 72.933349 107.530777 71.995715 
C 107.530777 71.05808 107.158251 70.158722 106.495243 69.495715 
C 105.832235 68.832707 104.932878 68.460181 103.995243 68.460181 
C 103.057609 68.460181 102.158251 68.832707 101.495243 69.495715 
C 100.832235 70.158722 100.459709 71.05808 100.459709 71.995715 
C 100.459709 72.933349 100.832235 73.832707 101.495243 74.495715 
C 102.158251 75.158722 103.057609 75.531249 103.995243 75.531249 
z
" clip-path="url(#p6861f750c6)" style="fill: #ff0000; fill-opacity: 0.7; stroke: #ff0000; stroke-opacity: 0.7"/>
    <path d="M 65.945768 113.420228 
C 66.883402 113.420228 67.78276 113.047702 68.445768 112.384694 
C 69.108776 111.721686 69.481302 110.822329 69.481302 109.884694 
C 69.481302 108.94706 69.108776 108.047702 68.445768 107.384694 
C 67.78276 106.721686 66.883402 106.34916 65.945768 106.34916 
C 65.008133 106.34916 64.108776 106.721686 63.445768 107.384694 
C 62.78276 108.047702 62.410234 108.94706 62.410234 109.884694 
C 62.410234 110.822329 62.78276 111.721686 63.445768 112.384694 
C 64.108776 113.047702 65.008133 113.420228 65.945768 113.420228 
z
" clip-path="url(#p6861f750c6)" style="fill: #ff0000; fill-opacity: 0.7; stroke: #ff0000; stroke-opacity: 0.7"/>
    <path d="M 164.012594 83.572049 
C 164.950228 83.572049 165.849586 83.199523 166.512594 82.536515 
C 167.175601 81.873507 167.548128 80.974149 167.548128 80.036515 
C 167.548128 79.09888 167.175601 78.199523 166.512594 77.536515 
C 165.849586 76.873507 164.950228 76.500981 164.012594 76.500981 
C 163.074959 76.500981 162.175601 76.873507 161.512594 77.536515 
C 160.849586 78.199523 160.47706 79.09888 160.47706 80.036515 
C 160.47706 80.974149 160.849586 81.873507 161.512594 82.536515 
C 162.175601 83.199523 163.074959 83.572049 164.012594 83.572049 
z
" clip-path="url(#p6861f750c6)" style="fill: #ff0000; fill-opacity: 0.7; stroke: #ff0000; stroke-opacity: 0.7"/>
    <path d="M 125.963118 121.461028 
C 126.900753 121.461028 127.80011 121.088502 128.463118 120.425495 
C 129.126126 119.762487 129.498652 118.863129 129.498652 117.925495 
C 129.498652 116.98786 129.126126 116.088502 128.463118 115.425495 
C 127.80011 114.762487 126.900753 114.389961 125.963118 114.389961 
C 125.025484 114.389961 124.126126 114.762487 123.463118 115.425495 
C 122.80011 116.088502 122.427584 116.98786 122.427584 117.925495 
C 122.427584 118.863129 122.80011 119.762487 123.463118 120.425495 
C 124.126126 121.088502 125.025484 121.461028 125.963118 121.461028 
z
" clip-path="url(#p6861f750c6)" style="fill: #ff0000; fill-opacity: 0.7; stroke: #ff0000; stroke-opacity: 0.7"/>
    <path d="M 87.913643 159.350008 
C 88.851277 159.350008 89.750635 158.977482 90.413643 158.314474 
C 91.07665 157.651466 91.449177 156.752109 91.449177 155.814474 
C 91.449177 154.87684 91.07665 153.977482 90.413643 153.314474 
C 89.750635 152.651466 88.851277 152.27894 87.913643 152.27894 
C 86.976008 152.27894 86.07665 152.651466 85.413643 153.314474 
C 84.750635 153.977482 84.378109 154.87684 84.378109 155.814474 
C 84.378109 156.752109 84.750635 157.651466 85.413643 158.314474 
C 86.07665 158.977482 86.976008 159.350008 87.913643 159.350008 
z
" clip-path="url(#p6861f750c6)" style="fill: #ff0000; fill-opacity: 0.7; stroke: #ff0000; stroke-opacity: 0.7"/>
    <path d="M 87.913643 105.539924 
C 88.851277 105.539924 89.750635 105.167398 90.413643 104.50439 
C 91.07665 103.841382 91.449177 102.942024 91.449177 102.00439 
C 91.449177 101.066755 91.07665 100.167398 90.413643 99.50439 
C 89.750635 98.841382 88.851277 98.468856 87.913643 98.468856 
C 86.976008 98.468856 86.07665 98.841382 85.413643 99.50439 
C 84.750635 100.167398 84.378109 101.066755 84.378109 102.00439 
C 84.378109 102.942024 84.750635 103.841382 85.413643 104.50439 
C 86.07665 105.167398 86.976008 105.539924 87.913643 105.539924 
z
" clip-path="url(#p6861f750c6)" style="fill: #ff0000; fill-opacity: 0.7; stroke: #ff0000; stroke-opacity: 0.7"/>
   </g>
   <g id="patch_7">
    <path d="M 120.076844 95.797124 
Q 117.664604 100.298425 115.622034 104.109912 
" clip-path="url(#p6861f750c6)" style="fill: none; stroke: #000000; stroke-width: 0.7; stroke-linecap: round"/>
    <path d="M 118.178584 102.303244 
L 115.622034 104.109912 
L 115.71063 100.980671 
z
" clip-path="url(#p6861f750c6)" style="stroke: #000000; stroke-width: 0.7; stroke-linecap: round"/>
   </g>
   <g id="patch_8">
    <path d="M 120.076844 95.797124 
Q 126.667206 101.504545 132.665961 106.699619 
" clip-path="url(#p6861f750c6)" style="fill: none; stroke: #000000; stroke-width: 0.7; stroke-linecap: round"/>
    <path d="M 131.465875 103.808288 
L 132.665961 106.699619 
L 129.632845 105.924889 
z
" clip-path="url(#p6861f750c6)" style="stroke: #000000; stroke-width: 0.7; stroke-linecap: round"/>
   </g>
  </g>
 </g>
 <defs>
  <clipPath id="p6861f750c6">
   <rect x="7.2" y="7.2" width="188.496" height="188.496"/>
  </clipPath>
 </defs>
</svg>
