<?xml version="1.0" encoding="utf-8" standalone="no"?>
<!DOCTYPE svg PUBLIC "-//W3C//DTD SVG 1.1//EN"
  "http://www.w3.org/Graphics/SVG/1.1/DTD/svg11.dtd">
<svg xmlns:xlink="http://www.w3.org/1999/xlink" width="370.358974pt" height="185.057498pt" viewBox="0 0 370.358974 185.057498" xmlns="http://www.w3.org/2000/svg" version="1.1">
 <metadata>
  <rdf:RDF xmlns:dc="http://purl.org/dc/elements/1.1/" xmlns:cc="http://creativecommons.org/ns#" xmlns:rdf="http://www.w3.org/1999/02/22-rdf-syntax-ns#">
   <cc:Work>
    <dc:type rdf:resource="http://purl.org/dc/dcmitype/StillImage"/>
    <dc:date>2023-06-27T15:21:11.687640</dc:date>
    <dc:format>image/svg+xml</dc:format>
    <dc:creator>
     <cc:Agent>
      <dc:title>Matplotlib v3.7.0, https://matplotlib.org/</dc:title>
     </cc:Agent>
    </dc:creator>
   </cc:Work>
  </rdf:RDF>
 </metadata>
 <defs>
  <style type="text/css">*{stroke-linejoin: round; stroke-linecap: butt}</style>
 </defs>
 <g id="figure_1">
  <g id="patch_1">
   <path d="M 0 185.057498 
L 370.358974 185.057498 
L 370.358974 0 
L 0 0 
z
" style="fill: #ffffff"/>
  </g>
  <g id="patch_2">
   <path d="M 7.2 177.857498 
L 159.381818 177.857498 
L 159.381818 25.67568 
L 7.2 25.67568 
z
" style="fill: #ffffff"/>
  </g>
  <g id="axes_1">
   <g id="line2d_1">
    <path d="M 27.614288 136.234626 
L 85.34742 141.673228 
L 103.707415 109.900595 
L 45.974284 104.461994 
L 27.614288 136.234626 
" clip-path="url(#pe414f44034)" style="fill: none; stroke: #0000ff; stroke-width: 1.5; stroke-linecap: round"/>
   </g>
   <g id="line2d_2">
    <path d="M 27.614288 136.234626 
L 66.987425 89.51956 
L 124.720557 94.958161 
L 85.34742 141.673228 
L 27.614288 136.234626 
" clip-path="url(#pe414f44034)" style="fill: none; stroke: #0000ff; stroke-width: 1.5; stroke-linecap: round"/>
   </g>
   <g id="line2d_3">
    <path d="M 27.614288 136.234626 
L 45.974284 104.461994 
L 85.34742 57.746928 
L 66.987425 89.51956 
L 27.614288 136.234626 
" clip-path="url(#pe414f44034)" style="fill: none; stroke: #0000ff; stroke-width: 1.5; stroke-linecap: round"/>
   </g>
   <g id="line2d_4">
    <path d="M 66.987425 89.51956 
L 85.34742 57.746928 
L 143.080552 63.185529 
L 124.720557 94.958161 
L 66.987425 89.51956 
" clip-path="url(#pe414f44034)" style="fill: none; stroke: #0000ff; stroke-width: 1.5; stroke-linecap: round"/>
   </g>
   <g id="line2d_5">
    <path d="M 85.34742 141.673228 
L 124.720557 94.958161 
L 143.080552 63.185529 
L 103.707415 109.900595 
L 85.34742 141.673228 
" clip-path="url(#pe414f44034)" style="fill: none; stroke: #0000ff; stroke-width: 1.5; stroke-linecap: round"/>
   </g>
   <g id="line2d_6">
    <path d="M 45.974284 104.461994 
L 103.707415 109.900595 
L 143.080552 63.185529 
L 85.34742 57.746928 
L 45.974284 104.461994 
" clip-path="url(#pe414f44034)" style="fill: none; stroke: #0000ff; stroke-width: 1.5; stroke-linecap: round"/>
   </g>
   <g id="line2d_7">
    <path d="M 27.614288 136.234626 
L 42.047571 127.103489 
" clip-path="url(#pe414f44034)" style="fill: none; stroke: #5ab4bd; stroke-opacity: 0.7"/>
   </g>
   <g id="line2d_8">
    <path d="M 42.047571 127.103489 
L 56.480854 117.972352 
" clip-path="url(#pe414f44034)" style="fill: none; stroke: #324739; stroke-opacity: 0.7"/>
   </g>
   <g id="line2d_9">
    <path d="M 85.34742 141.673228 
L 70.914137 129.82279 
" clip-path="url(#pe414f44034)" style="fill: none; stroke: #5ab4bd; stroke-opacity: 0.7"/>
   </g>
   <g id="line2d_10">
    <path d="M 70.914137 129.82279 
L 56.480854 117.972352 
" clip-path="url(#pe414f44034)" style="fill: none; stroke: #324739; stroke-opacity: 0.7"/>
   </g>
   <g id="line2d_11">
    <path d="M 45.974284 104.461994 
L 51.227569 111.217173 
" clip-path="url(#pe414f44034)" style="fill: none; stroke: #5ab4bd; stroke-opacity: 0.7"/>
   </g>
   <g id="line2d_12">
    <path d="M 51.227569 111.217173 
L 56.480854 117.972352 
" clip-path="url(#pe414f44034)" style="fill: none; stroke: #324739; stroke-opacity: 0.7"/>
   </g>
   <g id="line2d_13">
    <path d="M 66.987425 89.51956 
L 61.73414 103.745956 
" clip-path="url(#pe414f44034)" style="fill: none; stroke: #5ab4bd; stroke-opacity: 0.7"/>
   </g>
   <g id="line2d_14">
    <path d="M 61.73414 103.745956 
L 56.480854 117.972352 
" clip-path="url(#pe414f44034)" style="fill: none; stroke: #324739; stroke-opacity: 0.7"/>
   </g>
   <g id="patch_3">
    <path d="M 27.614288 136.234626 
Q 33.520259 129.227366 38.921858 122.818529 
" clip-path="url(#pe414f44034)" style="fill: none; stroke: #000000; stroke-width: 0.7; stroke-linecap: round"/>
    <path d="M 36.046872 124.057262 
L 38.921858 122.818529 
L 38.187853 125.861757 
z
" clip-path="url(#pe414f44034)" style="stroke: #000000; stroke-width: 0.7; stroke-linecap: round"/>
   </g>
   <g id="Path3DCollection_1"/>
   <g id="text_1">
    <!-- $\vec{a}_1$ -->
    <g transform="translate(43.220885 140.567824) scale(0.1 -0.1)">
     <defs>
      <path id="STIXGeneral-Regular-20d7" d="M -109 4186 
L -954 3507 
L -1069 3558 
Q -755 3821 -755 3917 
Q -755 4013 -1069 4013 
L -2899 4013 
L -2899 4358 
L -1069 4358 
Q -755 4358 -755 4454 
Q -755 4474 -768 4496 
Q -781 4518 -816 4553 
Q -851 4589 -880 4621 
Q -909 4653 -973 4713 
Q -1037 4774 -1075 4813 
L -960 4864 
L -109 4186 
z
" transform="scale(0.015625)"/>
      <path id="STIXGeneral-Italic-61" d="M 2963 710 
L 3046 640 
Q 2688 205 2518 70 
Q 2349 -64 2157 -64 
Q 1901 -64 1901 198 
Q 1901 358 2048 934 
Q 1690 397 1389 163 
Q 1088 -70 749 -70 
Q 467 -70 288 125 
Q 109 320 109 672 
Q 109 1158 387 1664 
Q 666 2170 1094 2496 
Q 1523 2822 1939 2822 
Q 2368 2822 2451 2451 
L 2522 2758 
L 2541 2778 
L 2931 2822 
L 2976 2803 
Q 2970 2778 2938 2669 
Q 2368 595 2368 346 
Q 2368 262 2458 262 
Q 2554 262 2790 525 
L 2963 710 
z
M 2336 2310 
Q 2336 2477 2240 2579 
Q 2144 2682 1978 2682 
Q 1542 2682 1139 2093 
Q 928 1779 787 1395 
Q 646 1011 646 717 
Q 646 243 1030 243 
Q 1408 243 1843 870 
Q 2336 1581 2336 2310 
z
" transform="scale(0.015625)"/>
      <path id="STIXGeneral-Regular-31" d="M 2522 0 
L 755 0 
L 755 96 
Q 1107 115 1235 227 
Q 1363 339 1363 608 
L 1363 3482 
Q 1363 3795 1171 3795 
Q 1082 3795 883 3718 
L 710 3654 
L 710 3744 
L 1856 4326 
L 1914 4307 
L 1914 486 
Q 1914 275 2042 185 
Q 2170 96 2522 96 
L 2522 0 
z
" transform="scale(0.015625)"/>
     </defs>
     <use xlink:href="#STIXGeneral-Regular-20d7" transform="translate(54.821873 2)"/>
     <use xlink:href="#STIXGeneral-Italic-61" transform="translate(0 0.203125)"/>
     <use xlink:href="#STIXGeneral-Regular-31" transform="translate(51.643272 -13.025) scale(0.7)"/>
    </g>
   </g>
   <g id="text_2">
    <!-- $\vec{a}_2$ -->
    <g transform="translate(36.794886 122.314041) scale(0.1 -0.1)">
     <defs>
      <path id="STIXGeneral-Regular-32" d="M 3034 877 
L 2688 0 
L 186 0 
L 186 77 
L 1325 1286 
Q 1773 1754 1965 2144 
Q 2157 2534 2157 2950 
Q 2157 3379 1920 3616 
Q 1683 3853 1267 3853 
Q 922 3853 720 3673 
Q 518 3494 326 3021 
L 192 3053 
Q 301 3648 630 3987 
Q 960 4326 1523 4326 
Q 2054 4326 2380 4006 
Q 2707 3686 2707 3200 
Q 2707 2477 1888 1613 
L 832 486 
L 2330 486 
Q 2541 486 2665 569 
Q 2790 653 2944 915 
L 3034 877 
z
" transform="scale(0.015625)"/>
     </defs>
     <use xlink:href="#STIXGeneral-Regular-20d7" transform="translate(54.821873 2)"/>
     <use xlink:href="#STIXGeneral-Italic-61" transform="translate(0 0.203125)"/>
     <use xlink:href="#STIXGeneral-Regular-32" transform="translate(51.643272 -13.025) scale(0.7)"/>
    </g>
   </g>
   <g id="text_3">
    <!-- $\vec{a}_3$ -->
    <g transform="translate(29.440287 127.593893) scale(0.1 -0.1)">
     <defs>
      <path id="STIXGeneral-Regular-33" d="M 390 3264 
L 288 3290 
Q 435 3770 748 4048 
Q 1062 4326 1542 4326 
Q 1990 4326 2265 4083 
Q 2541 3840 2541 3450 
Q 2541 2925 1946 2566 
Q 2298 2413 2477 2227 
Q 2758 1914 2758 1402 
Q 2758 890 2464 506 
Q 2246 211 1840 60 
Q 1434 -90 979 -90 
Q 262 -90 262 275 
Q 262 378 339 442 
Q 416 506 525 506 
Q 685 506 915 339 
Q 1197 141 1466 141 
Q 1818 141 2058 425 
Q 2298 710 2298 1120 
Q 2298 1856 1632 2048 
Q 1434 2112 979 2112 
L 979 2202 
Q 1338 2323 1517 2432 
Q 2035 2726 2035 3290 
Q 2035 3610 1852 3776 
Q 1670 3942 1344 3942 
Q 768 3942 390 3264 
z
" transform="scale(0.015625)"/>
     </defs>
     <use xlink:href="#STIXGeneral-Regular-20d7" transform="translate(54.821873 2)"/>
     <use xlink:href="#STIXGeneral-Italic-61" transform="translate(0 0.203125)"/>
     <use xlink:href="#STIXGeneral-Regular-33" transform="translate(51.643272 -13.025) scale(0.7)"/>
    </g>
   </g>
   <g id="patch_4">
    <path d="M 27.614288 136.234626 
Q 36.274258 137.050417 44.155054 137.792807 
" clip-path="url(#pe414f44034)" style="fill: none; stroke: #000000; stroke-width: 0.7; stroke-linecap: round"/>
    <path d="M 41.498697 136.136373 
L 44.155054 137.792807 
L 41.236093 138.924032 
z
" clip-path="url(#pe414f44034)" style="stroke: #000000; stroke-width: 0.7; stroke-linecap: round"/>
   </g>
   <g id="Path3DCollection_2"/>
   <g id="patch_5">
    <path d="M 27.614288 136.234626 
Q 30.368288 131.468732 32.730718 127.38046 
" clip-path="url(#pe414f44034)" style="fill: none; stroke: #000000; stroke-width: 0.7; stroke-linecap: round"/>
    <path d="M 30.117629 129.104341 
L 32.730718 127.38046 
L 32.54197 130.50526 
z
" clip-path="url(#pe414f44034)" style="stroke: #000000; stroke-width: 0.7; stroke-linecap: round"/>
   </g>
   <g id="Path3DCollection_3">
    <path d="M 66.987425 93.055094 
C 67.92506 93.055094 68.824417 92.682568 69.487425 92.01956 
C 70.150433 91.356552 70.522959 90.457195 70.522959 89.51956 
C 70.522959 88.581926 70.150433 87.682568 69.487425 87.01956 
C 68.824417 86.356552 67.92506 85.984026 66.987425 85.984026 
C 66.04979 85.984026 65.150433 86.356552 64.487425 87.01956 
C 63.824417 87.682568 63.451891 88.581926 63.451891 89.51956 
C 63.451891 90.457195 63.824417 91.356552 64.487425 92.01956 
C 65.150433 92.682568 66.04979 93.055094 66.987425 93.055094 
z
" clip-path="url(#pe414f44034)" style="fill: #5ab4bd; stroke: #5ab4bd"/>
    <path d="M 27.614288 139.77016 
C 28.551923 139.77016 29.451281 139.397634 30.114288 138.734626 
C 30.777296 138.071619 31.149822 137.172261 31.149822 136.234626 
C 31.149822 135.296992 30.777296 134.397634 30.114288 133.734626 
C 29.451281 133.071619 28.551923 132.699092 27.614288 132.699092 
C 26.676654 132.699092 25.777296 133.071619 25.114288 133.734626 
C 24.451281 134.397634 24.078755 135.296992 24.078755 136.234626 
C 24.078755 137.172261 24.451281 138.071619 25.114288 138.734626 
C 25.777296 139.397634 26.676654 139.77016 27.614288 139.77016 
z
" clip-path="url(#pe414f44034)" style="fill: #5ab4bd; stroke: #5ab4bd"/>
    <path d="M 124.720557 98.493695 
C 125.658191 98.493695 126.557549 98.121169 127.220557 97.458161 
C 127.883564 96.795154 128.256091 95.895796 128.256091 94.958161 
C 128.256091 94.020527 127.883564 93.121169 127.220557 92.458161 
C 126.557549 91.795154 125.658191 91.422627 124.720557 91.422627 
C 123.782922 91.422627 122.883564 91.795154 122.220557 92.458161 
C 121.557549 93.121169 121.185023 94.020527 121.185023 94.958161 
C 121.185023 95.895796 121.557549 96.795154 122.220557 97.458161 
C 122.883564 98.121169 123.782922 98.493695 124.720557 98.493695 
z
" clip-path="url(#pe414f44034)" style="fill: #5ab4bd; stroke: #5ab4bd"/>
    <path d="M 56.480854 121.507886 
C 57.418489 121.507886 58.317847 121.13536 58.980854 120.472352 
C 59.643862 119.809344 60.016388 118.909987 60.016388 117.972352 
C 60.016388 117.034718 59.643862 116.13536 58.980854 115.472352 
C 58.317847 114.809344 57.418489 114.436818 56.480854 114.436818 
C 55.54322 114.436818 54.643862 114.809344 53.980854 115.472352 
C 53.317847 116.13536 52.94532 117.034718 52.94532 117.972352 
C 52.94532 118.909987 53.317847 119.809344 53.980854 120.472352 
C 54.643862 121.13536 55.54322 121.507886 56.480854 121.507886 
z
" clip-path="url(#pe414f44034)" style="fill: #324739; stroke: #324739"/>
    <path d="M 85.34742 145.208762 
C 86.285055 145.208762 87.184412 144.836235 87.84742 144.173228 
C 88.510428 143.51022 88.882954 142.610862 88.882954 141.673228 
C 88.882954 140.735593 88.510428 139.836235 87.84742 139.173228 
C 87.184412 138.51022 86.285055 138.137694 85.34742 138.137694 
C 84.409786 138.137694 83.510428 138.51022 82.84742 139.173228 
C 82.184412 139.836235 81.811886 140.735593 81.811886 141.673228 
C 81.811886 142.610862 82.184412 143.51022 82.84742 144.173228 
C 83.510428 144.836235 84.409786 145.208762 85.34742 145.208762 
z
" clip-path="url(#pe414f44034)" style="fill: #5ab4bd; stroke: #5ab4bd"/>
    <path d="M 85.34742 61.282462 
C 86.285055 61.282462 87.184412 60.909936 87.84742 60.246928 
C 88.510428 59.58392 88.882954 58.684562 88.882954 57.746928 
C 88.882954 56.809293 88.510428 55.909936 87.84742 55.246928 
C 87.184412 54.58392 86.285055 54.211394 85.34742 54.211394 
C 84.409786 54.211394 83.510428 54.58392 82.84742 55.246928 
C 82.184412 55.909936 81.811886 56.809293 81.811886 57.746928 
C 81.811886 58.684562 82.184412 59.58392 82.84742 60.246928 
C 83.510428 60.909936 84.409786 61.282462 85.34742 61.282462 
z
" clip-path="url(#pe414f44034)" style="fill: #5ab4bd; stroke: #5ab4bd"/>
    <path d="M 45.974284 107.997528 
C 46.911918 107.997528 47.811276 107.625002 48.474284 106.961994 
C 49.137291 106.298986 49.509817 105.399629 49.509817 104.461994 
C 49.509817 103.52436 49.137291 102.625002 48.474284 101.961994 
C 47.811276 101.298986 46.911918 100.92646 45.974284 100.92646 
C 45.036649 100.92646 44.137291 101.298986 43.474284 101.961994 
C 42.811276 102.625002 42.43875 103.52436 42.43875 104.461994 
C 42.43875 105.399629 42.811276 106.298986 43.474284 106.961994 
C 44.137291 107.625002 45.036649 107.997528 45.974284 107.997528 
z
" clip-path="url(#pe414f44034)" style="fill: #5ab4bd; stroke: #5ab4bd"/>
    <path d="M 143.080552 66.721063 
C 144.018186 66.721063 144.917544 66.348537 145.580552 65.685529 
C 146.24356 65.022521 146.616086 64.123164 146.616086 63.185529 
C 146.616086 62.247895 146.24356 61.348537 145.580552 60.685529 
C 144.917544 60.022521 144.018186 59.649995 143.080552 59.649995 
C 142.142917 59.649995 141.24356 60.022521 140.580552 60.685529 
C 139.917544 61.348537 139.545018 62.247895 139.545018 63.185529 
C 139.545018 64.123164 139.917544 65.022521 140.580552 65.685529 
C 141.24356 66.348537 142.142917 66.721063 143.080552 66.721063 
z
" clip-path="url(#pe414f44034)" style="fill: #5ab4bd; stroke: #5ab4bd"/>
    <path d="M 103.707415 113.436129 
C 104.64505 113.436129 105.544408 113.063603 106.207415 112.400595 
C 106.870423 111.737588 107.242949 110.83823 107.242949 109.900595 
C 107.242949 108.962961 106.870423 108.063603 106.207415 107.400595 
C 105.544408 106.737588 104.64505 106.365061 103.707415 106.365061 
C 102.769781 106.365061 101.870423 106.737588 101.207415 107.400595 
C 100.544408 108.063603 100.171881 108.962961 100.171881 109.900595 
C 100.171881 110.83823 100.544408 111.737588 101.207415 112.400595 
C 101.870423 113.063603 102.769781 113.436129 103.707415 113.436129 
z
" clip-path="url(#pe414f44034)" style="fill: #5ab4bd; stroke: #5ab4bd"/>
   </g>
   <g id="legend_1">
    <g id="line2d_15">
     <path d="M 14.697 13.4475 
L 23.027 13.4475 
L 31.357 13.4475 
" style="fill: none; stroke: #0000ff; stroke-width: 1.5; stroke-linecap: round"/>
    </g>
    <g id="text_4">
     <!-- original -->
     <g transform="translate(38.021 16.363) scale(0.0833 -0.0833)">
      <defs>
       <path id="STIXGeneral-Regular-6f" d="M 3008 1478 
Q 3008 806 2608 371 
Q 2208 -64 1568 -64 
Q 979 -64 582 368 
Q 186 800 186 1459 
Q 186 2125 582 2534 
Q 979 2944 1626 2944 
Q 2221 2944 2614 2537 
Q 3008 2131 3008 1478 
z
M 2432 1306 
Q 2432 2035 2112 2445 
Q 1856 2765 1504 2765 
Q 1171 2765 966 2493 
Q 762 2221 762 1747 
Q 762 928 1101 435 
Q 1318 115 1677 115 
Q 2029 115 2230 432 
Q 2432 749 2432 1306 
z
" transform="scale(0.015625)"/>
       <path id="STIXGeneral-Regular-72" d="M 1024 2931 
L 1024 2342 
Q 1267 2688 1430 2816 
Q 1594 2944 1792 2944 
Q 1958 2944 2051 2854 
Q 2144 2765 2144 2605 
Q 2144 2470 2077 2393 
Q 2010 2317 1894 2317 
Q 1773 2317 1638 2445 
Q 1536 2541 1472 2541 
Q 1338 2541 1181 2355 
Q 1024 2170 1024 2016 
L 1024 576 
Q 1024 301 1133 205 
Q 1242 109 1568 96 
L 1568 0 
L 32 0 
L 32 96 
Q 339 154 412 224 
Q 486 294 486 538 
L 486 2138 
Q 486 2349 438 2435 
Q 390 2522 269 2522 
Q 166 2522 45 2496 
L 45 2598 
Q 448 2726 992 2944 
L 1024 2931 
z
" transform="scale(0.015625)"/>
       <path id="STIXGeneral-Regular-69" d="M 1152 4045 
Q 1152 3904 1056 3811 
Q 960 3718 819 3718 
Q 685 3718 592 3811 
Q 499 3904 499 4045 
Q 499 4179 595 4275 
Q 691 4371 826 4371 
Q 966 4371 1059 4275 
Q 1152 4179 1152 4045 
z
M 1619 0 
L 102 0 
L 102 96 
Q 435 115 521 211 
Q 608 307 608 666 
L 608 2118 
Q 608 2342 563 2432 
Q 518 2522 397 2522 
Q 243 2522 128 2490 
L 128 2592 
L 1120 2944 
L 1146 2918 
L 1146 672 
Q 1146 314 1226 218 
Q 1306 122 1619 96 
L 1619 0 
z
" transform="scale(0.015625)"/>
       <path id="STIXGeneral-Regular-67" d="M 3008 2483 
L 2477 2483 
Q 2598 2208 2598 1946 
Q 2598 1453 2265 1203 
Q 1933 954 1600 954 
Q 1530 954 1357 973 
L 1235 986 
Q 1107 947 979 812 
Q 851 678 851 582 
Q 851 435 1350 410 
L 2176 371 
Q 2528 358 2739 172 
Q 2950 -13 2950 -314 
Q 2950 -685 2566 -986 
Q 2035 -1395 1286 -1395 
Q 826 -1395 502 -1212 
Q 179 -1030 179 -774 
Q 179 -595 320 -419 
Q 461 -243 806 6 
Q 602 102 534 172 
Q 467 243 467 346 
Q 467 531 762 787 
Q 909 915 1037 1043 
Q 717 1203 579 1401 
Q 442 1600 442 1901 
Q 442 2336 752 2640 
Q 1062 2944 1510 2944 
Q 1766 2944 2022 2848 
L 2163 2797 
Q 2349 2733 2515 2733 
L 3008 2733 
L 3008 2483 
z
M 973 2163 
L 973 2144 
Q 973 1683 1155 1398 
Q 1338 1114 1632 1114 
Q 1850 1114 1978 1270 
Q 2106 1427 2106 1690 
Q 2106 2112 1914 2464 
Q 1754 2765 1446 2765 
Q 1222 2765 1097 2605 
Q 973 2445 973 2163 
z
M 2771 -410 
Q 2771 -230 2595 -163 
Q 2419 -96 1978 -96 
Q 1344 -96 941 -13 
Q 749 -243 688 -348 
Q 627 -454 627 -563 
Q 627 -774 880 -902 
Q 1133 -1030 1555 -1030 
Q 2099 -1030 2435 -860 
Q 2771 -691 2771 -410 
z
" transform="scale(0.015625)"/>
       <path id="STIXGeneral-Regular-6e" d="M 3104 0 
L 1773 0 
L 1779 96 
Q 2016 115 2096 233 
Q 2176 352 2176 672 
L 2176 1946 
Q 2176 2592 1709 2592 
Q 1549 2592 1408 2515 
Q 1267 2438 1050 2227 
L 1050 461 
Q 1050 269 1136 192 
Q 1222 115 1466 96 
L 1466 0 
L 115 0 
L 115 96 
Q 358 115 435 214 
Q 512 314 512 602 
L 512 2157 
Q 512 2394 467 2483 
Q 422 2573 288 2573 
Q 160 2573 102 2547 
L 102 2656 
Q 550 2784 979 2944 
L 1030 2925 
L 1030 2426 
L 1037 2426 
Q 1491 2944 1958 2944 
Q 2323 2944 2518 2688 
Q 2714 2432 2714 1958 
L 2714 544 
Q 2714 288 2790 205 
Q 2867 122 3104 96 
L 3104 0 
z
" transform="scale(0.015625)"/>
       <path id="STIXGeneral-Regular-61" d="M 2829 422 
L 2829 243 
Q 2586 -64 2253 -64 
Q 1888 -64 1843 403 
L 1837 403 
Q 1427 -64 909 -64 
Q 608 -64 422 112 
Q 237 288 237 602 
Q 237 1050 685 1350 
Q 992 1555 1837 1869 
L 1837 2214 
Q 1837 2502 1699 2646 
Q 1562 2790 1338 2790 
Q 1146 2790 1018 2697 
Q 890 2605 890 2477 
Q 890 2419 909 2348 
Q 928 2278 928 2208 
Q 928 2112 841 2029 
Q 755 1946 634 1946 
Q 525 1946 441 2029 
Q 358 2112 358 2240 
Q 358 2547 685 2752 
Q 986 2944 1421 2944 
Q 1939 2944 2176 2656 
Q 2291 2522 2323 2384 
Q 2355 2246 2355 1946 
L 2355 723 
Q 2355 301 2554 301 
Q 2682 301 2829 422 
z
M 1837 813 
L 1837 1715 
Q 1248 1510 1018 1293 
Q 800 1094 800 800 
Q 800 557 921 432 
Q 1043 307 1242 307 
Q 1453 307 1613 410 
Q 1747 506 1792 589 
Q 1837 672 1837 813 
z
" transform="scale(0.015625)"/>
       <path id="STIXGeneral-Regular-6c" d="M 1645 0 
L 134 0 
L 134 96 
Q 435 122 531 221 
Q 627 320 627 589 
L 627 3590 
Q 627 3821 569 3910 
Q 512 4000 358 4000 
Q 224 4000 122 3987 
L 122 4090 
Q 730 4237 1133 4371 
L 1165 4346 
L 1165 557 
Q 1165 288 1254 201 
Q 1344 115 1645 96 
L 1645 0 
z
" transform="scale(0.015625)"/>
      </defs>
      <use xlink:href="#STIXGeneral-Regular-6f"/>
      <use xlink:href="#STIXGeneral-Regular-72" x="49.999985"/>
      <use xlink:href="#STIXGeneral-Regular-69" x="83.299973"/>
      <use xlink:href="#STIXGeneral-Regular-67" x="111.09996"/>
      <use xlink:href="#STIXGeneral-Regular-69" x="161.099945"/>
      <use xlink:href="#STIXGeneral-Regular-6e" x="188.899933"/>
      <use xlink:href="#STIXGeneral-Regular-61" x="238.899918"/>
      <use xlink:href="#STIXGeneral-Regular-6c" x="283.299911"/>
     </g>
    </g>
    <g id="Path3DCollection_4">
     <defs>
      <path id="m1cb36cc105" d="M 0 3.535534 
C 0.937635 3.535534 1.836992 3.163008 2.5 2.5 
C 3.163008 1.836992 3.535534 0.937635 3.535534 0 
C 3.535534 -0.937635 3.163008 -1.836992 2.5 -2.5 
C 1.836992 -3.163008 0.937635 -3.535534 0 -3.535534 
C -0.937635 -3.535534 -1.836992 -3.163008 -2.5 -2.5 
C -3.163008 -1.836992 -3.535534 -0.937635 -3.535534 0 
C -3.535534 0.937635 -3.163008 1.836992 -2.5 2.5 
C -1.836992 3.163008 -0.937635 3.535534 0 3.535534 
z
" style="stroke: #5ab4bd"/>
     </defs>
     <g>
      <use xlink:href="#m1cb36cc105" x="88.925109" y="14.176375" style="fill: #5ab4bd; stroke: #5ab4bd"/>
     </g>
    </g>
    <g id="text_5">
     <!-- Ga -->
     <g transform="translate(103.919109 16.363) scale(0.0833 -0.0833)">
      <defs>
       <path id="STIXGeneral-Regular-47" d="M 4538 2266 
L 4538 2150 
Q 4256 2125 4173 2035 
Q 4090 1946 4090 1638 
L 4090 358 
Q 3539 -90 2464 -90 
Q 1965 -90 1507 89 
Q 1050 269 736 595 
Q 205 1152 205 2093 
Q 205 3155 890 3776 
Q 1491 4326 2419 4326 
Q 2829 4326 3270 4179 
Q 3443 4115 3552 4115 
Q 3654 4115 3731 4176 
Q 3808 4237 3840 4326 
L 3981 4326 
L 4032 2976 
L 3885 2976 
Q 3680 3475 3430 3718 
Q 3059 4070 2496 4070 
Q 1856 4070 1427 3629 
Q 934 3136 934 2074 
Q 934 1190 1395 678 
Q 1856 166 2618 166 
Q 2982 166 3225 281 
Q 3469 397 3469 557 
L 3469 1562 
Q 3469 1933 3376 2025 
Q 3283 2118 2899 2150 
L 2899 2266 
L 4538 2266 
z
" transform="scale(0.015625)"/>
      </defs>
      <use xlink:href="#STIXGeneral-Regular-47"/>
      <use xlink:href="#STIXGeneral-Regular-61" x="72.199982"/>
     </g>
    </g>
    <g id="Path3DCollection_5">
     <defs>
      <path id="mb88afad880" d="M 0 3.535534 
C 0.937635 3.535534 1.836992 3.163008 2.5 2.5 
C 3.163008 1.836992 3.535534 0.937635 3.535534 0 
C 3.535534 -0.937635 3.163008 -1.836992 2.5 -2.5 
C 1.836992 -3.163008 0.937635 -3.535534 0 -3.535534 
C -0.937635 -3.535534 -1.836992 -3.163008 -2.5 -2.5 
C -3.163008 -1.836992 -3.535534 -0.937635 -3.535534 0 
C -3.535534 0.937635 -3.163008 1.836992 -2.5 2.5 
C -1.836992 3.163008 -0.937635 3.535534 0 3.535534 
z
" style="stroke: #324739"/>
     </defs>
     <g>
      <use xlink:href="#mb88afad880" x="138.62267" y="14.176375" style="fill: #324739; stroke: #324739"/>
     </g>
    </g>
    <g id="text_6">
     <!-- As -->
     <g transform="translate(153.61667 16.363) scale(0.0833 -0.0833)">
      <defs>
       <path id="STIXGeneral-Regular-41" d="M 4525 0 
L 2893 0 
L 2893 122 
Q 3149 122 3245 179 
Q 3334 224 3334 333 
Q 3334 499 3213 781 
L 2950 1382 
L 1274 1382 
L 979 653 
Q 922 506 922 384 
Q 922 237 1027 179 
Q 1133 122 1370 122 
L 1370 0 
L 96 0 
L 96 122 
Q 365 147 486 316 
Q 608 486 902 1190 
L 2221 4314 
L 2349 4314 
L 3923 710 
Q 4064 378 4176 262 
Q 4288 147 4525 122 
L 4525 0 
z
M 2861 1645 
L 2118 3405 
L 1382 1645 
L 2861 1645 
z
" transform="scale(0.015625)"/>
       <path id="STIXGeneral-Regular-73" d="M 998 1926 
L 1664 1523 
Q 1984 1331 2105 1164 
Q 2227 998 2227 736 
Q 2227 416 1961 176 
Q 1696 -64 1331 -64 
Q 1030 -64 864 -6 
Q 691 51 570 51 
Q 461 51 416 -26 
L 333 -26 
L 333 979 
L 435 979 
Q 538 512 730 294 
Q 922 77 1248 77 
Q 1485 77 1632 211 
Q 1779 346 1779 550 
Q 1779 845 1440 1030 
L 1094 1222 
Q 326 1651 326 2150 
Q 326 2522 566 2730 
Q 806 2938 1210 2938 
Q 1491 2938 1638 2867 
Q 1754 2816 1818 2816 
Q 1862 2816 1920 2880 
L 1990 2880 
L 2022 2010 
L 1926 2010 
Q 1818 2445 1654 2621 
Q 1491 2797 1203 2797 
Q 986 2797 854 2688 
Q 723 2579 723 2362 
Q 723 2253 796 2128 
Q 870 2003 998 1926 
z
" transform="scale(0.015625)"/>
      </defs>
      <use xlink:href="#STIXGeneral-Regular-41"/>
      <use xlink:href="#STIXGeneral-Regular-73" x="72.199982"/>
     </g>
    </g>
   </g>
  </g>
  <g id="patch_6">
   <path d="M 189.818182 177.857498 
L 342 177.857498 
L 342 25.67568 
L 189.818182 25.67568 
z
" style="fill: #ffffff"/>
  </g>
  <g id="axes_2">
   <g id="line2d_16">
    <path d="M 207.460673 138.911977 
L 207.460673 54.985678 
L 278.634253 42.0871 
L 278.634253 126.0134 
L 207.460673 138.911977 
" clip-path="url(#pbfd58fe5ce)" style="fill: none; stroke: #ff0000; stroke-width: 1.5; stroke-linecap: round"/>
   </g>
   <g id="line2d_17">
    <path d="M 207.460673 138.911977 
L 257.29695 157.333056 
L 257.29695 73.406756 
L 207.460673 54.985678 
L 207.460673 138.911977 
" clip-path="url(#pbfd58fe5ce)" style="fill: none; stroke: #ff0000; stroke-width: 1.5; stroke-linecap: round"/>
   </g>
   <g id="line2d_18">
    <path d="M 207.460673 138.911977 
L 278.634253 126.0134 
L 328.470531 144.434478 
L 257.29695 157.333056 
L 207.460673 138.911977 
" clip-path="url(#pbfd58fe5ce)" style="fill: none; stroke: #ff0000; stroke-width: 1.5; stroke-linecap: round"/>
   </g>
   <g id="line2d_19">
    <path d="M 257.29695 157.333056 
L 328.470531 144.434478 
L 328.470531 60.508178 
L 257.29695 73.406756 
L 257.29695 157.333056 
" clip-path="url(#pbfd58fe5ce)" style="fill: none; stroke: #ff0000; stroke-width: 1.5; stroke-linecap: round"/>
   </g>
   <g id="line2d_20">
    <path d="M 207.460673 54.985678 
L 257.29695 73.406756 
L 328.470531 60.508178 
L 278.634253 42.0871 
L 207.460673 54.985678 
" clip-path="url(#pbfd58fe5ce)" style="fill: none; stroke: #ff0000; stroke-width: 1.5; stroke-linecap: round"/>
   </g>
   <g id="line2d_21">
    <path d="M 278.634253 126.0134 
L 278.634253 42.0871 
L 328.470531 60.508178 
L 328.470531 144.434478 
L 278.634253 126.0134 
" clip-path="url(#pbfd58fe5ce)" style="fill: none; stroke: #ff0000; stroke-width: 1.5; stroke-linecap: round"/>
   </g>
   <g id="line2d_22">
    <path d="M 232.378811 106.159367 
L 235.045974 112.735197 
" clip-path="url(#pbfd58fe5ce)" style="fill: none; stroke: #5ab4bd; stroke-opacity: 0.7"/>
   </g>
   <g id="line2d_23">
    <path d="M 235.045974 112.735197 
L 237.713137 119.311028 
" clip-path="url(#pbfd58fe5ce)" style="fill: none; stroke: #324739; stroke-opacity: 0.7"/>
   </g>
   <g id="line2d_24">
    <path d="M 278.634253 42.0871 
L 275.967091 56.492844 
" clip-path="url(#pbfd58fe5ce)" style="fill: none; stroke: #5ab4bd; stroke-opacity: 0.7"/>
   </g>
   <g id="line2d_25">
    <path d="M 275.967091 56.492844 
L 273.299928 70.898589 
" clip-path="url(#pbfd58fe5ce)" style="fill: none; stroke: #324739; stroke-opacity: 0.7"/>
   </g>
   <g id="line2d_26">
    <path d="M 243.047463 90.499539 
L 240.3803 104.905283 
" clip-path="url(#pbfd58fe5ce)" style="fill: none; stroke: #5ab4bd; stroke-opacity: 0.7"/>
   </g>
   <g id="line2d_27">
    <path d="M 240.3803 104.905283 
L 237.713137 119.311028 
" clip-path="url(#pbfd58fe5ce)" style="fill: none; stroke: #324739; stroke-opacity: 0.7"/>
   </g>
   <g id="line2d_28">
    <path d="M 267.965602 141.673228 
L 283.091834 131.872753 
" clip-path="url(#pbfd58fe5ce)" style="fill: none; stroke: #5ab4bd; stroke-opacity: 0.7"/>
   </g>
   <g id="line2d_29">
    <path d="M 283.091834 131.872753 
L 298.218067 122.072278 
" clip-path="url(#pbfd58fe5ce)" style="fill: none; stroke: #324739; stroke-opacity: 0.7"/>
   </g>
   <g id="line2d_30">
    <path d="M 243.047463 90.499539 
L 258.173695 80.699064 
" clip-path="url(#pbfd58fe5ce)" style="fill: none; stroke: #5ab4bd; stroke-opacity: 0.7"/>
   </g>
   <g id="line2d_31">
    <path d="M 258.173695 80.699064 
L 273.299928 70.898589 
" clip-path="url(#pbfd58fe5ce)" style="fill: none; stroke: #324739; stroke-opacity: 0.7"/>
   </g>
   <g id="line2d_32">
    <path d="M 292.883741 108.920617 
L 277.757509 97.739517 
" clip-path="url(#pbfd58fe5ce)" style="fill: none; stroke: #5ab4bd; stroke-opacity: 0.7"/>
   </g>
   <g id="line2d_33">
    <path d="M 277.757509 97.739517 
L 262.631276 86.558417 
" clip-path="url(#pbfd58fe5ce)" style="fill: none; stroke: #324739; stroke-opacity: 0.7"/>
   </g>
   <g id="line2d_34">
    <path d="M 232.378811 106.159367 
L 247.505044 96.358892 
" clip-path="url(#pbfd58fe5ce)" style="fill: none; stroke: #5ab4bd; stroke-opacity: 0.7"/>
   </g>
   <g id="line2d_35">
    <path d="M 247.505044 96.358892 
L 262.631276 86.558417 
" clip-path="url(#pbfd58fe5ce)" style="fill: none; stroke: #324739; stroke-opacity: 0.7"/>
   </g>
   <g id="line2d_36">
    <path d="M 267.965602 141.673228 
L 252.83937 130.492128 
" clip-path="url(#pbfd58fe5ce)" style="fill: none; stroke: #5ab4bd; stroke-opacity: 0.7"/>
   </g>
   <g id="line2d_37">
    <path d="M 252.83937 130.492128 
L 237.713137 119.311028 
" clip-path="url(#pbfd58fe5ce)" style="fill: none; stroke: #324739; stroke-opacity: 0.7"/>
   </g>
   <g id="line2d_38">
    <path d="M 267.965602 57.746928 
L 270.632765 64.322758 
" clip-path="url(#pbfd58fe5ce)" style="fill: none; stroke: #5ab4bd; stroke-opacity: 0.7"/>
   </g>
   <g id="line2d_39">
    <path d="M 270.632765 64.322758 
L 273.299928 70.898589 
" clip-path="url(#pbfd58fe5ce)" style="fill: none; stroke: #324739; stroke-opacity: 0.7"/>
   </g>
   <g id="line2d_40">
    <path d="M 303.552392 93.260789 
L 300.88523 107.666533 
" clip-path="url(#pbfd58fe5ce)" style="fill: none; stroke: #5ab4bd; stroke-opacity: 0.7"/>
   </g>
   <g id="line2d_41">
    <path d="M 300.88523 107.666533 
L 298.218067 122.072278 
" clip-path="url(#pbfd58fe5ce)" style="fill: none; stroke: #324739; stroke-opacity: 0.7"/>
   </g>
   <g id="line2d_42">
    <path d="M 257.29695 73.406756 
L 259.964113 79.982586 
" clip-path="url(#pbfd58fe5ce)" style="fill: none; stroke: #5ab4bd; stroke-opacity: 0.7"/>
   </g>
   <g id="line2d_43">
    <path d="M 259.964113 79.982586 
L 262.631276 86.558417 
" clip-path="url(#pbfd58fe5ce)" style="fill: none; stroke: #324739; stroke-opacity: 0.7"/>
   </g>
   <g id="line2d_44">
    <path d="M 267.965602 57.746928 
L 265.298439 72.152672 
" clip-path="url(#pbfd58fe5ce)" style="fill: none; stroke: #5ab4bd; stroke-opacity: 0.7"/>
   </g>
   <g id="line2d_45">
    <path d="M 265.298439 72.152672 
L 262.631276 86.558417 
" clip-path="url(#pbfd58fe5ce)" style="fill: none; stroke: #324739; stroke-opacity: 0.7"/>
   </g>
   <g id="line2d_46">
    <path d="M 328.470531 144.434478 
L 313.344299 133.253378 
" clip-path="url(#pbfd58fe5ce)" style="fill: none; stroke: #5ab4bd; stroke-opacity: 0.7"/>
   </g>
   <g id="line2d_47">
    <path d="M 313.344299 133.253378 
L 298.218067 122.072278 
" clip-path="url(#pbfd58fe5ce)" style="fill: none; stroke: #324739; stroke-opacity: 0.7"/>
   </g>
   <g id="line2d_48">
    <path d="M 292.883741 108.920617 
L 295.550904 115.496447 
" clip-path="url(#pbfd58fe5ce)" style="fill: none; stroke: #5ab4bd; stroke-opacity: 0.7"/>
   </g>
   <g id="line2d_49">
    <path d="M 295.550904 115.496447 
L 298.218067 122.072278 
" clip-path="url(#pbfd58fe5ce)" style="fill: none; stroke: #324739; stroke-opacity: 0.7"/>
   </g>
   <g id="line2d_50">
    <path d="M 303.552392 93.260789 
L 288.42616 82.079689 
" clip-path="url(#pbfd58fe5ce)" style="fill: none; stroke: #5ab4bd; stroke-opacity: 0.7"/>
   </g>
   <g id="line2d_51">
    <path d="M 288.42616 82.079689 
L 273.299928 70.898589 
" clip-path="url(#pbfd58fe5ce)" style="fill: none; stroke: #324739; stroke-opacity: 0.7"/>
   </g>
   <g id="line2d_52">
    <path d="M 207.460673 138.911977 
L 222.586905 129.111502 
" clip-path="url(#pbfd58fe5ce)" style="fill: none; stroke: #5ab4bd; stroke-opacity: 0.7"/>
   </g>
   <g id="line2d_53">
    <path d="M 222.586905 129.111502 
L 237.713137 119.311028 
" clip-path="url(#pbfd58fe5ce)" style="fill: none; stroke: #324739; stroke-opacity: 0.7"/>
   </g>
   <g id="patch_7">
    <path d="M 207.460673 138.911977 
Q 218.13671 136.977191 228.042667 135.181963 
" clip-path="url(#pbfd58fe5ce)" style="fill: none; stroke: #000000; stroke-width: 0.7; stroke-linecap: round"/>
    <path d="M 225.037894 134.303705 
L 228.042667 135.181963 
L 225.537196 137.058827 
z
" clip-path="url(#pbfd58fe5ce)" style="stroke: #000000; stroke-width: 0.7; stroke-linecap: round"/>
   </g>
   <g id="Path3DCollection_6"/>
   <g id="text_7">
    <!-- $\vec{a}_1$ -->
    <g transform="translate(202.860673 111.96746) scale(0.1 -0.1)">
     <use xlink:href="#STIXGeneral-Regular-20d7" transform="translate(54.821873 2)"/>
     <use xlink:href="#STIXGeneral-Italic-61" transform="translate(0 0.203125)"/>
     <use xlink:href="#STIXGeneral-Regular-31" transform="translate(51.643272 -13.025) scale(0.7)"/>
    </g>
   </g>
   <g id="text_8">
    <!-- $\vec{a}_2$ -->
    <g transform="translate(220.30337 147.789042) scale(0.1 -0.1)">
     <use xlink:href="#STIXGeneral-Regular-20d7" transform="translate(54.821873 2)"/>
     <use xlink:href="#STIXGeneral-Italic-61" transform="translate(0 0.203125)"/>
     <use xlink:href="#STIXGeneral-Regular-32" transform="translate(51.643272 -13.025) scale(0.7)"/>
    </g>
   </g>
   <g id="text_9">
    <!-- $\vec{a}_3$ -->
    <g transform="translate(227.771426 136.877163) scale(0.1 -0.1)">
     <use xlink:href="#STIXGeneral-Regular-20d7" transform="translate(54.821873 2)"/>
     <use xlink:href="#STIXGeneral-Italic-61" transform="translate(0 0.203125)"/>
     <use xlink:href="#STIXGeneral-Regular-33" transform="translate(51.643272 -13.025) scale(0.7)"/>
    </g>
   </g>
   <g id="patch_8">
    <path d="M 207.460673 138.911977 
Q 207.460673 126.323032 207.460673 114.516711 
" clip-path="url(#pbfd58fe5ce)" style="fill: none; stroke: #000000; stroke-width: 0.7; stroke-linecap: round"/>
    <path d="M 206.060673 117.316711 
L 207.460673 114.516711 
L 208.860673 117.316711 
z
" clip-path="url(#pbfd58fe5ce)" style="stroke: #000000; stroke-width: 0.7; stroke-linecap: round"/>
   </g>
   <g id="Path3DCollection_7"/>
   <g id="patch_9">
    <path d="M 207.460673 138.911977 
Q 214.936114 141.675139 221.677475 144.166961 
" clip-path="url(#pbfd58fe5ce)" style="fill: none; stroke: #000000; stroke-width: 0.7; stroke-linecap: round"/>
    <path d="M 219.536535 141.883023 
L 221.677475 144.166961 
L 218.56576 144.509351 
z
" clip-path="url(#pbfd58fe5ce)" style="stroke: #000000; stroke-width: 0.7; stroke-linecap: round"/>
   </g>
   <g id="Path3DCollection_8">
    <path d="M 278.634253 129.548933 
C 279.571888 129.548933 280.471246 129.176407 281.134253 128.5134 
C 281.797261 127.850392 282.169787 126.951034 282.169787 126.0134 
C 282.169787 125.075765 281.797261 124.176407 281.134253 123.5134 
C 280.471246 122.850392 279.571888 122.477866 278.634253 122.477866 
C 277.696619 122.477866 276.797261 122.850392 276.134253 123.5134 
C 275.471246 124.176407 275.09872 125.075765 275.09872 126.0134 
C 275.09872 126.951034 275.471246 127.850392 276.134253 128.5134 
C 276.797261 129.176407 277.696619 129.548933 278.634253 129.548933 
z
" clip-path="url(#pbfd58fe5ce)" style="fill: #5ab4bd; stroke: #5ab4bd"/>
    <path d="M 278.634253 45.622634 
C 279.571888 45.622634 280.471246 45.250108 281.134253 44.5871 
C 281.797261 43.924092 282.169787 43.024734 282.169787 42.0871 
C 282.169787 41.149465 281.797261 40.250108 281.134253 39.5871 
C 280.471246 38.924092 279.571888 38.551566 278.634253 38.551566 
C 277.696619 38.551566 276.797261 38.924092 276.134253 39.5871 
C 275.471246 40.250108 275.09872 41.149465 275.09872 42.0871 
C 275.09872 43.024734 275.471246 43.924092 276.134253 44.5871 
C 276.797261 45.250108 277.696619 45.622634 278.634253 45.622634 
z
" clip-path="url(#pbfd58fe5ce)" style="fill: #5ab4bd; stroke: #5ab4bd"/>
    <path d="M 243.047463 94.035072 
C 243.985098 94.035072 244.884455 93.662546 245.547463 92.999539 
C 246.210471 92.336531 246.582997 91.437173 246.582997 90.499539 
C 246.582997 89.561904 246.210471 88.662546 245.547463 87.999539 
C 244.884455 87.336531 243.985098 86.964005 243.047463 86.964005 
C 242.109828 86.964005 241.210471 87.336531 240.547463 87.999539 
C 239.884455 88.662546 239.511929 89.561904 239.511929 90.499539 
C 239.511929 91.437173 239.884455 92.336531 240.547463 92.999539 
C 241.210471 93.662546 242.109828 94.035072 243.047463 94.035072 
z
" clip-path="url(#pbfd58fe5ce)" style="fill: #5ab4bd; stroke: #5ab4bd"/>
    <path d="M 303.552392 96.796323 
C 304.490027 96.796323 305.389385 96.423797 306.052392 95.760789 
C 306.7154 95.097781 307.087926 94.198423 307.087926 93.260789 
C 307.087926 92.323154 306.7154 91.423797 306.052392 90.760789 
C 305.389385 90.097781 304.490027 89.725255 303.552392 89.725255 
C 302.614758 89.725255 301.7154 90.097781 301.052392 90.760789 
C 300.389385 91.423797 300.016859 92.323154 300.016859 93.260789 
C 300.016859 94.198423 300.389385 95.097781 301.052392 95.760789 
C 301.7154 96.423797 302.614758 96.796323 303.552392 96.796323 
z
" clip-path="url(#pbfd58fe5ce)" style="fill: #5ab4bd; stroke: #5ab4bd"/>
    <path d="M 273.299928 74.434123 
C 274.237562 74.434123 275.13692 74.061596 275.799928 73.398589 
C 276.462935 72.735581 276.835462 71.836223 276.835462 70.898589 
C 276.835462 69.960954 276.462935 69.061596 275.799928 68.398589 
C 275.13692 67.735581 274.237562 67.363055 273.299928 67.363055 
C 272.362293 67.363055 271.462935 67.735581 270.799928 68.398589 
C 270.13692 69.061596 269.764394 69.960954 269.764394 70.898589 
C 269.764394 71.836223 270.13692 72.735581 270.799928 73.398589 
C 271.462935 74.061596 272.362293 74.434123 273.299928 74.434123 
z
" clip-path="url(#pbfd58fe5ce)" style="fill: #324739; stroke: #324739"/>
    <path d="M 207.460673 142.447511 
C 208.398307 142.447511 209.297665 142.074985 209.960673 141.411977 
C 210.62368 140.74897 210.996206 139.849612 210.996206 138.911977 
C 210.996206 137.974343 210.62368 137.074985 209.960673 136.411977 
C 209.297665 135.74897 208.398307 135.376443 207.460673 135.376443 
C 206.523038 135.376443 205.62368 135.74897 204.960673 136.411977 
C 204.297665 137.074985 203.925139 137.974343 203.925139 138.911977 
C 203.925139 139.849612 204.297665 140.74897 204.960673 141.411977 
C 205.62368 142.074985 206.523038 142.447511 207.460673 142.447511 
z
" clip-path="url(#pbfd58fe5ce)" style="fill: #5ab4bd; stroke: #5ab4bd"/>
    <path d="M 267.965602 145.208762 
C 268.903237 145.208762 269.802594 144.836235 270.465602 144.173228 
C 271.12861 143.51022 271.501136 142.610862 271.501136 141.673228 
C 271.501136 140.735593 271.12861 139.836235 270.465602 139.173228 
C 269.802594 138.51022 268.903237 138.137694 267.965602 138.137694 
C 267.027967 138.137694 266.12861 138.51022 265.465602 139.173228 
C 264.802594 139.836235 264.430068 140.735593 264.430068 141.673228 
C 264.430068 142.610862 264.802594 143.51022 265.465602 144.173228 
C 266.12861 144.836235 267.027967 145.208762 267.965602 145.208762 
z
" clip-path="url(#pbfd58fe5ce)" style="fill: #5ab4bd; stroke: #5ab4bd"/>
    <path d="M 237.713137 122.846561 
C 238.650772 122.846561 239.550129 122.474035 240.213137 121.811028 
C 240.876145 121.14802 241.248671 120.248662 241.248671 119.311028 
C 241.248671 118.373393 240.876145 117.474035 240.213137 116.811028 
C 239.550129 116.14802 238.650772 115.775494 237.713137 115.775494 
C 236.775503 115.775494 235.876145 116.14802 235.213137 116.811028 
C 234.550129 117.474035 234.177603 118.373393 234.177603 119.311028 
C 234.177603 120.248662 234.550129 121.14802 235.213137 121.811028 
C 235.876145 122.474035 236.775503 122.846561 237.713137 122.846561 
z
" clip-path="url(#pbfd58fe5ce)" style="fill: #324739; stroke: #324739"/>
    <path d="M 328.470531 147.970012 
C 329.408166 147.970012 330.307524 147.597486 330.970531 146.934478 
C 331.633539 146.27147 332.006065 145.372112 332.006065 144.434478 
C 332.006065 143.496843 331.633539 142.597486 330.970531 141.934478 
C 330.307524 141.27147 329.408166 140.898944 328.470531 140.898944 
C 327.532897 140.898944 326.633539 141.27147 325.970531 141.934478 
C 325.307524 142.597486 324.934998 143.496843 324.934998 144.434478 
C 324.934998 145.372112 325.307524 146.27147 325.970531 146.934478 
C 326.633539 147.597486 327.532897 147.970012 328.470531 147.970012 
z
" clip-path="url(#pbfd58fe5ce)" style="fill: #5ab4bd; stroke: #5ab4bd"/>
    <path d="M 298.218067 125.607812 
C 299.155701 125.607812 300.055059 125.235286 300.718067 124.572278 
C 301.381074 123.90927 301.753601 123.009912 301.753601 122.072278 
C 301.753601 121.134643 301.381074 120.235286 300.718067 119.572278 
C 300.055059 118.90927 299.155701 118.536744 298.218067 118.536744 
C 297.280432 118.536744 296.381074 118.90927 295.718067 119.572278 
C 295.055059 120.235286 294.682533 121.134643 294.682533 122.072278 
C 294.682533 123.009912 295.055059 123.90927 295.718067 124.572278 
C 296.381074 125.235286 297.280432 125.607812 298.218067 125.607812 
z
" clip-path="url(#pbfd58fe5ce)" style="fill: #324739; stroke: #324739"/>
    <path d="M 207.460673 58.521212 
C 208.398307 58.521212 209.297665 58.148685 209.960673 57.485678 
C 210.62368 56.82267 210.996206 55.923312 210.996206 54.985678 
C 210.996206 54.048043 210.62368 53.148685 209.960673 52.485678 
C 209.297665 51.82267 208.398307 51.450144 207.460673 51.450144 
C 206.523038 51.450144 205.62368 51.82267 204.960673 52.485678 
C 204.297665 53.148685 203.925139 54.048043 203.925139 54.985678 
C 203.925139 55.923312 204.297665 56.82267 204.960673 57.485678 
C 205.62368 58.148685 206.523038 58.521212 207.460673 58.521212 
z
" clip-path="url(#pbfd58fe5ce)" style="fill: #5ab4bd; stroke: #5ab4bd"/>
    <path d="M 267.965602 61.282462 
C 268.903237 61.282462 269.802594 60.909936 270.465602 60.246928 
C 271.12861 59.58392 271.501136 58.684562 271.501136 57.746928 
C 271.501136 56.809293 271.12861 55.909936 270.465602 55.246928 
C 269.802594 54.58392 268.903237 54.211394 267.965602 54.211394 
C 267.027967 54.211394 266.12861 54.58392 265.465602 55.246928 
C 264.802594 55.909936 264.430068 56.809293 264.430068 57.746928 
C 264.430068 58.684562 264.802594 59.58392 265.465602 60.246928 
C 266.12861 60.909936 267.027967 61.282462 267.965602 61.282462 
z
" clip-path="url(#pbfd58fe5ce)" style="fill: #5ab4bd; stroke: #5ab4bd"/>
    <path d="M 328.470531 64.043712 
C 329.408166 64.043712 330.307524 63.671186 330.970531 63.008178 
C 331.633539 62.34517 332.006065 61.445813 332.006065 60.508178 
C 332.006065 59.570543 331.633539 58.671186 330.970531 58.008178 
C 330.307524 57.34517 329.408166 56.972644 328.470531 56.972644 
C 327.532897 56.972644 326.633539 57.34517 325.970531 58.008178 
C 325.307524 58.671186 324.934998 59.570543 324.934998 60.508178 
C 324.934998 61.445813 325.307524 62.34517 325.970531 63.008178 
C 326.633539 63.671186 327.532897 64.043712 328.470531 64.043712 
z
" clip-path="url(#pbfd58fe5ce)" style="fill: #5ab4bd; stroke: #5ab4bd"/>
    <path d="M 232.378811 109.694901 
C 233.316446 109.694901 234.215804 109.322374 234.878811 108.659367 
C 235.541819 107.996359 235.914345 107.097001 235.914345 106.159367 
C 235.914345 105.221732 235.541819 104.322374 234.878811 103.659367 
C 234.215804 102.996359 233.316446 102.623833 232.378811 102.623833 
C 231.441177 102.623833 230.541819 102.996359 229.878811 103.659367 
C 229.215804 104.322374 228.843278 105.221732 228.843278 106.159367 
C 228.843278 107.097001 229.215804 107.996359 229.878811 108.659367 
C 230.541819 109.322374 231.441177 109.694901 232.378811 109.694901 
z
" clip-path="url(#pbfd58fe5ce)" style="fill: #5ab4bd; stroke: #5ab4bd"/>
    <path d="M 292.883741 112.456151 
C 293.821375 112.456151 294.720733 112.083625 295.383741 111.420617 
C 296.046749 110.757609 296.419275 109.858251 296.419275 108.920617 
C 296.419275 107.982982 296.046749 107.083625 295.383741 106.420617 
C 294.720733 105.757609 293.821375 105.385083 292.883741 105.385083 
C 291.946106 105.385083 291.046749 105.757609 290.383741 106.420617 
C 289.720733 107.083625 289.348207 107.982982 289.348207 108.920617 
C 289.348207 109.858251 289.720733 110.757609 290.383741 111.420617 
C 291.046749 112.083625 291.946106 112.456151 292.883741 112.456151 
z
" clip-path="url(#pbfd58fe5ce)" style="fill: #5ab4bd; stroke: #5ab4bd"/>
    <path d="M 262.631276 90.093951 
C 263.568911 90.093951 264.468268 89.721425 265.131276 89.058417 
C 265.794284 88.395409 266.16681 87.496051 266.16681 86.558417 
C 266.16681 85.620782 265.794284 84.721425 265.131276 84.058417 
C 264.468268 83.395409 263.568911 83.022883 262.631276 83.022883 
C 261.693642 83.022883 260.794284 83.395409 260.131276 84.058417 
C 259.468268 84.721425 259.095742 85.620782 259.095742 86.558417 
C 259.095742 87.496051 259.468268 88.395409 260.131276 89.058417 
C 260.794284 89.721425 261.693642 90.093951 262.631276 90.093951 
z
" clip-path="url(#pbfd58fe5ce)" style="fill: #324739; stroke: #324739"/>
    <path d="M 257.29695 160.86859 
C 258.234585 160.86859 259.133943 160.496063 259.79695 159.833056 
C 260.459958 159.170048 260.832484 158.27069 260.832484 157.333056 
C 260.832484 156.395421 260.459958 155.496063 259.79695 154.833056 
C 259.133943 154.170048 258.234585 153.797522 257.29695 153.797522 
C 256.359316 153.797522 255.459958 154.170048 254.79695 154.833056 
C 254.133943 155.496063 253.761417 156.395421 253.761417 157.333056 
C 253.761417 158.27069 254.133943 159.170048 254.79695 159.833056 
C 255.459958 160.496063 256.359316 160.86859 257.29695 160.86859 
z
" clip-path="url(#pbfd58fe5ce)" style="fill: #5ab4bd; stroke: #5ab4bd"/>
    <path d="M 257.29695 76.94229 
C 258.234585 76.94229 259.133943 76.569764 259.79695 75.906756 
C 260.459958 75.243748 260.832484 74.34439 260.832484 73.406756 
C 260.832484 72.469121 260.459958 71.569764 259.79695 70.906756 
C 259.133943 70.243748 258.234585 69.871222 257.29695 69.871222 
C 256.359316 69.871222 255.459958 70.243748 254.79695 70.906756 
C 254.133943 71.569764 253.761417 72.469121 253.761417 73.406756 
C 253.761417 74.34439 254.133943 75.243748 254.79695 75.906756 
C 255.459958 76.569764 256.359316 76.94229 257.29695 76.94229 
z
" clip-path="url(#pbfd58fe5ce)" style="fill: #5ab4bd; stroke: #5ab4bd"/>
   </g>
   <g id="legend_2">
    <g id="line2d_54">
     <path d="M 197.315182 13.455309 
L 205.645182 13.455309 
L 213.975182 13.455309 
" style="fill: none; stroke: #ff0000; stroke-width: 1.5; stroke-linecap: round"/>
    </g>
    <g id="text_10">
     <!-- transformed -->
     <g transform="translate(220.639182 16.370809) scale(0.0833 -0.0833)">
      <defs>
       <path id="STIXGeneral-Regular-74" d="M 1702 493 
L 1786 422 
Q 1478 -64 1011 -64 
Q 448 -64 448 749 
L 448 2675 
L 109 2675 
Q 83 2694 83 2720 
Q 83 2771 192 2842 
Q 435 2982 813 3526 
Q 826 3546 874 3606 
Q 922 3667 941 3706 
Q 986 3706 986 3622 
L 986 2880 
L 1632 2880 
L 1632 2675 
L 986 2675 
L 986 845 
Q 986 538 1062 403 
Q 1139 269 1318 269 
Q 1510 269 1702 493 
z
" transform="scale(0.015625)"/>
       <path id="STIXGeneral-Regular-66" d="M 134 2880 
L 659 2880 
Q 666 3264 710 3478 
Q 755 3693 883 3910 
Q 1152 4371 1786 4371 
Q 2074 4371 2262 4259 
Q 2451 4147 2451 3974 
Q 2451 3866 2374 3789 
Q 2298 3712 2182 3712 
Q 2029 3712 1894 3942 
Q 1741 4192 1555 4192 
Q 1197 4192 1197 3622 
L 1197 2880 
L 1978 2880 
L 1978 2675 
L 1197 2675 
L 1197 666 
Q 1197 307 1299 208 
Q 1402 109 1792 96 
L 1792 0 
L 128 0 
L 128 96 
Q 474 115 566 214 
Q 659 314 659 666 
L 659 2675 
L 134 2675 
L 134 2880 
z
" transform="scale(0.015625)"/>
       <path id="STIXGeneral-Regular-6d" d="M 4960 0 
L 3565 0 
L 3565 96 
Q 3834 122 3907 208 
Q 3981 294 3981 576 
L 3981 1894 
Q 3981 2278 3869 2444 
Q 3757 2611 3488 2611 
Q 3264 2611 3107 2521 
Q 2950 2432 2803 2221 
L 2803 608 
Q 2803 301 2896 201 
Q 2989 102 3264 96 
L 3264 0 
L 1830 0 
L 1830 96 
Q 2112 115 2189 188 
Q 2266 262 2266 550 
L 2266 1901 
Q 2266 2611 1850 2611 
Q 1670 2611 1468 2531 
Q 1267 2451 1171 2336 
Q 1088 2240 1088 2227 
L 1088 448 
Q 1088 243 1177 176 
Q 1267 109 1523 96 
L 1523 0 
L 102 0 
L 102 96 
Q 371 102 460 195 
Q 550 288 550 563 
L 550 2150 
Q 550 2387 499 2480 
Q 448 2573 326 2573 
Q 230 2573 122 2547 
L 122 2656 
Q 557 2778 1011 2944 
L 1062 2925 
L 1062 2451 
L 1075 2451 
Q 1363 2752 1584 2848 
Q 1805 2944 2054 2944 
Q 2560 2944 2733 2406 
Q 3232 2944 3776 2944 
Q 4518 2944 4518 1792 
L 4518 493 
Q 4518 282 4582 202 
Q 4646 122 4794 109 
L 4960 96 
L 4960 0 
z
" transform="scale(0.015625)"/>
       <path id="STIXGeneral-Regular-65" d="M 2611 1050 
L 2714 1005 
Q 2330 -64 1376 -64 
Q 813 -64 486 329 
Q 160 723 160 1389 
Q 160 2074 525 2509 
Q 890 2944 1485 2944 
Q 2061 2944 2374 2502 
Q 2560 2246 2592 1773 
L 621 1773 
Q 646 1370 700 1158 
Q 755 947 915 730 
Q 1184 378 1626 378 
Q 1939 378 2153 531 
Q 2368 685 2611 1050 
z
M 634 1978 
L 1939 1978 
Q 1882 2381 1750 2547 
Q 1619 2714 1312 2714 
Q 1043 2714 864 2525 
Q 685 2336 634 1978 
z
" transform="scale(0.015625)"/>
       <path id="STIXGeneral-Regular-64" d="M 3142 269 
L 2202 -64 
L 2176 -45 
L 2176 365 
Q 1869 -64 1357 -64 
Q 826 -64 499 317 
Q 173 698 173 1312 
Q 173 1990 563 2467 
Q 954 2944 1504 2944 
Q 1850 2944 2176 2669 
L 2176 3667 
Q 2176 3866 2118 3930 
Q 2061 3994 1882 3994 
Q 1792 3994 1741 3987 
L 1741 4090 
Q 2323 4243 2682 4371 
L 2714 4358 
L 2714 730 
Q 2714 506 2768 435 
Q 2822 365 2995 365 
Q 3034 365 3142 371 
L 3142 269 
z
M 2176 653 
L 2176 2125 
Q 2176 2381 1981 2573 
Q 1786 2765 1523 2765 
Q 1158 2765 940 2438 
Q 723 2112 723 1568 
Q 723 979 963 624 
Q 1203 269 1606 269 
Q 1907 269 2080 474 
Q 2176 582 2176 653 
z
" transform="scale(0.015625)"/>
      </defs>
      <use xlink:href="#STIXGeneral-Regular-74"/>
      <use xlink:href="#STIXGeneral-Regular-72" x="27.799988"/>
      <use xlink:href="#STIXGeneral-Regular-61" x="61.099976"/>
      <use xlink:href="#STIXGeneral-Regular-6e" x="105.499969"/>
      <use xlink:href="#STIXGeneral-Regular-73" x="155.499954"/>
      <use xlink:href="#STIXGeneral-Regular-66" x="194.399948"/>
      <use xlink:href="#STIXGeneral-Regular-6f" x="227.699936"/>
      <use xlink:href="#STIXGeneral-Regular-72" x="277.699921"/>
      <use xlink:href="#STIXGeneral-Regular-6d" x="310.999908"/>
      <use xlink:href="#STIXGeneral-Regular-65" x="388.799896"/>
      <use xlink:href="#STIXGeneral-Regular-64" x="433.19989"/>
     </g>
    </g>
    <g id="Path3DCollection_9">
     <g>
      <use xlink:href="#m1cb36cc105" x="285.880002" y="14.184184" style="fill: #5ab4bd; stroke: #5ab4bd"/>
     </g>
    </g>
    <g id="text_11">
     <!-- Ga -->
     <g transform="translate(300.874002 16.370809) scale(0.0833 -0.0833)">
      <use xlink:href="#STIXGeneral-Regular-47"/>
      <use xlink:href="#STIXGeneral-Regular-61" x="72.199982"/>
     </g>
    </g>
    <g id="Path3DCollection_10">
     <g>
      <use xlink:href="#mb88afad880" x="335.577563" y="14.184184" style="fill: #324739; stroke: #324739"/>
     </g>
    </g>
    <g id="text_12">
     <!-- As -->
     <g transform="translate(350.571563 16.370809) scale(0.0833 -0.0833)">
      <use xlink:href="#STIXGeneral-Regular-41"/>
      <use xlink:href="#STIXGeneral-Regular-73" x="72.199982"/>
     </g>
    </g>
   </g>
  </g>
 </g>
 <defs>
  <clipPath id="pe414f44034">
   <rect x="7.2" y="25.67568" width="152.181818" height="152.181818"/>
  </clipPath>
  <clipPath id="pbfd58fe5ce">
   <rect x="189.818182" y="25.67568" width="152.181818" height="152.181818"/>
  </clipPath>
 </defs>
</svg>
