<?xml version="1.0" encoding="utf-8" standalone="no"?>
<!DOCTYPE svg PUBLIC "-//W3C//DTD SVG 1.1//EN"
  "http://www.w3.org/Graphics/SVG/1.1/DTD/svg11.dtd">
<svg xmlns:xlink="http://www.w3.org/1999/xlink" width="202.896pt" height="221.36387pt" viewBox="0 0 202.896 221.36387" xmlns="http://www.w3.org/2000/svg" version="1.1">
 <metadata>
  <rdf:RDF xmlns:dc="http://purl.org/dc/elements/1.1/" xmlns:cc="http://creativecommons.org/ns#" xmlns:rdf="http://www.w3.org/1999/02/22-rdf-syntax-ns#">
   <cc:Work>
    <dc:type rdf:resource="http://purl.org/dc/dcmitype/StillImage"/>
    <dc:date>2023-06-25T19:58:03.385210</dc:date>
    <dc:format>image/svg+xml</dc:format>
    <dc:creator>
     <cc:Agent>
      <dc:title>Matplotlib v3.7.0, https://matplotlib.org/</dc:title>
     </cc:Agent>
    </dc:creator>
   </cc:Work>
  </rdf:RDF>
 </metadata>
 <defs>
  <style type="text/css">*{stroke-linejoin: round; stroke-linecap: butt}</style>
 </defs>
 <g id="figure_1">
  <g id="patch_1">
   <path d="M 0 221.36387 
L 202.896 221.36387 
L 202.896 -0 
L 0 -0 
z
" style="fill: #ffffff"/>
  </g>
  <g id="patch_2">
   <path d="M 7.2 214.16387 
L 195.696 214.16387 
L 195.696 25.66787 
L 7.2 25.66787 
z
" style="fill: #ffffff"/>
  </g>
  <g id="axes_1">
   <g id="line2d_1">
    <path d="M 103.995243 125.920052 
L 27.896292 163.969527 
L 27.896292 70.767727 
L 103.995243 32.718252 
L 103.995243 125.920052 
" clip-path="url(#p10c6030c35)" style="fill: none; stroke: #0000ff; stroke-width: 1.5; stroke-linecap: round"/>
   </g>
   <g id="line2d_2">
    <path d="M 103.995243 125.920052 
L 180.094194 163.969527 
L 103.995243 202.019003 
L 27.896292 163.969527 
L 103.995243 125.920052 
" clip-path="url(#p10c6030c35)" style="fill: none; stroke: #0000ff; stroke-width: 1.5; stroke-linecap: round"/>
   </g>
   <g id="line2d_3">
    <path d="M 103.995243 125.920052 
L 103.995243 32.718252 
L 180.094194 70.767727 
L 180.094194 163.969527 
L 103.995243 125.920052 
" clip-path="url(#p10c6030c35)" style="fill: none; stroke: #0000ff; stroke-width: 1.5; stroke-linecap: round"/>
   </g>
   <g id="line2d_4">
    <path d="M 180.094194 163.969527 
L 180.094194 70.767727 
L 103.995243 108.817203 
L 103.995243 202.019003 
L 180.094194 163.969527 
" clip-path="url(#p10c6030c35)" style="fill: none; stroke: #0000ff; stroke-width: 1.5; stroke-linecap: round"/>
   </g>
   <g id="line2d_5">
    <path d="M 27.896292 163.969527 
L 103.995243 202.019003 
L 103.995243 108.817203 
L 27.896292 70.767727 
L 27.896292 163.969527 
" clip-path="url(#p10c6030c35)" style="fill: none; stroke: #0000ff; stroke-width: 1.5; stroke-linecap: round"/>
   </g>
   <g id="line2d_6">
    <path d="M 103.995243 32.718252 
L 27.896292 70.767727 
L 103.995243 108.817203 
L 180.094194 70.767727 
L 103.995243 32.718252 
" clip-path="url(#p10c6030c35)" style="fill: none; stroke: #0000ff; stroke-width: 1.5; stroke-linecap: round"/>
   </g>
   <g id="line2d_7">
    <path d="M 103.995243 117.368627 
L 103.995243 121.644339 
" clip-path="url(#p10c6030c35)" style="fill: none; stroke: #b2ccb2; stroke-opacity: 0.7"/>
   </g>
   <g id="line2d_8">
    <path d="M 103.995243 121.644339 
L 103.995243 125.920052 
" clip-path="url(#p10c6030c35)" style="fill: none; stroke: #b2ccb2; stroke-opacity: 0.7"/>
   </g>
   <g id="line2d_9">
    <path d="M 103.995243 117.368627 
L 65.945768 94.068177 
" clip-path="url(#p10c6030c35)" style="fill: none; stroke: #b2ccb2; stroke-opacity: 0.7"/>
   </g>
   <g id="line2d_10">
    <path d="M 65.945768 94.068177 
L 27.896292 70.767727 
" clip-path="url(#p10c6030c35)" style="fill: none; stroke: #b2ccb2; stroke-opacity: 0.7"/>
   </g>
   <g id="line2d_11">
    <path d="M 103.995243 117.368627 
L 103.995243 75.043439 
" clip-path="url(#p10c6030c35)" style="fill: none; stroke: #b2ccb2; stroke-opacity: 0.7"/>
   </g>
   <g id="line2d_12">
    <path d="M 103.995243 75.043439 
L 103.995243 32.718252 
" clip-path="url(#p10c6030c35)" style="fill: none; stroke: #b2ccb2; stroke-opacity: 0.7"/>
   </g>
   <g id="line2d_13">
    <path d="M 103.995243 117.368627 
L 142.044719 140.669077 
" clip-path="url(#p10c6030c35)" style="fill: none; stroke: #b2ccb2; stroke-opacity: 0.7"/>
   </g>
   <g id="line2d_14">
    <path d="M 142.044719 140.669077 
L 180.094194 163.969527 
" clip-path="url(#p10c6030c35)" style="fill: none; stroke: #b2ccb2; stroke-opacity: 0.7"/>
   </g>
   <g id="line2d_15">
    <path d="M 103.995243 117.368627 
L 142.044719 94.068177 
" clip-path="url(#p10c6030c35)" style="fill: none; stroke: #b2ccb2; stroke-opacity: 0.7"/>
   </g>
   <g id="line2d_16">
    <path d="M 142.044719 94.068177 
L 180.094194 70.767727 
" clip-path="url(#p10c6030c35)" style="fill: none; stroke: #b2ccb2; stroke-opacity: 0.7"/>
   </g>
   <g id="line2d_17">
    <path d="M 103.995243 117.368627 
L 65.945768 140.669077 
" clip-path="url(#p10c6030c35)" style="fill: none; stroke: #b2ccb2; stroke-opacity: 0.7"/>
   </g>
   <g id="line2d_18">
    <path d="M 65.945768 140.669077 
L 27.896292 163.969527 
" clip-path="url(#p10c6030c35)" style="fill: none; stroke: #b2ccb2; stroke-opacity: 0.7"/>
   </g>
   <g id="line2d_19">
    <path d="M 103.995243 117.368627 
L 103.995243 159.693815 
" clip-path="url(#p10c6030c35)" style="fill: none; stroke: #b2ccb2; stroke-opacity: 0.7"/>
   </g>
   <g id="line2d_20">
    <path d="M 103.995243 159.693815 
L 103.995243 202.019003 
" clip-path="url(#p10c6030c35)" style="fill: none; stroke: #b2ccb2; stroke-opacity: 0.7"/>
   </g>
   <g id="line2d_21">
    <path d="M 103.995243 117.368627 
L 103.995243 113.092915 
" clip-path="url(#p10c6030c35)" style="fill: none; stroke: #b2ccb2; stroke-opacity: 0.7"/>
   </g>
   <g id="line2d_22">
    <path d="M 103.995243 113.092915 
L 103.995243 108.817203 
" clip-path="url(#p10c6030c35)" style="fill: none; stroke: #b2ccb2; stroke-opacity: 0.7"/>
   </g>
   <g id="patch_3">
    <path d="M 103.995243 125.920052 
Q 103.995243 111.939782 103.995243 98.742135 
" clip-path="url(#p10c6030c35)" style="fill: none; stroke: #000000; stroke-width: 0.7; stroke-linecap: round"/>
    <path d="M 102.595243 101.542135 
L 103.995243 98.742135 
L 105.395243 101.542135 
z
" clip-path="url(#p10c6030c35)" style="stroke: #000000; stroke-width: 0.7; stroke-linecap: round"/>
   </g>
   <g id="Path3DCollection_1"/>
   <g id="text_1">
    <!-- $\vec{a}_1$ -->
    <g transform="translate(72.76061 141.667055) scale(0.1 -0.1)">
     <defs>
      <path id="STIXGeneral-Regular-20d7" d="M -109 4186 
L -954 3507 
L -1069 3558 
Q -755 3821 -755 3917 
Q -755 4013 -1069 4013 
L -2899 4013 
L -2899 4358 
L -1069 4358 
Q -755 4358 -755 4454 
Q -755 4474 -768 4496 
Q -781 4518 -816 4553 
Q -851 4589 -880 4621 
Q -909 4653 -973 4713 
Q -1037 4774 -1075 4813 
L -960 4864 
L -109 4186 
z
" transform="scale(0.015625)"/>
      <path id="STIXGeneral-Italic-61" d="M 2963 710 
L 3046 640 
Q 2688 205 2518 70 
Q 2349 -64 2157 -64 
Q 1901 -64 1901 198 
Q 1901 358 2048 934 
Q 1690 397 1389 163 
Q 1088 -70 749 -70 
Q 467 -70 288 125 
Q 109 320 109 672 
Q 109 1158 387 1664 
Q 666 2170 1094 2496 
Q 1523 2822 1939 2822 
Q 2368 2822 2451 2451 
L 2522 2758 
L 2541 2778 
L 2931 2822 
L 2976 2803 
Q 2970 2778 2938 2669 
Q 2368 595 2368 346 
Q 2368 262 2458 262 
Q 2554 262 2790 525 
L 2963 710 
z
M 2336 2310 
Q 2336 2477 2240 2579 
Q 2144 2682 1978 2682 
Q 1542 2682 1139 2093 
Q 928 1779 787 1395 
Q 646 1011 646 717 
Q 646 243 1030 243 
Q 1408 243 1843 870 
Q 2336 1581 2336 2310 
z
" transform="scale(0.015625)"/>
      <path id="STIXGeneral-Regular-31" d="M 2522 0 
L 755 0 
L 755 96 
Q 1107 115 1235 227 
Q 1363 339 1363 608 
L 1363 3482 
Q 1363 3795 1171 3795 
Q 1082 3795 883 3718 
L 710 3654 
L 710 3744 
L 1856 4326 
L 1914 4307 
L 1914 486 
Q 1914 275 2042 185 
Q 2170 96 2522 96 
L 2522 0 
z
" transform="scale(0.015625)"/>
     </defs>
     <use xlink:href="#STIXGeneral-Regular-20d7" transform="translate(54.821873 2)"/>
     <use xlink:href="#STIXGeneral-Italic-61" transform="translate(0 0.203125)"/>
     <use xlink:href="#STIXGeneral-Regular-31" transform="translate(51.643272 -13.025) scale(0.7)"/>
    </g>
   </g>
   <g id="text_2">
    <!-- $\vec{a}_2$ -->
    <g transform="translate(126.029876 141.667055) scale(0.1 -0.1)">
     <defs>
      <path id="STIXGeneral-Regular-32" d="M 3034 877 
L 2688 0 
L 186 0 
L 186 77 
L 1325 1286 
Q 1773 1754 1965 2144 
Q 2157 2534 2157 2950 
Q 2157 3379 1920 3616 
Q 1683 3853 1267 3853 
Q 922 3853 720 3673 
Q 518 3494 326 3021 
L 192 3053 
Q 301 3648 630 3987 
Q 960 4326 1523 4326 
Q 2054 4326 2380 4006 
Q 2707 3686 2707 3200 
Q 2707 2477 1888 1613 
L 832 486 
L 2330 486 
Q 2541 486 2665 569 
Q 2790 653 2944 915 
L 3034 877 
z
" transform="scale(0.015625)"/>
     </defs>
     <use xlink:href="#STIXGeneral-Regular-20d7" transform="translate(54.821873 2)"/>
     <use xlink:href="#STIXGeneral-Italic-61" transform="translate(0 0.203125)"/>
     <use xlink:href="#STIXGeneral-Regular-32" transform="translate(51.643272 -13.025) scale(0.7)"/>
    </g>
   </g>
   <g id="text_3">
    <!-- $\vec{a}_3$ -->
    <g transform="translate(99.395243 95.779109) scale(0.1 -0.1)">
     <defs>
      <path id="STIXGeneral-Regular-33" d="M 390 3264 
L 288 3290 
Q 435 3770 748 4048 
Q 1062 4326 1542 4326 
Q 1990 4326 2265 4083 
Q 2541 3840 2541 3450 
Q 2541 2925 1946 2566 
Q 2298 2413 2477 2227 
Q 2758 1914 2758 1402 
Q 2758 890 2464 506 
Q 2246 211 1840 60 
Q 1434 -90 979 -90 
Q 262 -90 262 275 
Q 262 378 339 442 
Q 416 506 525 506 
Q 685 506 915 339 
Q 1197 141 1466 141 
Q 1818 141 2058 425 
Q 2298 710 2298 1120 
Q 2298 1856 1632 2048 
Q 1434 2112 979 2112 
L 979 2202 
Q 1338 2323 1517 2432 
Q 2035 2726 2035 3290 
Q 2035 3610 1852 3776 
Q 1670 3942 1344 3942 
Q 768 3942 390 3264 
z
" transform="scale(0.015625)"/>
     </defs>
     <use xlink:href="#STIXGeneral-Regular-20d7" transform="translate(54.821873 2)"/>
     <use xlink:href="#STIXGeneral-Italic-61" transform="translate(0 0.203125)"/>
     <use xlink:href="#STIXGeneral-Regular-33" transform="translate(51.643272 -13.025) scale(0.7)"/>
    </g>
   </g>
   <g id="patch_4">
    <path d="M 103.995243 125.920052 
Q 92.580401 131.627473 81.865558 136.984894 
" clip-path="url(#p10c6030c35)" style="fill: none; stroke: #000000; stroke-width: 0.7; stroke-linecap: round"/>
    <path d="M 84.996053 136.984894 
L 81.865558 136.984894 
L 83.743855 134.480498 
z
" clip-path="url(#p10c6030c35)" style="stroke: #000000; stroke-width: 0.7; stroke-linecap: round"/>
   </g>
   <g id="Path3DCollection_2">
    <path d="M 103.995243 129.455585 
C 104.932878 129.455585 105.832235 129.083059 106.495243 128.420052 
C 107.158251 127.757044 107.530777 126.857686 107.530777 125.920052 
C 107.530777 124.982417 107.158251 124.083059 106.495243 123.420052 
C 105.832235 122.757044 104.932878 122.384518 103.995243 122.384518 
C 103.057609 122.384518 102.158251 122.757044 101.495243 123.420052 
C 100.832235 124.083059 100.459709 124.982417 100.459709 125.920052 
C 100.459709 126.857686 100.832235 127.757044 101.495243 128.420052 
C 102.158251 129.083059 103.057609 129.455585 103.995243 129.455585 
z
" clip-path="url(#p10c6030c35)" style="fill: #b2ccb2; fill-opacity: 0.7; stroke: #b2ccb2; stroke-opacity: 0.7"/>
    <path d="M 103.995243 36.253786 
C 104.932878 36.253786 105.832235 35.881259 106.495243 35.218252 
C 107.158251 34.555244 107.530777 33.655886 107.530777 32.718252 
C 107.530777 31.780617 107.158251 30.881259 106.495243 30.218252 
C 105.832235 29.555244 104.932878 29.182718 103.995243 29.182718 
C 103.057609 29.182718 102.158251 29.555244 101.495243 30.218252 
C 100.832235 30.881259 100.459709 31.780617 100.459709 32.718252 
C 100.459709 33.655886 100.832235 34.555244 101.495243 35.218252 
C 102.158251 35.881259 103.057609 36.253786 103.995243 36.253786 
z
" clip-path="url(#p10c6030c35)" style="fill: #b2ccb2; fill-opacity: 0.7; stroke: #b2ccb2; stroke-opacity: 0.7"/>
    <path d="M 180.094194 167.505061 
C 181.031829 167.505061 181.931186 167.132535 182.594194 166.469527 
C 183.257202 165.806519 183.629728 164.907162 183.629728 163.969527 
C 183.629728 163.031892 183.257202 162.132535 182.594194 161.469527 
C 181.931186 160.806519 181.031829 160.433993 180.094194 160.433993 
C 179.15656 160.433993 178.257202 160.806519 177.594194 161.469527 
C 176.931186 162.132535 176.55866 163.031892 176.55866 163.969527 
C 176.55866 164.907162 176.931186 165.806519 177.594194 166.469527 
C 178.257202 167.132535 179.15656 167.505061 180.094194 167.505061 
z
" clip-path="url(#p10c6030c35)" style="fill: #b2ccb2; fill-opacity: 0.7; stroke: #b2ccb2; stroke-opacity: 0.7"/>
    <path d="M 27.896292 167.505061 
C 28.833927 167.505061 29.733285 167.132535 30.396292 166.469527 
C 31.0593 165.806519 31.431826 164.907162 31.431826 163.969527 
C 31.431826 163.031892 31.0593 162.132535 30.396292 161.469527 
C 29.733285 160.806519 28.833927 160.433993 27.896292 160.433993 
C 26.958658 160.433993 26.0593 160.806519 25.396292 161.469527 
C 24.733285 162.132535 24.360758 163.031892 24.360758 163.969527 
C 24.360758 164.907162 24.733285 165.806519 25.396292 166.469527 
C 26.0593 167.132535 26.958658 167.505061 27.896292 167.505061 
z
" clip-path="url(#p10c6030c35)" style="fill: #b2ccb2; fill-opacity: 0.7; stroke: #b2ccb2; stroke-opacity: 0.7"/>
    <path d="M 103.995243 120.904161 
C 104.932878 120.904161 105.832235 120.531635 106.495243 119.868627 
C 107.158251 119.205619 107.530777 118.306262 107.530777 117.368627 
C 107.530777 116.430993 107.158251 115.531635 106.495243 114.868627 
C 105.832235 114.205619 104.932878 113.833093 103.995243 113.833093 
C 103.057609 113.833093 102.158251 114.205619 101.495243 114.868627 
C 100.832235 115.531635 100.459709 116.430993 100.459709 117.368627 
C 100.459709 118.306262 100.832235 119.205619 101.495243 119.868627 
C 102.158251 120.531635 103.057609 120.904161 103.995243 120.904161 
z
" clip-path="url(#p10c6030c35)" style="fill: #b2ccb2; fill-opacity: 0.7; stroke: #b2ccb2; stroke-opacity: 0.7"/>
    <path d="M 27.896292 74.303261 
C 28.833927 74.303261 29.733285 73.930735 30.396292 73.267727 
C 31.0593 72.604719 31.431826 71.705362 31.431826 70.767727 
C 31.431826 69.830093 31.0593 68.930735 30.396292 68.267727 
C 29.733285 67.604719 28.833927 67.232193 27.896292 67.232193 
C 26.958658 67.232193 26.0593 67.604719 25.396292 68.267727 
C 24.733285 68.930735 24.360758 69.830093 24.360758 70.767727 
C 24.360758 71.705362 24.733285 72.604719 25.396292 73.267727 
C 26.0593 73.930735 26.958658 74.303261 27.896292 74.303261 
z
" clip-path="url(#p10c6030c35)" style="fill: #b2ccb2; fill-opacity: 0.7; stroke: #b2ccb2; stroke-opacity: 0.7"/>
    <path d="M 180.094194 74.303261 
C 181.031829 74.303261 181.931186 73.930735 182.594194 73.267727 
C 183.257202 72.604719 183.629728 71.705362 183.629728 70.767727 
C 183.629728 69.830093 183.257202 68.930735 182.594194 68.267727 
C 181.931186 67.604719 181.031829 67.232193 180.094194 67.232193 
C 179.15656 67.232193 178.257202 67.604719 177.594194 68.267727 
C 176.931186 68.930735 176.55866 69.830093 176.55866 70.767727 
C 176.55866 71.705362 176.931186 72.604719 177.594194 73.267727 
C 178.257202 73.930735 179.15656 74.303261 180.094194 74.303261 
z
" clip-path="url(#p10c6030c35)" style="fill: #b2ccb2; fill-opacity: 0.7; stroke: #b2ccb2; stroke-opacity: 0.7"/>
    <path d="M 103.995243 205.554536 
C 104.932878 205.554536 105.832235 205.18201 106.495243 204.519003 
C 107.158251 203.855995 107.530777 202.956637 107.530777 202.019003 
C 107.530777 201.081368 107.158251 200.18201 106.495243 199.519003 
C 105.832235 198.855995 104.932878 198.483469 103.995243 198.483469 
C 103.057609 198.483469 102.158251 198.855995 101.495243 199.519003 
C 100.832235 200.18201 100.459709 201.081368 100.459709 202.019003 
C 100.459709 202.956637 100.832235 203.855995 101.495243 204.519003 
C 102.158251 205.18201 103.057609 205.554536 103.995243 205.554536 
z
" clip-path="url(#p10c6030c35)" style="fill: #b2ccb2; fill-opacity: 0.7; stroke: #b2ccb2; stroke-opacity: 0.7"/>
    <path d="M 103.995243 112.352736 
C 104.932878 112.352736 105.832235 111.98021 106.495243 111.317203 
C 107.158251 110.654195 107.530777 109.754837 107.530777 108.817203 
C 107.530777 107.879568 107.158251 106.98021 106.495243 106.317203 
C 105.832235 105.654195 104.932878 105.281669 103.995243 105.281669 
C 103.057609 105.281669 102.158251 105.654195 101.495243 106.317203 
C 100.832235 106.98021 100.459709 107.879568 100.459709 108.817203 
C 100.459709 109.754837 100.832235 110.654195 101.495243 111.317203 
C 102.158251 111.98021 103.057609 112.352736 103.995243 112.352736 
z
" clip-path="url(#p10c6030c35)" style="fill: #b2ccb2; fill-opacity: 0.7; stroke: #b2ccb2; stroke-opacity: 0.7"/>
   </g>
   <g id="patch_5">
    <path d="M 103.995243 125.920052 
Q 115.410086 131.627473 126.124929 136.984894 
" clip-path="url(#p10c6030c35)" style="fill: none; stroke: #000000; stroke-width: 0.7; stroke-linecap: round"/>
    <path d="M 124.246631 134.480498 
L 126.124929 136.984894 
L 122.994433 136.984894 
z
" clip-path="url(#p10c6030c35)" style="stroke: #000000; stroke-width: 0.7; stroke-linecap: round"/>
   </g>
   <g id="legend_1">
    <g id="Path3DCollection_3">
     <defs>
      <path id="m5850943fa7" d="M 0 3.535534 
C 0.937635 3.535534 1.836992 3.163008 2.5 2.5 
C 3.163008 1.836992 3.535534 0.937635 3.535534 0 
C 3.535534 -0.937635 3.163008 -1.836992 2.5 -2.5 
C 1.836992 -3.163008 0.937635 -3.535534 0 -3.535534 
C -0.937635 -3.535534 -1.836992 -3.163008 -2.5 -2.5 
C -3.163008 -1.836992 -3.535534 -0.937635 -3.535534 0 
C -3.535534 0.937635 -3.163008 1.836992 -2.5 2.5 
C -1.836992 3.163008 -0.937635 3.535534 0 3.535534 
z
" style="stroke: #b2ccb2"/>
     </defs>
     <g>
      <use xlink:href="#m5850943fa7" x="23.027" y="14.176375" style="fill: #b2ccb2; stroke: #b2ccb2"/>
     </g>
    </g>
    <g id="text_4">
     <!-- H -->
     <g transform="translate(38.021 16.363) scale(0.0833 -0.0833)">
      <defs>
       <path id="STIXGeneral-Regular-48" d="M 4499 0 
L 2714 0 
L 2714 122 
Q 3085 147 3181 265 
Q 3277 384 3277 794 
L 3277 2016 
L 1338 2016 
L 1338 723 
Q 1338 371 1440 256 
Q 1542 141 1894 122 
L 1901 0 
L 115 0 
L 115 122 
Q 493 147 589 259 
Q 685 371 685 781 
L 685 3507 
Q 685 3878 585 3980 
Q 486 4083 115 4115 
L 115 4237 
L 1907 4237 
L 1907 4115 
Q 1549 4083 1443 3977 
Q 1338 3872 1338 3507 
L 1338 2298 
L 3277 2298 
L 3277 3507 
Q 3277 3878 3177 3980 
Q 3078 4083 2707 4115 
L 2707 4237 
L 4499 4237 
L 4499 4115 
Q 4141 4083 4035 3977 
Q 3930 3872 3930 3507 
L 3930 710 
Q 3930 371 4035 259 
Q 4141 147 4499 122 
L 4499 0 
z
" transform="scale(0.015625)"/>
      </defs>
      <use xlink:href="#STIXGeneral-Regular-48"/>
     </g>
    </g>
   </g>
  </g>
 </g>
 <defs>
  <clipPath id="p10c6030c35">
   <rect x="7.2" y="25.66787" width="188.496" height="188.496"/>
  </clipPath>
 </defs>
</svg>
