<?xml version="1.0" encoding="utf-8" standalone="no"?>
<!DOCTYPE svg PUBLIC "-//W3C//DTD SVG 1.1//EN"
  "http://www.w3.org/Graphics/SVG/1.1/DTD/svg11.dtd">
<svg xmlns:xlink="http://www.w3.org/1999/xlink" width="202.896pt" height="202.896pt" viewBox="0 0 202.896 202.896" xmlns="http://www.w3.org/2000/svg" version="1.1">
 <metadata>
  <rdf:RDF xmlns:dc="http://purl.org/dc/elements/1.1/" xmlns:cc="http://creativecommons.org/ns#" xmlns:rdf="http://www.w3.org/1999/02/22-rdf-syntax-ns#">
   <cc:Work>
    <dc:type rdf:resource="http://purl.org/dc/dcmitype/StillImage"/>
    <dc:date>2023-06-27T15:02:02.260694</dc:date>
    <dc:format>image/svg+xml</dc:format>
    <dc:creator>
     <cc:Agent>
      <dc:title>Matplotlib v3.7.0, https://matplotlib.org/</dc:title>
     </cc:Agent>
    </dc:creator>
   </cc:Work>
  </rdf:RDF>
 </metadata>
 <defs>
  <style type="text/css">*{stroke-linejoin: round; stroke-linecap: butt}</style>
 </defs>
 <g id="figure_1">
  <g id="patch_1">
   <path d="M 0 202.896 
L 202.896 202.896 
L 202.896 -0 
L 0 -0 
z
" style="fill: #ffffff"/>
  </g>
  <g id="patch_2">
   <path d="M 7.2 195.696 
L 195.696 195.696 
L 195.696 7.2 
L 7.2 7.2 
z
" style="fill: #ffffff"/>
  </g>
  <g id="axes_1">
   <g id="line2d_1">
    <path d="M 103.995243 98.900757 
L 156.89876 111.007309 
L 134.85944 117.529195 
L 103.995243 98.900757 
L 141.466662 77.30884 
" clip-path="url(#pcc3e0d2077)" style="fill: none; stroke: #0000ff; stroke-width: 0.8; stroke-linecap: square"/>
    <defs>
     <path id="m94cfa9cef8" d="M 0 2.5 
C 0.663008 2.5 1.29895 2.236584 1.767767 1.767767 
C 2.236584 1.29895 2.5 0.663008 2.5 0 
C 2.5 -0.663008 2.236584 -1.29895 1.767767 -1.767767 
C 1.29895 -2.236584 0.663008 -2.5 0 -2.5 
C -0.663008 -2.5 -1.29895 -2.236584 -1.767767 -1.767767 
C -2.236584 -1.29895 -2.5 -0.663008 -2.5 0 
C -2.5 0.663008 -2.236584 1.29895 -1.767767 1.767767 
C -1.29895 2.236584 -0.663008 2.5 0 2.5 
z
" style="stroke: #0000ff"/>
    </defs>
    <g clip-path="url(#pcc3e0d2077)">
     <use xlink:href="#m94cfa9cef8" x="103.995243" y="98.900757" style="fill: #0000ff; stroke: #0000ff"/>
     <use xlink:href="#m94cfa9cef8" x="156.89876" y="111.007309" style="fill: #0000ff; stroke: #0000ff"/>
     <use xlink:href="#m94cfa9cef8" x="134.85944" y="117.529195" style="fill: #0000ff; stroke: #0000ff"/>
     <use xlink:href="#m94cfa9cef8" x="103.995243" y="98.900757" style="fill: #0000ff; stroke: #0000ff"/>
     <use xlink:href="#m94cfa9cef8" x="141.466662" y="77.30884" style="fill: #0000ff; stroke: #0000ff"/>
    </g>
   </g>
   <g id="Poly3DCollection_1">
    <path d="M 132.641786 76.542765 
L 148.073884 110.241233 
L 126.034564 141.147369 
L 88.563145 138.355036 
L 73.131047 104.656568 
L 95.170367 73.750432 
L 132.641786 76.542765 
z
" clip-path="url(#pcc3e0d2077)" style="fill: #73b0c8; fill-opacity: 0.4; stroke: #73b0c8; stroke-width: 0.1"/>
    <path d="M 73.131047 104.656568 
L 51.091727 86.794205 
L 73.131047 55.888069 
L 95.170367 73.750432 
L 73.131047 104.656568 
z
" clip-path="url(#pcc3e0d2077)" style="fill: #77b6d0; fill-opacity: 0.4; stroke: #77b6d0; stroke-width: 0.1"/>
    <path d="M 95.170367 73.750432 
L 73.131047 55.888069 
L 88.563145 40.818039 
L 126.034564 43.610372 
L 148.073884 61.472735 
L 132.641786 76.542765 
L 95.170367 73.750432 
z
" clip-path="url(#pcc3e0d2077)" style="fill: #85cbe8; fill-opacity: 0.4; stroke: #85cbe8; stroke-width: 0.1"/>
    <path d="M 148.073884 61.472735 
L 163.505982 95.171203 
L 148.073884 110.241233 
L 132.641786 76.542765 
L 148.073884 61.472735 
z
" clip-path="url(#pcc3e0d2077)" style="fill: #77b6d0; fill-opacity: 0.4; stroke: #77b6d0; stroke-width: 0.1"/>
    <path d="M 126.034564 141.147369 
L 119.427341 156.983474 
L 81.955923 154.191142 
L 88.563145 138.355036 
L 126.034564 141.147369 
z
" clip-path="url(#pcc3e0d2077)" style="fill: #486e7d; fill-opacity: 0.4; stroke: #486e7d; stroke-width: 0.1"/>
    <path d="M 88.563145 138.355036 
L 81.955923 154.191142 
L 59.916603 136.328779 
L 44.484505 102.630311 
L 51.091727 86.794205 
L 73.131047 104.656568 
L 88.563145 138.355036 
z
" clip-path="url(#pcc3e0d2077)" style="fill: #4f7889; fill-opacity: 0.4; stroke: #4f7889; stroke-width: 0.1"/>
    <path d="M 148.073884 110.241233 
L 163.505982 95.171203 
L 156.89876 111.007309 
L 134.85944 141.913444 
L 119.427341 156.983474 
L 126.034564 141.147369 
L 148.073884 110.241233 
z
" clip-path="url(#pcc3e0d2077)" style="fill: #4f7889; fill-opacity: 0.4; stroke: #4f7889; stroke-width: 0.1"/>
    <path d="M 73.131047 55.888069 
L 51.091727 86.794205 
L 44.484505 102.630311 
L 59.916603 87.560281 
L 81.955923 56.654145 
L 88.563145 40.818039 
L 73.131047 55.888069 
z
" clip-path="url(#pcc3e0d2077)" style="fill: #6194a9; fill-opacity: 0.4; stroke: #6194a9; stroke-width: 0.1"/>
    <path d="M 126.034564 43.610372 
L 119.427341 59.446478 
L 134.85944 93.144946 
L 156.89876 111.007309 
L 163.505982 95.171203 
L 148.073884 61.472735 
L 126.034564 43.610372 
z
" clip-path="url(#pcc3e0d2077)" style="fill: #6194a9; fill-opacity: 0.4; stroke: #6194a9; stroke-width: 0.1"/>
    <path d="M 88.563145 40.818039 
L 81.955923 56.654145 
L 119.427341 59.446478 
L 126.034564 43.610372 
L 88.563145 40.818039 
z
" clip-path="url(#pcc3e0d2077)" style="fill: #679eb4; fill-opacity: 0.4; stroke: #679eb4; stroke-width: 0.1"/>
    <path d="M 119.427341 156.983474 
L 134.85944 141.913444 
L 112.820119 124.051082 
L 75.348701 121.258749 
L 59.916603 136.328779 
L 81.955923 154.191142 
L 119.427341 156.983474 
z
" clip-path="url(#pcc3e0d2077)" style="fill: #2a414a; fill-opacity: 0.4; stroke: #2a414a; stroke-width: 0.1"/>
    <path d="M 59.916603 136.328779 
L 75.348701 121.258749 
L 59.916603 87.560281 
L 44.484505 102.630311 
L 59.916603 136.328779 
z
" clip-path="url(#pcc3e0d2077)" style="fill: #385662; fill-opacity: 0.4; stroke: #385662; stroke-width: 0.1"/>
    <path d="M 134.85944 93.144946 
L 112.820119 124.051082 
L 134.85944 141.913444 
L 156.89876 111.007309 
L 134.85944 93.144946 
z
" clip-path="url(#pcc3e0d2077)" style="fill: #385662; fill-opacity: 0.4; stroke: #385662; stroke-width: 0.1"/>
    <path d="M 81.955923 56.654145 
L 59.916603 87.560281 
L 75.348701 121.258749 
L 112.820119 124.051082 
L 134.85944 93.144946 
L 119.427341 59.446478 
L 81.955923 56.654145 
z
" clip-path="url(#pcc3e0d2077)" style="fill: #3c5c69; fill-opacity: 0.4; stroke: #3c5c69; stroke-width: 0.1"/>
   </g>
   <g id="text_1">
    <!-- Γ -->
    <g transform="translate(103.995243 88.534819) scale(0.1 -0.1)">
     <defs>
      <path id="STIXGeneral-Regular-393" d="M 3693 3162 
L 3533 3162 
Q 3482 3642 3299 3818 
Q 3117 3994 2637 3994 
L 1517 3994 
Q 1382 3994 1334 3942 
Q 1286 3891 1286 3738 
L 1286 723 
Q 1286 352 1388 246 
Q 1491 141 1869 122 
L 1869 0 
L 70 0 
L 70 122 
Q 435 147 534 262 
Q 634 378 634 794 
L 634 3526 
Q 634 3878 538 3984 
Q 442 4090 77 4115 
L 77 4237 
L 3661 4237 
L 3693 3162 
z
" transform="scale(0.015625)"/>
     </defs>
     <use xlink:href="#STIXGeneral-Regular-393"/>
    </g>
    <!--  -->
    <g transform="translate(103.995243 98.900757) scale(0.1 -0.1)"/>
   </g>
   <g id="text_2">
    <!-- K -->
    <g transform="translate(156.89876 100.641371) scale(0.1 -0.1)">
     <defs>
      <path id="STIXGeneral-Regular-4b" d="M 4627 0 
L 2688 0 
L 2688 122 
L 2861 128 
Q 3130 134 3130 282 
Q 3130 397 2922 643 
Q 2714 890 2253 1370 
L 1613 2029 
L 1446 1894 
L 1446 710 
Q 1446 352 1548 253 
Q 1651 154 2016 122 
L 2016 0 
L 211 0 
L 211 122 
Q 589 141 691 262 
Q 794 384 794 800 
L 794 3514 
Q 794 3872 691 3981 
Q 589 4090 218 4115 
L 218 4237 
L 2022 4237 
L 2022 4115 
Q 1632 4090 1539 3987 
Q 1446 3885 1446 3507 
L 1446 2227 
L 2586 3277 
Q 2861 3533 2973 3667 
Q 3085 3802 3085 3910 
Q 3085 4013 3030 4057 
Q 2976 4102 2822 4109 
L 2662 4115 
L 2662 4237 
L 4320 4237 
L 4320 4115 
Q 3994 4090 3824 4003 
Q 3654 3917 3322 3597 
L 2131 2458 
L 3629 819 
Q 4026 384 4214 253 
Q 4403 122 4627 122 
L 4627 0 
z
" transform="scale(0.015625)"/>
     </defs>
     <use xlink:href="#STIXGeneral-Regular-4b"/>
    </g>
    <!--  -->
    <g transform="translate(156.89876 111.007309) scale(0.1 -0.1)"/>
   </g>
   <g id="text_3">
    <!-- X -->
    <g transform="translate(134.85944 107.163258) scale(0.1 -0.1)">
     <defs>
      <path id="STIXGeneral-Regular-58" d="M 4506 0 
L 2611 0 
L 2611 122 
L 2778 134 
Q 3098 154 3098 320 
Q 3098 461 2771 947 
L 2163 1850 
L 1402 896 
Q 1062 474 1062 326 
Q 1062 230 1168 185 
Q 1274 141 1549 122 
L 1549 0 
L 64 0 
L 64 122 
Q 314 147 470 268 
Q 627 390 992 851 
L 1990 2099 
L 1312 3091 
Q 864 3744 665 3913 
Q 467 4083 141 4115 
L 141 4237 
L 2067 4237 
L 2067 4115 
L 1882 4109 
Q 1734 4102 1660 4064 
Q 1587 4026 1587 3923 
Q 1587 3885 1596 3843 
Q 1606 3802 1635 3744 
Q 1664 3686 1689 3638 
Q 1715 3590 1769 3507 
Q 1824 3424 1862 3366 
Q 1901 3309 1984 3190 
Q 2067 3072 2118 2995 
L 2400 2586 
L 3117 3482 
Q 3373 3795 3373 3910 
Q 3373 4019 3283 4064 
Q 3194 4109 2938 4115 
L 2938 4237 
L 4454 4237 
L 4454 4115 
Q 4147 4096 3968 3977 
Q 3789 3859 3482 3482 
L 2566 2349 
L 3795 595 
Q 3981 326 4115 240 
Q 4250 154 4506 122 
L 4506 0 
z
" transform="scale(0.015625)"/>
     </defs>
     <use xlink:href="#STIXGeneral-Regular-58"/>
    </g>
    <!--  -->
    <g transform="translate(134.85944 117.529195) scale(0.1 -0.1)"/>
   </g>
   <g id="text_4">
    <!-- Γ -->
    <g transform="translate(103.995243 88.534819) scale(0.1 -0.1)">
     <use xlink:href="#STIXGeneral-Regular-393"/>
    </g>
    <!--  -->
    <g transform="translate(103.995243 98.900757) scale(0.1 -0.1)"/>
   </g>
   <g id="text_5">
    <!-- L -->
    <g transform="translate(141.466662 66.942903) scale(0.1 -0.1)">
     <defs>
      <path id="STIXGeneral-Regular-4c" d="M 3827 1114 
L 3520 0 
L 77 0 
L 77 122 
Q 429 141 531 256 
Q 634 371 634 736 
L 634 3494 
Q 634 3872 541 3981 
Q 448 4090 77 4115 
L 77 4237 
L 1888 4237 
L 1888 4115 
Q 1498 4090 1392 3984 
Q 1286 3878 1286 3507 
L 1286 538 
Q 1286 358 1398 304 
Q 1510 250 1862 250 
L 2310 250 
Q 3085 250 3392 640 
Q 3520 813 3661 1114 
L 3827 1114 
z
" transform="scale(0.015625)"/>
     </defs>
     <use xlink:href="#STIXGeneral-Regular-4c"/>
    </g>
    <!--  -->
    <g transform="translate(141.466662 77.30884) scale(0.1 -0.1)"/>
   </g>
  </g>
 </g>
 <defs>
  <clipPath id="pcc3e0d2077">
   <rect x="7.2" y="7.2" width="188.496" height="188.496"/>
  </clipPath>
 </defs>
</svg>
