<?xml version="1.0" encoding="utf-8" standalone="no"?>
<!DOCTYPE svg PUBLIC "-//W3C//DTD SVG 1.1//EN"
  "http://www.w3.org/Graphics/SVG/1.1/DTD/svg11.dtd">
<svg xmlns:xlink="http://www.w3.org/1999/xlink" width="460.8pt" height="164.169797pt" viewBox="0 0 460.8 164.169797" xmlns="http://www.w3.org/2000/svg" version="1.1">
 <metadata>
  <rdf:RDF xmlns:dc="http://purl.org/dc/elements/1.1/" xmlns:cc="http://creativecommons.org/ns#" xmlns:rdf="http://www.w3.org/1999/02/22-rdf-syntax-ns#">
   <cc:Work>
    <dc:type rdf:resource="http://purl.org/dc/dcmitype/StillImage"/>
    <dc:date>2024-12-01T19:53:31.284346</dc:date>
    <dc:format>image/svg+xml</dc:format>
    <dc:creator>
     <cc:Agent>
      <dc:title>Matplotlib v3.7.4, https://matplotlib.org/</dc:title>
     </cc:Agent>
    </dc:creator>
   </cc:Work>
  </rdf:RDF>
 </metadata>
 <defs>
  <style type="text/css">*{stroke-linejoin: round; stroke-linecap: butt}</style>
 </defs>
 <g id="figure_1">
  <g id="patch_1">
   <path d="M 0 164.169797 
L 460.8 164.169797 
L 460.8 0 
L 0 0 
z
" style="fill: #ffffff"/>
  </g>
  <g id="patch_2">
   <path d="M 7.2 156.969797 
L 138.494118 156.969797 
L 138.494118 25.67568 
L 7.2 25.67568 
z
" style="fill: #ffffff"/>
  </g>
  <g id="axes_1">
   <g id="patch_3">
    <path d="M 24.812327 121.059869 
Q 29.907674 115.01439 34.49865 109.567333 
" clip-path="url(#p29b3e59b86)" style="fill: none; stroke: #000000; stroke-width: 0.7; stroke-linecap: round"/>
    <path d="M 31.623664 110.806066 
L 34.49865 109.567333 
L 33.764645 112.610561 
z
" clip-path="url(#p29b3e59b86)" style="stroke: #000000; stroke-width: 0.7; stroke-linecap: round"/>
   </g>
   <g id="Path3DCollection_1"/>
   <g id="line2d_1">
    <path d="M 24.812327 121.059869 
L 74.621304 125.751996 
L 90.461299 98.340313 
L 40.652323 93.648186 
L 24.812327 121.059869 
" clip-path="url(#p29b3e59b86)" style="fill: none; stroke: #0000ff; stroke-width: 1.5; stroke-linecap: round"/>
   </g>
   <g id="line2d_2">
    <path d="M 24.812327 121.059869 
L 58.781308 80.756675 
L 108.590284 85.448801 
L 74.621304 125.751996 
L 24.812327 121.059869 
" clip-path="url(#p29b3e59b86)" style="fill: none; stroke: #0000ff; stroke-width: 1.5; stroke-linecap: round"/>
   </g>
   <g id="line2d_3">
    <path d="M 24.812327 121.059869 
L 40.652323 93.648186 
L 74.621304 53.344992 
L 58.781308 80.756675 
L 24.812327 121.059869 
" clip-path="url(#p29b3e59b86)" style="fill: none; stroke: #0000ff; stroke-width: 1.5; stroke-linecap: round"/>
   </g>
   <g id="line2d_4">
    <path d="M 58.781308 80.756675 
L 74.621304 53.344992 
L 124.43028 58.037118 
L 108.590284 85.448801 
L 58.781308 80.756675 
" clip-path="url(#p29b3e59b86)" style="fill: none; stroke: #0000ff; stroke-width: 1.5; stroke-linecap: round"/>
   </g>
   <g id="line2d_5">
    <path d="M 74.621304 125.751996 
L 108.590284 85.448801 
L 124.43028 58.037118 
L 90.461299 98.340313 
L 74.621304 125.751996 
" clip-path="url(#p29b3e59b86)" style="fill: none; stroke: #0000ff; stroke-width: 1.5; stroke-linecap: round"/>
   </g>
   <g id="line2d_6">
    <path d="M 40.652323 93.648186 
L 90.461299 98.340313 
L 124.43028 58.037118 
L 74.621304 53.344992 
L 40.652323 93.648186 
" clip-path="url(#p29b3e59b86)" style="fill: none; stroke: #0000ff; stroke-width: 1.5; stroke-linecap: round"/>
   </g>
   <g id="patch_4">
    <path d="M 24.812327 121.059869 
Q 32.283674 121.763688 38.975846 122.394107 
" clip-path="url(#p29b3e59b86)" style="fill: none; stroke: #000000; stroke-width: 0.7; stroke-linecap: round"/>
    <path d="M 36.31949 120.737674 
L 38.975846 122.394107 
L 36.056886 123.525332 
z
" clip-path="url(#p29b3e59b86)" style="stroke: #000000; stroke-width: 0.7; stroke-linecap: round"/>
   </g>
   <g id="Path3DCollection_2"/>
   <g id="text_1">
    <!-- $\vec{a}_1$ -->
    <g transform="translate(37.645469 125.131801) scale(0.1 -0.1)">
     <defs>
      <path id="STIXGeneral-Regular-20d7" d="M -109 4186 
L -954 3507 
L -1069 3558 
Q -755 3821 -755 3917 
Q -755 4013 -1069 4013 
L -2899 4013 
L -2899 4358 
L -1069 4358 
Q -755 4358 -755 4454 
Q -755 4474 -768 4496 
Q -781 4518 -816 4553 
Q -851 4589 -880 4621 
Q -909 4653 -973 4713 
Q -1037 4774 -1075 4813 
L -960 4864 
L -109 4186 
z
" transform="scale(0.015625)"/>
      <path id="STIXGeneral-Italic-61" d="M 2963 710 
L 3046 640 
Q 2688 205 2518 70 
Q 2349 -64 2157 -64 
Q 1901 -64 1901 198 
Q 1901 358 2048 934 
Q 1690 397 1389 163 
Q 1088 -70 749 -70 
Q 467 -70 288 125 
Q 109 320 109 672 
Q 109 1158 387 1664 
Q 666 2170 1094 2496 
Q 1523 2822 1939 2822 
Q 2368 2822 2451 2451 
L 2522 2758 
L 2541 2778 
L 2931 2822 
L 2976 2803 
Q 2970 2778 2938 2669 
Q 2368 595 2368 346 
Q 2368 262 2458 262 
Q 2554 262 2790 525 
L 2963 710 
z
M 2336 2310 
Q 2336 2477 2240 2579 
Q 2144 2682 1978 2682 
Q 1542 2682 1139 2093 
Q 928 1779 787 1395 
Q 646 1011 646 717 
Q 646 243 1030 243 
Q 1408 243 1843 870 
Q 2336 1581 2336 2310 
z
" transform="scale(0.015625)"/>
      <path id="STIXGeneral-Regular-31" d="M 2522 0 
L 755 0 
L 755 96 
Q 1107 115 1235 227 
Q 1363 339 1363 608 
L 1363 3482 
Q 1363 3795 1171 3795 
Q 1082 3795 883 3718 
L 710 3654 
L 710 3744 
L 1856 4326 
L 1914 4307 
L 1914 486 
Q 1914 275 2042 185 
Q 2170 96 2522 96 
L 2522 0 
z
" transform="scale(0.015625)"/>
     </defs>
     <use xlink:href="#STIXGeneral-Regular-20d7" transform="translate(54.821873 2)"/>
     <use xlink:href="#STIXGeneral-Italic-61" transform="translate(0 0.203125)"/>
     <use xlink:href="#STIXGeneral-Regular-31" transform="translate(51.643272 -13.025) scale(0.7)"/>
    </g>
   </g>
   <g id="text_2">
    <!-- $\vec{a}_2$ -->
    <g transform="translate(32.10147 109.383438) scale(0.1 -0.1)">
     <defs>
      <path id="STIXGeneral-Regular-32" d="M 3034 877 
L 2688 0 
L 186 0 
L 186 77 
L 1325 1286 
Q 1773 1754 1965 2144 
Q 2157 2534 2157 2950 
Q 2157 3379 1920 3616 
Q 1683 3853 1267 3853 
Q 922 3853 720 3673 
Q 518 3494 326 3021 
L 192 3053 
Q 301 3648 630 3987 
Q 960 4326 1523 4326 
Q 2054 4326 2380 4006 
Q 2707 3686 2707 3200 
Q 2707 2477 1888 1613 
L 832 486 
L 2330 486 
Q 2541 486 2665 569 
Q 2790 653 2944 915 
L 3034 877 
z
" transform="scale(0.015625)"/>
     </defs>
     <use xlink:href="#STIXGeneral-Regular-20d7" transform="translate(54.821873 2)"/>
     <use xlink:href="#STIXGeneral-Italic-61" transform="translate(0 0.203125)"/>
     <use xlink:href="#STIXGeneral-Regular-32" transform="translate(51.643272 -13.025) scale(0.7)"/>
    </g>
   </g>
   <g id="text_3">
    <!-- $\vec{a}_3$ -->
    <g transform="translate(25.756326 113.945468) scale(0.1 -0.1)">
     <defs>
      <path id="STIXGeneral-Regular-33" d="M 390 3264 
L 288 3290 
Q 435 3770 748 4048 
Q 1062 4326 1542 4326 
Q 1990 4326 2265 4083 
Q 2541 3840 2541 3450 
Q 2541 2925 1946 2566 
Q 2298 2413 2477 2227 
Q 2758 1914 2758 1402 
Q 2758 890 2464 506 
Q 2246 211 1840 60 
Q 1434 -90 979 -90 
Q 262 -90 262 275 
Q 262 378 339 442 
Q 416 506 525 506 
Q 685 506 915 339 
Q 1197 141 1466 141 
Q 1818 141 2058 425 
Q 2298 710 2298 1120 
Q 2298 1856 1632 2048 
Q 1434 2112 979 2112 
L 979 2202 
Q 1338 2323 1517 2432 
Q 2035 2726 2035 3290 
Q 2035 3610 1852 3776 
Q 1670 3942 1344 3942 
Q 768 3942 390 3264 
z
" transform="scale(0.015625)"/>
     </defs>
     <use xlink:href="#STIXGeneral-Regular-20d7" transform="translate(54.821873 2)"/>
     <use xlink:href="#STIXGeneral-Italic-61" transform="translate(0 0.203125)"/>
     <use xlink:href="#STIXGeneral-Regular-33" transform="translate(51.643272 -13.025) scale(0.7)"/>
    </g>
   </g>
   <g id="patch_5">
    <path d="M 24.812327 121.059869 
Q 27.188327 116.948117 29.172757 113.513988 
" clip-path="url(#p29b3e59b86)" style="fill: none; stroke: #000000; stroke-width: 0.7; stroke-linecap: round"/>
    <path d="M 26.559668 115.237869 
L 29.172757 113.513988 
L 28.984009 116.638788 
z
" clip-path="url(#p29b3e59b86)" style="stroke: #000000; stroke-width: 0.7; stroke-linecap: round"/>
   </g>
   <g id="Line3DCollection_1">
    <path d="M 24.812327 121.059869 
L 37.264571 113.182025 
" clip-path="url(#p29b3e59b86)" style="fill: none; stroke: #5ab4bd; stroke-opacity: 0.7"/>
    <path d="M 37.264571 113.182025 
L 49.716815 105.304181 
" clip-path="url(#p29b3e59b86)" style="fill: none; stroke: #324739; stroke-opacity: 0.7"/>
    <path d="M 40.652323 93.648186 
L 45.184569 99.476184 
" clip-path="url(#p29b3e59b86)" style="fill: none; stroke: #5ab4bd; stroke-opacity: 0.7"/>
    <path d="M 45.184569 99.476184 
L 49.716815 105.304181 
" clip-path="url(#p29b3e59b86)" style="fill: none; stroke: #324739; stroke-opacity: 0.7"/>
    <path d="M 74.621304 125.751996 
L 62.16906 115.528088 
" clip-path="url(#p29b3e59b86)" style="fill: none; stroke: #5ab4bd; stroke-opacity: 0.7"/>
    <path d="M 62.16906 115.528088 
L 49.716815 105.304181 
" clip-path="url(#p29b3e59b86)" style="fill: none; stroke: #324739; stroke-opacity: 0.7"/>
    <path d="M 58.781308 80.756675 
L 54.249062 93.030428 
" clip-path="url(#p29b3e59b86)" style="fill: none; stroke: #5ab4bd; stroke-opacity: 0.7"/>
    <path d="M 54.249062 93.030428 
L 49.716815 105.304181 
" clip-path="url(#p29b3e59b86)" style="fill: none; stroke: #324739; stroke-opacity: 0.7"/>
   </g>
   <g id="Path3DCollection_3">
    <path d="M 58.781308 84.292208 
C 59.718942 84.292208 60.6183 83.919682 61.281308 83.256675 
C 61.944316 82.593667 62.316842 81.694309 62.316842 80.756675 
C 62.316842 79.81904 61.944316 78.919682 61.281308 78.256675 
C 60.6183 77.593667 59.718942 77.221141 58.781308 77.221141 
C 57.843673 77.221141 56.944316 77.593667 56.281308 78.256675 
C 55.6183 78.919682 55.245774 79.81904 55.245774 80.756675 
C 55.245774 81.694309 55.6183 82.593667 56.281308 83.256675 
C 56.944316 83.919682 57.843673 84.292208 58.781308 84.292208 
z
" clip-path="url(#p29b3e59b86)" style="fill: #5ab4bd; stroke: #5ab4bd"/>
    <path d="M 24.812327 124.595403 
C 25.749962 124.595403 26.64932 124.222877 27.312327 123.559869 
C 27.975335 122.896861 28.347861 121.997504 28.347861 121.059869 
C 28.347861 120.122234 27.975335 119.222877 27.312327 118.559869 
C 26.64932 117.896861 25.749962 117.524335 24.812327 117.524335 
C 23.874693 117.524335 22.975335 117.896861 22.312327 118.559869 
C 21.64932 119.222877 21.276793 120.122234 21.276793 121.059869 
C 21.276793 121.997504 21.64932 122.896861 22.312327 123.559869 
C 22.975335 124.222877 23.874693 124.595403 24.812327 124.595403 
z
" clip-path="url(#p29b3e59b86)" style="fill: #5ab4bd; stroke: #5ab4bd"/>
    <path d="M 108.590284 88.984335 
C 109.527919 88.984335 110.427277 88.611809 111.090284 87.948801 
C 111.753292 87.285793 112.125818 86.386436 112.125818 85.448801 
C 112.125818 84.511167 111.753292 83.611809 111.090284 82.948801 
C 110.427277 82.285793 109.527919 81.913267 108.590284 81.913267 
C 107.65265 81.913267 106.753292 82.285793 106.090284 82.948801 
C 105.427277 83.611809 105.05475 84.511167 105.05475 85.448801 
C 105.05475 86.386436 105.427277 87.285793 106.090284 87.948801 
C 106.753292 88.611809 107.65265 88.984335 108.590284 88.984335 
z
" clip-path="url(#p29b3e59b86)" style="fill: #5ab4bd; stroke: #5ab4bd"/>
    <path d="M 49.716815 108.839715 
C 50.65445 108.839715 51.553808 108.467189 52.216815 107.804181 
C 52.879823 107.141174 53.252349 106.241816 53.252349 105.304181 
C 53.252349 104.366547 52.879823 103.467189 52.216815 102.804181 
C 51.553808 102.141174 50.65445 101.768647 49.716815 101.768647 
C 48.779181 101.768647 47.879823 102.141174 47.216815 102.804181 
C 46.553808 103.467189 46.181282 104.366547 46.181282 105.304181 
C 46.181282 106.241816 46.553808 107.141174 47.216815 107.804181 
C 47.879823 108.467189 48.779181 108.839715 49.716815 108.839715 
z
" clip-path="url(#p29b3e59b86)" style="fill: #324739; stroke: #324739"/>
    <path d="M 74.621304 129.287529 
C 75.558938 129.287529 76.458296 128.915003 77.121304 128.251996 
C 77.784311 127.588988 78.156838 126.68963 78.156838 125.751996 
C 78.156838 124.814361 77.784311 123.915003 77.121304 123.251996 
C 76.458296 122.588988 75.558938 122.216462 74.621304 122.216462 
C 73.683669 122.216462 72.784311 122.588988 72.121304 123.251996 
C 71.458296 123.915003 71.08577 124.814361 71.08577 125.751996 
C 71.08577 126.68963 71.458296 127.588988 72.121304 128.251996 
C 72.784311 128.915003 73.683669 129.287529 74.621304 129.287529 
z
" clip-path="url(#p29b3e59b86)" style="fill: #5ab4bd; stroke: #5ab4bd"/>
    <path d="M 74.621304 56.880526 
C 75.558938 56.880526 76.458296 56.508 77.121304 55.844992 
C 77.784311 55.181984 78.156838 54.282626 78.156838 53.344992 
C 78.156838 52.407357 77.784311 51.508 77.121304 50.844992 
C 76.458296 50.181984 75.558938 49.809458 74.621304 49.809458 
C 73.683669 49.809458 72.784311 50.181984 72.121304 50.844992 
C 71.458296 51.508 71.08577 52.407357 71.08577 53.344992 
C 71.08577 54.282626 71.458296 55.181984 72.121304 55.844992 
C 72.784311 56.508 73.683669 56.880526 74.621304 56.880526 
z
" clip-path="url(#p29b3e59b86)" style="fill: #5ab4bd; stroke: #5ab4bd"/>
    <path d="M 40.652323 97.18372 
C 41.589958 97.18372 42.489315 96.811194 43.152323 96.148186 
C 43.815331 95.485179 44.187857 94.585821 44.187857 93.648186 
C 44.187857 92.710552 43.815331 91.811194 43.152323 91.148186 
C 42.489315 90.485179 41.589958 90.112652 40.652323 90.112652 
C 39.714689 90.112652 38.815331 90.485179 38.152323 91.148186 
C 37.489315 91.811194 37.116789 92.710552 37.116789 93.648186 
C 37.116789 94.585821 37.489315 95.485179 38.152323 96.148186 
C 38.815331 96.811194 39.714689 97.18372 40.652323 97.18372 
z
" clip-path="url(#p29b3e59b86)" style="fill: #5ab4bd; stroke: #5ab4bd"/>
    <path d="M 124.43028 61.572652 
C 125.367915 61.572652 126.267272 61.200126 126.93028 60.537118 
C 127.593288 59.874111 127.965814 58.974753 127.965814 58.037118 
C 127.965814 57.099484 127.593288 56.200126 126.93028 55.537118 
C 126.267272 54.874111 125.367915 54.501584 124.43028 54.501584 
C 123.492645 54.501584 122.593288 54.874111 121.93028 55.537118 
C 121.267272 56.200126 120.894746 57.099484 120.894746 58.037118 
C 120.894746 58.974753 121.267272 59.874111 121.93028 60.537118 
C 122.593288 61.200126 123.492645 61.572652 124.43028 61.572652 
z
" clip-path="url(#p29b3e59b86)" style="fill: #5ab4bd; stroke: #5ab4bd"/>
    <path d="M 90.461299 101.875847 
C 91.398934 101.875847 92.298292 101.503321 92.961299 100.840313 
C 93.624307 100.177305 93.996833 99.277947 93.996833 98.340313 
C 93.996833 97.402678 93.624307 96.503321 92.961299 95.840313 
C 92.298292 95.177305 91.398934 94.804779 90.461299 94.804779 
C 89.523665 94.804779 88.624307 95.177305 87.961299 95.840313 
C 87.298292 96.503321 86.925766 97.402678 86.925766 98.340313 
C 86.925766 99.277947 87.298292 100.177305 87.961299 100.840313 
C 88.624307 101.503321 89.523665 101.875847 90.461299 101.875847 
z
" clip-path="url(#p29b3e59b86)" style="fill: #5ab4bd; stroke: #5ab4bd"/>
   </g>
   <g id="legend_1">
    <g id="line2d_7">
     <path d="M 14.697 13.4475 
L 23.027 13.4475 
L 31.357 13.4475 
" style="fill: none; stroke: #0000ff; stroke-width: 1.5; stroke-linecap: round"/>
    </g>
    <g id="text_4">
     <!-- original -->
     <g transform="translate(38.021 16.363) scale(0.0833 -0.0833)">
      <defs>
       <path id="STIXGeneral-Regular-6f" d="M 3008 1478 
Q 3008 806 2608 371 
Q 2208 -64 1568 -64 
Q 979 -64 582 368 
Q 186 800 186 1459 
Q 186 2125 582 2534 
Q 979 2944 1626 2944 
Q 2221 2944 2614 2537 
Q 3008 2131 3008 1478 
z
M 2432 1306 
Q 2432 2035 2112 2445 
Q 1856 2765 1504 2765 
Q 1171 2765 966 2493 
Q 762 2221 762 1747 
Q 762 928 1101 435 
Q 1318 115 1677 115 
Q 2029 115 2230 432 
Q 2432 749 2432 1306 
z
" transform="scale(0.015625)"/>
       <path id="STIXGeneral-Regular-72" d="M 1024 2931 
L 1024 2342 
Q 1267 2688 1430 2816 
Q 1594 2944 1792 2944 
Q 1958 2944 2051 2854 
Q 2144 2765 2144 2605 
Q 2144 2470 2077 2393 
Q 2010 2317 1894 2317 
Q 1773 2317 1638 2445 
Q 1536 2541 1472 2541 
Q 1338 2541 1181 2355 
Q 1024 2170 1024 2016 
L 1024 576 
Q 1024 301 1133 205 
Q 1242 109 1568 96 
L 1568 0 
L 32 0 
L 32 96 
Q 339 154 412 224 
Q 486 294 486 538 
L 486 2138 
Q 486 2349 438 2435 
Q 390 2522 269 2522 
Q 166 2522 45 2496 
L 45 2598 
Q 448 2726 992 2944 
L 1024 2931 
z
" transform="scale(0.015625)"/>
       <path id="STIXGeneral-Regular-69" d="M 1152 4045 
Q 1152 3904 1056 3811 
Q 960 3718 819 3718 
Q 685 3718 592 3811 
Q 499 3904 499 4045 
Q 499 4179 595 4275 
Q 691 4371 826 4371 
Q 966 4371 1059 4275 
Q 1152 4179 1152 4045 
z
M 1619 0 
L 102 0 
L 102 96 
Q 435 115 521 211 
Q 608 307 608 666 
L 608 2118 
Q 608 2342 563 2432 
Q 518 2522 397 2522 
Q 243 2522 128 2490 
L 128 2592 
L 1120 2944 
L 1146 2918 
L 1146 672 
Q 1146 314 1226 218 
Q 1306 122 1619 96 
L 1619 0 
z
" transform="scale(0.015625)"/>
       <path id="STIXGeneral-Regular-67" d="M 3008 2483 
L 2477 2483 
Q 2598 2208 2598 1946 
Q 2598 1453 2265 1203 
Q 1933 954 1600 954 
Q 1530 954 1357 973 
L 1235 986 
Q 1107 947 979 812 
Q 851 678 851 582 
Q 851 435 1350 410 
L 2176 371 
Q 2528 358 2739 172 
Q 2950 -13 2950 -314 
Q 2950 -685 2566 -986 
Q 2035 -1395 1286 -1395 
Q 826 -1395 502 -1212 
Q 179 -1030 179 -774 
Q 179 -595 320 -419 
Q 461 -243 806 6 
Q 602 102 534 172 
Q 467 243 467 346 
Q 467 531 762 787 
Q 909 915 1037 1043 
Q 717 1203 579 1401 
Q 442 1600 442 1901 
Q 442 2336 752 2640 
Q 1062 2944 1510 2944 
Q 1766 2944 2022 2848 
L 2163 2797 
Q 2349 2733 2515 2733 
L 3008 2733 
L 3008 2483 
z
M 973 2163 
L 973 2144 
Q 973 1683 1155 1398 
Q 1338 1114 1632 1114 
Q 1850 1114 1978 1270 
Q 2106 1427 2106 1690 
Q 2106 2112 1914 2464 
Q 1754 2765 1446 2765 
Q 1222 2765 1097 2605 
Q 973 2445 973 2163 
z
M 2771 -410 
Q 2771 -230 2595 -163 
Q 2419 -96 1978 -96 
Q 1344 -96 941 -13 
Q 749 -243 688 -348 
Q 627 -454 627 -563 
Q 627 -774 880 -902 
Q 1133 -1030 1555 -1030 
Q 2099 -1030 2435 -860 
Q 2771 -691 2771 -410 
z
" transform="scale(0.015625)"/>
       <path id="STIXGeneral-Regular-6e" d="M 3104 0 
L 1773 0 
L 1779 96 
Q 2016 115 2096 233 
Q 2176 352 2176 672 
L 2176 1946 
Q 2176 2592 1709 2592 
Q 1549 2592 1408 2515 
Q 1267 2438 1050 2227 
L 1050 461 
Q 1050 269 1136 192 
Q 1222 115 1466 96 
L 1466 0 
L 115 0 
L 115 96 
Q 358 115 435 214 
Q 512 314 512 602 
L 512 2157 
Q 512 2394 467 2483 
Q 422 2573 288 2573 
Q 160 2573 102 2547 
L 102 2656 
Q 550 2784 979 2944 
L 1030 2925 
L 1030 2426 
L 1037 2426 
Q 1491 2944 1958 2944 
Q 2323 2944 2518 2688 
Q 2714 2432 2714 1958 
L 2714 544 
Q 2714 288 2790 205 
Q 2867 122 3104 96 
L 3104 0 
z
" transform="scale(0.015625)"/>
       <path id="STIXGeneral-Regular-61" d="M 2829 422 
L 2829 243 
Q 2586 -64 2253 -64 
Q 1888 -64 1843 403 
L 1837 403 
Q 1427 -64 909 -64 
Q 608 -64 422 112 
Q 237 288 237 602 
Q 237 1050 685 1350 
Q 992 1555 1837 1869 
L 1837 2214 
Q 1837 2502 1699 2646 
Q 1562 2790 1338 2790 
Q 1146 2790 1018 2697 
Q 890 2605 890 2477 
Q 890 2419 909 2348 
Q 928 2278 928 2208 
Q 928 2112 841 2029 
Q 755 1946 634 1946 
Q 525 1946 441 2029 
Q 358 2112 358 2240 
Q 358 2547 685 2752 
Q 986 2944 1421 2944 
Q 1939 2944 2176 2656 
Q 2291 2522 2323 2384 
Q 2355 2246 2355 1946 
L 2355 723 
Q 2355 301 2554 301 
Q 2682 301 2829 422 
z
M 1837 813 
L 1837 1715 
Q 1248 1510 1018 1293 
Q 800 1094 800 800 
Q 800 557 921 432 
Q 1043 307 1242 307 
Q 1453 307 1613 410 
Q 1747 506 1792 589 
Q 1837 672 1837 813 
z
" transform="scale(0.015625)"/>
       <path id="STIXGeneral-Regular-6c" d="M 1645 0 
L 134 0 
L 134 96 
Q 435 122 531 221 
Q 627 320 627 589 
L 627 3590 
Q 627 3821 569 3910 
Q 512 4000 358 4000 
Q 224 4000 122 3987 
L 122 4090 
Q 730 4237 1133 4371 
L 1165 4346 
L 1165 557 
Q 1165 288 1254 201 
Q 1344 115 1645 96 
L 1645 0 
z
" transform="scale(0.015625)"/>
      </defs>
      <use xlink:href="#STIXGeneral-Regular-6f"/>
      <use xlink:href="#STIXGeneral-Regular-72" x="49.999985"/>
      <use xlink:href="#STIXGeneral-Regular-69" x="83.299973"/>
      <use xlink:href="#STIXGeneral-Regular-67" x="111.09996"/>
      <use xlink:href="#STIXGeneral-Regular-69" x="161.099945"/>
      <use xlink:href="#STIXGeneral-Regular-6e" x="188.899933"/>
      <use xlink:href="#STIXGeneral-Regular-61" x="238.899918"/>
      <use xlink:href="#STIXGeneral-Regular-6c" x="283.299911"/>
     </g>
    </g>
    <g id="Path3DCollection_4">
     <defs>
      <path id="m918e1e6de1" d="M 0 3.535534 
C 0.937635 3.535534 1.836992 3.163008 2.5 2.5 
C 3.163008 1.836992 3.535534 0.937635 3.535534 0 
C 3.535534 -0.937635 3.163008 -1.836992 2.5 -2.5 
C 1.836992 -3.163008 0.937635 -3.535534 0 -3.535534 
C -0.937635 -3.535534 -1.836992 -3.163008 -2.5 -2.5 
C -3.163008 -1.836992 -3.535534 -0.937635 -3.535534 0 
C -3.535534 0.937635 -3.163008 1.836992 -2.5 2.5 
C -1.836992 3.163008 -0.937635 3.535534 0 3.535534 
z
" style="stroke: #5ab4bd"/>
     </defs>
     <g>
      <use xlink:href="#m918e1e6de1" x="88.925109" y="14.176375" style="fill: #5ab4bd; stroke: #5ab4bd"/>
     </g>
    </g>
    <g id="text_5">
     <!-- Ga -->
     <g transform="translate(103.919109 16.363) scale(0.0833 -0.0833)">
      <defs>
       <path id="STIXGeneral-Regular-47" d="M 4538 2266 
L 4538 2150 
Q 4256 2125 4173 2035 
Q 4090 1946 4090 1638 
L 4090 358 
Q 3539 -90 2464 -90 
Q 1965 -90 1507 89 
Q 1050 269 736 595 
Q 205 1152 205 2093 
Q 205 3155 890 3776 
Q 1491 4326 2419 4326 
Q 2829 4326 3270 4179 
Q 3443 4115 3552 4115 
Q 3654 4115 3731 4176 
Q 3808 4237 3840 4326 
L 3981 4326 
L 4032 2976 
L 3885 2976 
Q 3680 3475 3430 3718 
Q 3059 4070 2496 4070 
Q 1856 4070 1427 3629 
Q 934 3136 934 2074 
Q 934 1190 1395 678 
Q 1856 166 2618 166 
Q 2982 166 3225 281 
Q 3469 397 3469 557 
L 3469 1562 
Q 3469 1933 3376 2025 
Q 3283 2118 2899 2150 
L 2899 2266 
L 4538 2266 
z
" transform="scale(0.015625)"/>
      </defs>
      <use xlink:href="#STIXGeneral-Regular-47"/>
      <use xlink:href="#STIXGeneral-Regular-61" x="72.199982"/>
     </g>
    </g>
    <g id="Path3DCollection_5">
     <defs>
      <path id="me44ab3bfa4" d="M 0 3.535534 
C 0.937635 3.535534 1.836992 3.163008 2.5 2.5 
C 3.163008 1.836992 3.535534 0.937635 3.535534 0 
C 3.535534 -0.937635 3.163008 -1.836992 2.5 -2.5 
C 1.836992 -3.163008 0.937635 -3.535534 0 -3.535534 
C -0.937635 -3.535534 -1.836992 -3.163008 -2.5 -2.5 
C -3.163008 -1.836992 -3.535534 -0.937635 -3.535534 0 
C -3.535534 0.937635 -3.163008 1.836992 -2.5 2.5 
C -1.836992 3.163008 -0.937635 3.535534 0 3.535534 
z
" style="stroke: #324739"/>
     </defs>
     <g>
      <use xlink:href="#me44ab3bfa4" x="138.62267" y="14.176375" style="fill: #324739; stroke: #324739"/>
     </g>
    </g>
    <g id="text_6">
     <!-- As -->
     <g transform="translate(153.61667 16.363) scale(0.0833 -0.0833)">
      <defs>
       <path id="STIXGeneral-Regular-41" d="M 4525 0 
L 2893 0 
L 2893 122 
Q 3149 122 3245 179 
Q 3334 224 3334 333 
Q 3334 499 3213 781 
L 2950 1382 
L 1274 1382 
L 979 653 
Q 922 506 922 384 
Q 922 237 1027 179 
Q 1133 122 1370 122 
L 1370 0 
L 96 0 
L 96 122 
Q 365 147 486 316 
Q 608 486 902 1190 
L 2221 4314 
L 2349 4314 
L 3923 710 
Q 4064 378 4176 262 
Q 4288 147 4525 122 
L 4525 0 
z
M 2861 1645 
L 2118 3405 
L 1382 1645 
L 2861 1645 
z
" transform="scale(0.015625)"/>
       <path id="STIXGeneral-Regular-73" d="M 998 1926 
L 1664 1523 
Q 1984 1331 2105 1164 
Q 2227 998 2227 736 
Q 2227 416 1961 176 
Q 1696 -64 1331 -64 
Q 1030 -64 864 -6 
Q 691 51 570 51 
Q 461 51 416 -26 
L 333 -26 
L 333 979 
L 435 979 
Q 538 512 730 294 
Q 922 77 1248 77 
Q 1485 77 1632 211 
Q 1779 346 1779 550 
Q 1779 845 1440 1030 
L 1094 1222 
Q 326 1651 326 2150 
Q 326 2522 566 2730 
Q 806 2938 1210 2938 
Q 1491 2938 1638 2867 
Q 1754 2816 1818 2816 
Q 1862 2816 1920 2880 
L 1990 2880 
L 2022 2010 
L 1926 2010 
Q 1818 2445 1654 2621 
Q 1491 2797 1203 2797 
Q 986 2797 854 2688 
Q 723 2579 723 2362 
Q 723 2253 796 2128 
Q 870 2003 998 1926 
z
" transform="scale(0.015625)"/>
      </defs>
      <use xlink:href="#STIXGeneral-Regular-41"/>
      <use xlink:href="#STIXGeneral-Regular-73" x="72.199982"/>
     </g>
    </g>
   </g>
  </g>
  <g id="patch_6">
   <path d="M 164.752941 156.969797 
L 296.047059 156.969797 
L 296.047059 25.67568 
L 164.752941 25.67568 
z
" style="fill: #ffffff"/>
  </g>
  <g id="axes_2">
   <g id="patch_7">
    <path d="M 179.973914 123.36974 
Q 189.184612 121.700513 197.625231 120.170844 
" clip-path="url(#p3048f22df3)" style="fill: none; stroke: #000000; stroke-width: 0.7; stroke-linecap: round"/>
    <path d="M 194.620458 119.292586 
L 197.625231 120.170844 
L 195.11976 122.047708 
z
" clip-path="url(#p3048f22df3)" style="stroke: #000000; stroke-width: 0.7; stroke-linecap: round"/>
   </g>
   <g id="Path3DCollection_6"/>
   <g id="line2d_8">
    <path d="M 179.973914 123.36974 
L 222.969918 139.262435 
L 222.969918 66.855432 
L 179.973914 50.962737 
L 179.973914 123.36974 
" clip-path="url(#p3048f22df3)" style="fill: none; stroke: #ff0000; stroke-width: 1.5; stroke-linecap: round"/>
   </g>
   <g id="line2d_9">
    <path d="M 179.973914 123.36974 
L 241.378572 112.241556 
L 284.374576 128.134251 
L 222.969918 139.262435 
L 179.973914 123.36974 
" clip-path="url(#p3048f22df3)" style="fill: none; stroke: #ff0000; stroke-width: 1.5; stroke-linecap: round"/>
   </g>
   <g id="line2d_10">
    <path d="M 179.973914 123.36974 
L 179.973914 50.962737 
L 241.378572 39.834552 
L 241.378572 112.241556 
L 179.973914 123.36974 
" clip-path="url(#p3048f22df3)" style="fill: none; stroke: #ff0000; stroke-width: 1.5; stroke-linecap: round"/>
   </g>
   <g id="line2d_11">
    <path d="M 241.378572 112.241556 
L 241.378572 39.834552 
L 284.374576 55.727247 
L 284.374576 128.134251 
L 241.378572 112.241556 
" clip-path="url(#p3048f22df3)" style="fill: none; stroke: #ff0000; stroke-width: 1.5; stroke-linecap: round"/>
   </g>
   <g id="line2d_12">
    <path d="M 222.969918 139.262435 
L 284.374576 128.134251 
L 284.374576 55.727247 
L 222.969918 66.855432 
L 222.969918 139.262435 
" clip-path="url(#p3048f22df3)" style="fill: none; stroke: #ff0000; stroke-width: 1.5; stroke-linecap: round"/>
   </g>
   <g id="line2d_13">
    <path d="M 179.973914 50.962737 
L 222.969918 66.855432 
L 284.374576 55.727247 
L 241.378572 39.834552 
L 179.973914 50.962737 
" clip-path="url(#p3048f22df3)" style="fill: none; stroke: #ff0000; stroke-width: 1.5; stroke-linecap: round"/>
   </g>
   <g id="patch_8">
    <path d="M 179.973914 123.36974 
Q 179.973914 112.50869 179.973914 102.430263 
" clip-path="url(#p3048f22df3)" style="fill: none; stroke: #000000; stroke-width: 0.7; stroke-linecap: round"/>
    <path d="M 178.573914 105.230263 
L 179.973914 102.430263 
L 181.373914 105.230263 
z
" clip-path="url(#p3048f22df3)" style="stroke: #000000; stroke-width: 0.7; stroke-linecap: round"/>
   </g>
   <g id="Path3DCollection_7"/>
   <g id="text_7">
    <!-- $\vec{a}_1$ -->
    <g transform="translate(190.422515 131.361871) scale(0.1 -0.1)">
     <use xlink:href="#STIXGeneral-Regular-20d7" transform="translate(54.821873 2)"/>
     <use xlink:href="#STIXGeneral-Italic-61" transform="translate(0 0.203125)"/>
     <use xlink:href="#STIXGeneral-Regular-31" transform="translate(51.643272 -13.025) scale(0.7)"/>
    </g>
   </g>
   <g id="text_8">
    <!-- $\vec{a}_2$ -->
    <g transform="translate(196.865544 121.904563) scale(0.1 -0.1)">
     <use xlink:href="#STIXGeneral-Regular-20d7" transform="translate(54.821873 2)"/>
     <use xlink:href="#STIXGeneral-Italic-61" transform="translate(0 0.203125)"/>
     <use xlink:href="#STIXGeneral-Regular-32" transform="translate(51.643272 -13.025) scale(0.7)"/>
    </g>
   </g>
   <g id="text_9">
    <!-- $\vec{a}_3$ -->
    <g transform="translate(175.373914 100.506977) scale(0.1 -0.1)">
     <use xlink:href="#STIXGeneral-Regular-20d7" transform="translate(54.821873 2)"/>
     <use xlink:href="#STIXGeneral-Italic-61" transform="translate(0 0.203125)"/>
     <use xlink:href="#STIXGeneral-Regular-33" transform="translate(51.643272 -13.025) scale(0.7)"/>
    </g>
   </g>
   <g id="patch_9">
    <path d="M 179.973914 123.36974 
Q 186.423314 125.753645 192.138634 127.866209 
" clip-path="url(#p3048f22df3)" style="fill: none; stroke: #000000; stroke-width: 0.7; stroke-linecap: round"/>
    <path d="M 189.997694 125.582271 
L 192.138634 127.866209 
L 189.026919 128.208599 
z
" clip-path="url(#p3048f22df3)" style="stroke: #000000; stroke-width: 0.7; stroke-linecap: round"/>
   </g>
   <g id="Line3DCollection_2">
    <path d="M 201.471916 95.112586 
L 214.521999 86.657274 
" clip-path="url(#p3048f22df3)" style="fill: none; stroke: #5ab4bd; stroke-opacity: 0.7"/>
    <path d="M 214.521999 86.657274 
L 227.572081 78.201963 
" clip-path="url(#p3048f22df3)" style="fill: none; stroke: #324739; stroke-opacity: 0.7"/>
    <path d="M 262.876574 83.984401 
L 249.826491 74.337962 
" clip-path="url(#p3048f22df3)" style="fill: none; stroke: #5ab4bd; stroke-opacity: 0.7"/>
    <path d="M 249.826491 74.337962 
L 236.776408 64.691523 
" clip-path="url(#p3048f22df3)" style="fill: none; stroke: #324739; stroke-opacity: 0.7"/>
    <path d="M 201.471916 95.112586 
L 203.772997 100.785852 
" clip-path="url(#p3048f22df3)" style="fill: none; stroke: #5ab4bd; stroke-opacity: 0.7"/>
    <path d="M 203.772997 100.785852 
L 206.074079 106.459117 
" clip-path="url(#p3048f22df3)" style="fill: none; stroke: #324739; stroke-opacity: 0.7"/>
    <path d="M 222.969918 66.855432 
L 225.271 72.528697 
" clip-path="url(#p3048f22df3)" style="fill: none; stroke: #5ab4bd; stroke-opacity: 0.7"/>
    <path d="M 225.271 72.528697 
L 227.572081 78.201963 
" clip-path="url(#p3048f22df3)" style="fill: none; stroke: #324739; stroke-opacity: 0.7"/>
    <path d="M 232.174245 125.751996 
L 245.224328 117.296684 
" clip-path="url(#p3048f22df3)" style="fill: none; stroke: #5ab4bd; stroke-opacity: 0.7"/>
    <path d="M 245.224328 117.296684 
L 258.27441 108.841372 
" clip-path="url(#p3048f22df3)" style="fill: none; stroke: #324739; stroke-opacity: 0.7"/>
    <path d="M 210.676243 81.602146 
L 208.375161 94.030632 
" clip-path="url(#p3048f22df3)" style="fill: none; stroke: #5ab4bd; stroke-opacity: 0.7"/>
    <path d="M 208.375161 94.030632 
L 206.074079 106.459117 
" clip-path="url(#p3048f22df3)" style="fill: none; stroke: #324739; stroke-opacity: 0.7"/>
    <path d="M 232.174245 53.344992 
L 234.475327 59.018257 
" clip-path="url(#p3048f22df3)" style="fill: none; stroke: #5ab4bd; stroke-opacity: 0.7"/>
    <path d="M 234.475327 59.018257 
L 236.776408 64.691523 
" clip-path="url(#p3048f22df3)" style="fill: none; stroke: #324739; stroke-opacity: 0.7"/>
    <path d="M 241.378572 39.834552 
L 239.07749 52.263037 
" clip-path="url(#p3048f22df3)" style="fill: none; stroke: #5ab4bd; stroke-opacity: 0.7"/>
    <path d="M 239.07749 52.263037 
L 236.776408 64.691523 
" clip-path="url(#p3048f22df3)" style="fill: none; stroke: #324739; stroke-opacity: 0.7"/>
    <path d="M 284.374576 128.134251 
L 271.324493 118.487811 
" clip-path="url(#p3048f22df3)" style="fill: none; stroke: #5ab4bd; stroke-opacity: 0.7"/>
    <path d="M 271.324493 118.487811 
L 258.27441 108.841372 
" clip-path="url(#p3048f22df3)" style="fill: none; stroke: #324739; stroke-opacity: 0.7"/>
    <path d="M 210.676243 81.602146 
L 223.726325 73.146834 
" clip-path="url(#p3048f22df3)" style="fill: none; stroke: #5ab4bd; stroke-opacity: 0.7"/>
    <path d="M 223.726325 73.146834 
L 236.776408 64.691523 
" clip-path="url(#p3048f22df3)" style="fill: none; stroke: #324739; stroke-opacity: 0.7"/>
    <path d="M 262.876574 83.984401 
L 260.575492 96.412887 
" clip-path="url(#p3048f22df3)" style="fill: none; stroke: #5ab4bd; stroke-opacity: 0.7"/>
    <path d="M 260.575492 96.412887 
L 258.27441 108.841372 
" clip-path="url(#p3048f22df3)" style="fill: none; stroke: #324739; stroke-opacity: 0.7"/>
    <path d="M 253.672247 97.494841 
L 240.622164 87.848402 
" clip-path="url(#p3048f22df3)" style="fill: none; stroke: #5ab4bd; stroke-opacity: 0.7"/>
    <path d="M 240.622164 87.848402 
L 227.572081 78.201963 
" clip-path="url(#p3048f22df3)" style="fill: none; stroke: #324739; stroke-opacity: 0.7"/>
    <path d="M 232.174245 53.344992 
L 229.873163 65.773477 
" clip-path="url(#p3048f22df3)" style="fill: none; stroke: #5ab4bd; stroke-opacity: 0.7"/>
    <path d="M 229.873163 65.773477 
L 227.572081 78.201963 
" clip-path="url(#p3048f22df3)" style="fill: none; stroke: #324739; stroke-opacity: 0.7"/>
    <path d="M 179.973914 123.36974 
L 193.023996 114.914429 
" clip-path="url(#p3048f22df3)" style="fill: none; stroke: #5ab4bd; stroke-opacity: 0.7"/>
    <path d="M 193.023996 114.914429 
L 206.074079 106.459117 
" clip-path="url(#p3048f22df3)" style="fill: none; stroke: #324739; stroke-opacity: 0.7"/>
    <path d="M 232.174245 125.751996 
L 219.124162 116.105556 
" clip-path="url(#p3048f22df3)" style="fill: none; stroke: #5ab4bd; stroke-opacity: 0.7"/>
    <path d="M 219.124162 116.105556 
L 206.074079 106.459117 
" clip-path="url(#p3048f22df3)" style="fill: none; stroke: #324739; stroke-opacity: 0.7"/>
    <path d="M 253.672247 97.494841 
L 255.973329 103.168107 
" clip-path="url(#p3048f22df3)" style="fill: none; stroke: #5ab4bd; stroke-opacity: 0.7"/>
    <path d="M 255.973329 103.168107 
L 258.27441 108.841372 
" clip-path="url(#p3048f22df3)" style="fill: none; stroke: #324739; stroke-opacity: 0.7"/>
   </g>
   <g id="Path3DCollection_8">
    <path d="M 241.378572 115.77709 
C 242.316206 115.77709 243.215564 115.404563 243.878572 114.741556 
C 244.541579 114.078548 244.914106 113.17919 244.914106 112.241556 
C 244.914106 111.303921 244.541579 110.404563 243.878572 109.741556 
C 243.215564 109.078548 242.316206 108.706022 241.378572 108.706022 
C 240.440937 108.706022 239.541579 109.078548 238.878572 109.741556 
C 238.215564 110.404563 237.843038 111.303921 237.843038 112.241556 
C 237.843038 113.17919 238.215564 114.078548 238.878572 114.741556 
C 239.541579 115.404563 240.440937 115.77709 241.378572 115.77709 
z
" clip-path="url(#p3048f22df3)" style="fill: #5ab4bd; stroke: #5ab4bd"/>
    <path d="M 241.378572 43.370086 
C 242.316206 43.370086 243.215564 42.99756 243.878572 42.334552 
C 244.541579 41.671544 244.914106 40.772186 244.914106 39.834552 
C 244.914106 38.896917 244.541579 37.99756 243.878572 37.334552 
C 243.215564 36.671544 242.316206 36.299018 241.378572 36.299018 
C 240.440937 36.299018 239.541579 36.671544 238.878572 37.334552 
C 238.215564 37.99756 237.843038 38.896917 237.843038 39.834552 
C 237.843038 40.772186 238.215564 41.671544 238.878572 42.334552 
C 239.541579 42.99756 240.440937 43.370086 241.378572 43.370086 
z
" clip-path="url(#p3048f22df3)" style="fill: #5ab4bd; stroke: #5ab4bd"/>
    <path d="M 210.676243 85.13768 
C 211.613877 85.13768 212.513235 84.765154 213.176243 84.102146 
C 213.83925 83.439138 214.211776 82.539781 214.211776 81.602146 
C 214.211776 80.664512 213.83925 79.765154 213.176243 79.102146 
C 212.513235 78.439138 211.613877 78.066612 210.676243 78.066612 
C 209.738608 78.066612 208.83925 78.439138 208.176243 79.102146 
C 207.513235 79.765154 207.140709 80.664512 207.140709 81.602146 
C 207.140709 82.539781 207.513235 83.439138 208.176243 84.102146 
C 208.83925 84.765154 209.738608 85.13768 210.676243 85.13768 
z
" clip-path="url(#p3048f22df3)" style="fill: #5ab4bd; stroke: #5ab4bd"/>
    <path d="M 262.876574 87.519935 
C 263.814208 87.519935 264.713566 87.147409 265.376574 86.484401 
C 266.039582 85.821394 266.412108 84.922036 266.412108 83.984401 
C 266.412108 83.046767 266.039582 82.147409 265.376574 81.484401 
C 264.713566 80.821394 263.814208 80.448867 262.876574 80.448867 
C 261.938939 80.448867 261.039582 80.821394 260.376574 81.484401 
C 259.713566 82.147409 259.34104 83.046767 259.34104 83.984401 
C 259.34104 84.922036 259.713566 85.821394 260.376574 86.484401 
C 261.039582 87.147409 261.938939 87.519935 262.876574 87.519935 
z
" clip-path="url(#p3048f22df3)" style="fill: #5ab4bd; stroke: #5ab4bd"/>
    <path d="M 236.776408 68.227057 
C 237.714043 68.227057 238.6134 67.854531 239.276408 67.191523 
C 239.939416 66.528515 240.311942 65.629157 240.311942 64.691523 
C 240.311942 63.753888 239.939416 62.854531 239.276408 62.191523 
C 238.6134 61.528515 237.714043 61.155989 236.776408 61.155989 
C 235.838774 61.155989 234.939416 61.528515 234.276408 62.191523 
C 233.6134 62.854531 233.240874 63.753888 233.240874 64.691523 
C 233.240874 65.629157 233.6134 66.528515 234.276408 67.191523 
C 234.939416 67.854531 235.838774 68.227057 236.776408 68.227057 
z
" clip-path="url(#p3048f22df3)" style="fill: #324739; stroke: #324739"/>
    <path d="M 179.973914 126.905274 
C 180.911548 126.905274 181.810906 126.532748 182.473914 125.86974 
C 183.136921 125.206733 183.509447 124.307375 183.509447 123.36974 
C 183.509447 122.432106 183.136921 121.532748 182.473914 120.86974 
C 181.810906 120.206733 180.911548 119.834207 179.973914 119.834207 
C 179.036279 119.834207 178.136921 120.206733 177.473914 120.86974 
C 176.810906 121.532748 176.43838 122.432106 176.43838 123.36974 
C 176.43838 124.307375 176.810906 125.206733 177.473914 125.86974 
C 178.136921 126.532748 179.036279 126.905274 179.973914 126.905274 
z
" clip-path="url(#p3048f22df3)" style="fill: #5ab4bd; stroke: #5ab4bd"/>
    <path d="M 232.174245 129.287529 
C 233.111879 129.287529 234.011237 128.915003 234.674245 128.251996 
C 235.337253 127.588988 235.709779 126.68963 235.709779 125.751996 
C 235.709779 124.814361 235.337253 123.915003 234.674245 123.251996 
C 234.011237 122.588988 233.111879 122.216462 232.174245 122.216462 
C 231.23661 122.216462 230.337253 122.588988 229.674245 123.251996 
C 229.011237 123.915003 228.638711 124.814361 228.638711 125.751996 
C 228.638711 126.68963 229.011237 127.588988 229.674245 128.251996 
C 230.337253 128.915003 231.23661 129.287529 232.174245 129.287529 
z
" clip-path="url(#p3048f22df3)" style="fill: #5ab4bd; stroke: #5ab4bd"/>
    <path d="M 206.074079 109.994651 
C 207.011714 109.994651 207.911071 109.622125 208.574079 108.959117 
C 209.237087 108.296109 209.609613 107.396752 209.609613 106.459117 
C 209.609613 105.521483 209.237087 104.622125 208.574079 103.959117 
C 207.911071 103.296109 207.011714 102.923583 206.074079 102.923583 
C 205.136445 102.923583 204.237087 103.296109 203.574079 103.959117 
C 202.911071 104.622125 202.538545 105.521483 202.538545 106.459117 
C 202.538545 107.396752 202.911071 108.296109 203.574079 108.959117 
C 204.237087 109.622125 205.136445 109.994651 206.074079 109.994651 
z
" clip-path="url(#p3048f22df3)" style="fill: #324739; stroke: #324739"/>
    <path d="M 284.374576 131.669785 
C 285.312211 131.669785 286.211568 131.297258 286.874576 130.634251 
C 287.537584 129.971243 287.91011 129.071885 287.91011 128.134251 
C 287.91011 127.196616 287.537584 126.297258 286.874576 125.634251 
C 286.211568 124.971243 285.312211 124.598717 284.374576 124.598717 
C 283.436942 124.598717 282.537584 124.971243 281.874576 125.634251 
C 281.211568 126.297258 280.839042 127.196616 280.839042 128.134251 
C 280.839042 129.071885 281.211568 129.971243 281.874576 130.634251 
C 282.537584 131.297258 283.436942 131.669785 284.374576 131.669785 
z
" clip-path="url(#p3048f22df3)" style="fill: #5ab4bd; stroke: #5ab4bd"/>
    <path d="M 258.27441 112.376906 
C 259.212045 112.376906 260.111403 112.00438 260.77441 111.341372 
C 261.437418 110.678364 261.809944 109.779007 261.809944 108.841372 
C 261.809944 107.903738 261.437418 107.00438 260.77441 106.341372 
C 260.111403 105.678364 259.212045 105.305838 258.27441 105.305838 
C 257.336776 105.305838 256.437418 105.678364 255.77441 106.341372 
C 255.111403 107.00438 254.738877 107.903738 254.738877 108.841372 
C 254.738877 109.779007 255.111403 110.678364 255.77441 111.341372 
C 256.437418 112.00438 257.336776 112.376906 258.27441 112.376906 
z
" clip-path="url(#p3048f22df3)" style="fill: #324739; stroke: #324739"/>
    <path d="M 179.973914 54.498271 
C 180.911548 54.498271 181.810906 54.125744 182.473914 53.462737 
C 183.136921 52.799729 183.509447 51.900371 183.509447 50.962737 
C 183.509447 50.025102 183.136921 49.125744 182.473914 48.462737 
C 181.810906 47.799729 180.911548 47.427203 179.973914 47.427203 
C 179.036279 47.427203 178.136921 47.799729 177.473914 48.462737 
C 176.810906 49.125744 176.43838 50.025102 176.43838 50.962737 
C 176.43838 51.900371 176.810906 52.799729 177.473914 53.462737 
C 178.136921 54.125744 179.036279 54.498271 179.973914 54.498271 
z
" clip-path="url(#p3048f22df3)" style="fill: #5ab4bd; stroke: #5ab4bd"/>
    <path d="M 232.174245 56.880526 
C 233.111879 56.880526 234.011237 56.508 234.674245 55.844992 
C 235.337253 55.181984 235.709779 54.282626 235.709779 53.344992 
C 235.709779 52.407357 235.337253 51.508 234.674245 50.844992 
C 234.011237 50.181984 233.111879 49.809458 232.174245 49.809458 
C 231.23661 49.809458 230.337253 50.181984 229.674245 50.844992 
C 229.011237 51.508 228.638711 52.407357 228.638711 53.344992 
C 228.638711 54.282626 229.011237 55.181984 229.674245 55.844992 
C 230.337253 56.508 231.23661 56.880526 232.174245 56.880526 
z
" clip-path="url(#p3048f22df3)" style="fill: #5ab4bd; stroke: #5ab4bd"/>
    <path d="M 284.374576 59.262781 
C 285.312211 59.262781 286.211568 58.890255 286.874576 58.227247 
C 287.537584 57.564239 287.91011 56.664881 287.91011 55.727247 
C 287.91011 54.789612 287.537584 53.890255 286.874576 53.227247 
C 286.211568 52.564239 285.312211 52.191713 284.374576 52.191713 
C 283.436942 52.191713 282.537584 52.564239 281.874576 53.227247 
C 281.211568 53.890255 280.839042 54.789612 280.839042 55.727247 
C 280.839042 56.664881 281.211568 57.564239 281.874576 58.227247 
C 282.537584 58.890255 283.436942 59.262781 284.374576 59.262781 
z
" clip-path="url(#p3048f22df3)" style="fill: #5ab4bd; stroke: #5ab4bd"/>
    <path d="M 201.471916 98.64812 
C 202.40955 98.64812 203.308908 98.275594 203.971916 97.612586 
C 204.634924 96.949578 205.00745 96.050221 205.00745 95.112586 
C 205.00745 94.174952 204.634924 93.275594 203.971916 92.612586 
C 203.308908 91.949578 202.40955 91.577052 201.471916 91.577052 
C 200.534281 91.577052 199.634924 91.949578 198.971916 92.612586 
C 198.308908 93.275594 197.936382 94.174952 197.936382 95.112586 
C 197.936382 96.050221 198.308908 96.949578 198.971916 97.612586 
C 199.634924 98.275594 200.534281 98.64812 201.471916 98.64812 
z
" clip-path="url(#p3048f22df3)" style="fill: #5ab4bd; stroke: #5ab4bd"/>
    <path d="M 253.672247 101.030375 
C 254.609882 101.030375 255.509239 100.657849 256.172247 99.994841 
C 256.835255 99.331833 257.207781 98.432476 257.207781 97.494841 
C 257.207781 96.557207 256.835255 95.657849 256.172247 94.994841 
C 255.509239 94.331833 254.609882 93.959307 253.672247 93.959307 
C 252.734613 93.959307 251.835255 94.331833 251.172247 94.994841 
C 250.509239 95.657849 250.136713 96.557207 250.136713 97.494841 
C 250.136713 98.432476 250.509239 99.331833 251.172247 99.994841 
C 251.835255 100.657849 252.734613 101.030375 253.672247 101.030375 
z
" clip-path="url(#p3048f22df3)" style="fill: #5ab4bd; stroke: #5ab4bd"/>
    <path d="M 227.572081 81.737497 
C 228.509716 81.737497 229.409074 81.36497 230.072081 80.701963 
C 230.735089 80.038955 231.107615 79.139597 231.107615 78.201963 
C 231.107615 77.264328 230.735089 76.36497 230.072081 75.701963 
C 229.409074 75.038955 228.509716 74.666429 227.572081 74.666429 
C 226.634447 74.666429 225.735089 75.038955 225.072081 75.701963 
C 224.409074 76.36497 224.036548 77.264328 224.036548 78.201963 
C 224.036548 79.139597 224.409074 80.038955 225.072081 80.701963 
C 225.735089 81.36497 226.634447 81.737497 227.572081 81.737497 
z
" clip-path="url(#p3048f22df3)" style="fill: #324739; stroke: #324739"/>
    <path d="M 222.969918 142.797969 
C 223.907553 142.797969 224.80691 142.425443 225.469918 141.762435 
C 226.132926 141.099428 226.505452 140.20007 226.505452 139.262435 
C 226.505452 138.324801 226.132926 137.425443 225.469918 136.762435 
C 224.80691 136.099428 223.907553 135.726902 222.969918 135.726902 
C 222.032283 135.726902 221.132926 136.099428 220.469918 136.762435 
C 219.80691 137.425443 219.434384 138.324801 219.434384 139.262435 
C 219.434384 140.20007 219.80691 141.099428 220.469918 141.762435 
C 221.132926 142.425443 222.032283 142.797969 222.969918 142.797969 
z
" clip-path="url(#p3048f22df3)" style="fill: #5ab4bd; stroke: #5ab4bd"/>
    <path d="M 222.969918 70.390966 
C 223.907553 70.390966 224.80691 70.018439 225.469918 69.355432 
C 226.132926 68.692424 226.505452 67.793066 226.505452 66.855432 
C 226.505452 65.917797 226.132926 65.018439 225.469918 64.355432 
C 224.80691 63.692424 223.907553 63.319898 222.969918 63.319898 
C 222.032283 63.319898 221.132926 63.692424 220.469918 64.355432 
C 219.80691 65.018439 219.434384 65.917797 219.434384 66.855432 
C 219.434384 67.793066 219.80691 68.692424 220.469918 69.355432 
C 221.132926 70.018439 222.032283 70.390966 222.969918 70.390966 
z
" clip-path="url(#p3048f22df3)" style="fill: #5ab4bd; stroke: #5ab4bd"/>
   </g>
   <g id="legend_2">
    <g id="line2d_14">
     <path d="M 172.249941 13.455309 
L 180.579941 13.455309 
L 188.909941 13.455309 
" style="fill: none; stroke: #ff0000; stroke-width: 1.5; stroke-linecap: round"/>
    </g>
    <g id="text_10">
     <!-- transformed -->
     <g transform="translate(195.573941 16.370809) scale(0.0833 -0.0833)">
      <defs>
       <path id="STIXGeneral-Regular-74" d="M 1702 493 
L 1786 422 
Q 1478 -64 1011 -64 
Q 448 -64 448 749 
L 448 2675 
L 109 2675 
Q 83 2694 83 2720 
Q 83 2771 192 2842 
Q 435 2982 813 3526 
Q 826 3546 874 3606 
Q 922 3667 941 3706 
Q 986 3706 986 3622 
L 986 2880 
L 1632 2880 
L 1632 2675 
L 986 2675 
L 986 845 
Q 986 538 1062 403 
Q 1139 269 1318 269 
Q 1510 269 1702 493 
z
" transform="scale(0.015625)"/>
       <path id="STIXGeneral-Regular-66" d="M 134 2880 
L 659 2880 
Q 666 3264 710 3478 
Q 755 3693 883 3910 
Q 1152 4371 1786 4371 
Q 2074 4371 2262 4259 
Q 2451 4147 2451 3974 
Q 2451 3866 2374 3789 
Q 2298 3712 2182 3712 
Q 2029 3712 1894 3942 
Q 1741 4192 1555 4192 
Q 1197 4192 1197 3622 
L 1197 2880 
L 1978 2880 
L 1978 2675 
L 1197 2675 
L 1197 666 
Q 1197 307 1299 208 
Q 1402 109 1792 96 
L 1792 0 
L 128 0 
L 128 96 
Q 474 115 566 214 
Q 659 314 659 666 
L 659 2675 
L 134 2675 
L 134 2880 
z
" transform="scale(0.015625)"/>
       <path id="STIXGeneral-Regular-6d" d="M 4960 0 
L 3565 0 
L 3565 96 
Q 3834 122 3907 208 
Q 3981 294 3981 576 
L 3981 1894 
Q 3981 2278 3869 2444 
Q 3757 2611 3488 2611 
Q 3264 2611 3107 2521 
Q 2950 2432 2803 2221 
L 2803 608 
Q 2803 301 2896 201 
Q 2989 102 3264 96 
L 3264 0 
L 1830 0 
L 1830 96 
Q 2112 115 2189 188 
Q 2266 262 2266 550 
L 2266 1901 
Q 2266 2611 1850 2611 
Q 1670 2611 1468 2531 
Q 1267 2451 1171 2336 
Q 1088 2240 1088 2227 
L 1088 448 
Q 1088 243 1177 176 
Q 1267 109 1523 96 
L 1523 0 
L 102 0 
L 102 96 
Q 371 102 460 195 
Q 550 288 550 563 
L 550 2150 
Q 550 2387 499 2480 
Q 448 2573 326 2573 
Q 230 2573 122 2547 
L 122 2656 
Q 557 2778 1011 2944 
L 1062 2925 
L 1062 2451 
L 1075 2451 
Q 1363 2752 1584 2848 
Q 1805 2944 2054 2944 
Q 2560 2944 2733 2406 
Q 3232 2944 3776 2944 
Q 4518 2944 4518 1792 
L 4518 493 
Q 4518 282 4582 202 
Q 4646 122 4794 109 
L 4960 96 
L 4960 0 
z
" transform="scale(0.015625)"/>
       <path id="STIXGeneral-Regular-65" d="M 2611 1050 
L 2714 1005 
Q 2330 -64 1376 -64 
Q 813 -64 486 329 
Q 160 723 160 1389 
Q 160 2074 525 2509 
Q 890 2944 1485 2944 
Q 2061 2944 2374 2502 
Q 2560 2246 2592 1773 
L 621 1773 
Q 646 1370 700 1158 
Q 755 947 915 730 
Q 1184 378 1626 378 
Q 1939 378 2153 531 
Q 2368 685 2611 1050 
z
M 634 1978 
L 1939 1978 
Q 1882 2381 1750 2547 
Q 1619 2714 1312 2714 
Q 1043 2714 864 2525 
Q 685 2336 634 1978 
z
" transform="scale(0.015625)"/>
       <path id="STIXGeneral-Regular-64" d="M 3142 269 
L 2202 -64 
L 2176 -45 
L 2176 365 
Q 1869 -64 1357 -64 
Q 826 -64 499 317 
Q 173 698 173 1312 
Q 173 1990 563 2467 
Q 954 2944 1504 2944 
Q 1850 2944 2176 2669 
L 2176 3667 
Q 2176 3866 2118 3930 
Q 2061 3994 1882 3994 
Q 1792 3994 1741 3987 
L 1741 4090 
Q 2323 4243 2682 4371 
L 2714 4358 
L 2714 730 
Q 2714 506 2768 435 
Q 2822 365 2995 365 
Q 3034 365 3142 371 
L 3142 269 
z
M 2176 653 
L 2176 2125 
Q 2176 2381 1981 2573 
Q 1786 2765 1523 2765 
Q 1158 2765 940 2438 
Q 723 2112 723 1568 
Q 723 979 963 624 
Q 1203 269 1606 269 
Q 1907 269 2080 474 
Q 2176 582 2176 653 
z
" transform="scale(0.015625)"/>
      </defs>
      <use xlink:href="#STIXGeneral-Regular-74"/>
      <use xlink:href="#STIXGeneral-Regular-72" x="27.799988"/>
      <use xlink:href="#STIXGeneral-Regular-61" x="61.099976"/>
      <use xlink:href="#STIXGeneral-Regular-6e" x="105.499969"/>
      <use xlink:href="#STIXGeneral-Regular-73" x="155.499954"/>
      <use xlink:href="#STIXGeneral-Regular-66" x="194.399948"/>
      <use xlink:href="#STIXGeneral-Regular-6f" x="227.699936"/>
      <use xlink:href="#STIXGeneral-Regular-72" x="277.699921"/>
      <use xlink:href="#STIXGeneral-Regular-6d" x="310.999908"/>
      <use xlink:href="#STIXGeneral-Regular-65" x="388.799896"/>
      <use xlink:href="#STIXGeneral-Regular-64" x="433.19989"/>
     </g>
    </g>
    <g id="Path3DCollection_9">
     <g>
      <use xlink:href="#m918e1e6de1" x="260.814761" y="14.184184" style="fill: #5ab4bd; stroke: #5ab4bd"/>
     </g>
    </g>
    <g id="text_11">
     <!-- Ga -->
     <g transform="translate(275.808761 16.370809) scale(0.0833 -0.0833)">
      <use xlink:href="#STIXGeneral-Regular-47"/>
      <use xlink:href="#STIXGeneral-Regular-61" x="72.199982"/>
     </g>
    </g>
    <g id="Path3DCollection_10">
     <g>
      <use xlink:href="#me44ab3bfa4" x="310.512322" y="14.184184" style="fill: #324739; stroke: #324739"/>
     </g>
    </g>
    <g id="text_12">
     <!-- As -->
     <g transform="translate(325.506322 16.370809) scale(0.0833 -0.0833)">
      <use xlink:href="#STIXGeneral-Regular-41"/>
      <use xlink:href="#STIXGeneral-Regular-73" x="72.199982"/>
     </g>
    </g>
   </g>
   <g id="Poly3DCollection_1">
    <defs>
     <path id="m1f92cc857e" d="M 241.378572 -124.335245 
L 222.969918 -97.314366 
L 222.969918 -24.907362 
L 241.378572 -51.928242 
L 241.378572 -124.335245 
z
" style="stroke: #889988; stroke-opacity: 0.5"/>
    </defs>
    <g clip-path="url(#p3048f22df3)">
     <use xlink:href="#m1f92cc857e" x="0" y="164.169797" style="fill: #889988; fill-opacity: 0.5; stroke: #889988; stroke-opacity: 0.5"/>
    </g>
   </g>
  </g>
  <g id="patch_10">
   <path d="M 322.305882 156.969797 
L 453.6 156.969797 
L 453.6 25.67568 
L 322.305882 25.67568 
z
" style="fill: #ffffff"/>
  </g>
  <g id="axes_3">
   <g id="patch_11">
    <path d="M 358.512677 134.120347 
Q 364.755579 134.120347 370.215857 134.120347 
" clip-path="url(#pf072160deb)" style="fill: none; stroke: #000000; stroke-width: 0.7; stroke-linecap: round"/>
    <path d="M 367.415857 132.720347 
L 370.215857 134.120347 
L 367.415857 135.520347 
z
" clip-path="url(#pf072160deb)" style="stroke: #000000; stroke-width: 0.7; stroke-linecap: round"/>
   </g>
   <g id="Path3DCollection_11"/>
   <g id="line2d_15">
    <path d="M 358.512677 134.120347 
L 379.32235 143.449068 
L 379.32235 44.97664 
L 358.512677 35.647919 
L 358.512677 134.120347 
" clip-path="url(#pf072160deb)" style="fill: none; stroke: #ff0000; stroke-width: 1.5; stroke-linecap: round"/>
   </g>
   <g id="line2d_16">
    <path d="M 358.512677 134.120347 
L 400.132022 134.120347 
L 420.941695 143.449068 
L 379.32235 143.449068 
L 358.512677 134.120347 
" clip-path="url(#pf072160deb)" style="fill: none; stroke: #ff0000; stroke-width: 1.5; stroke-linecap: round"/>
   </g>
   <g id="line2d_17">
    <path d="M 358.512677 134.120347 
L 358.512677 35.647919 
L 400.132022 35.647919 
L 400.132022 134.120347 
L 358.512677 134.120347 
" clip-path="url(#pf072160deb)" style="fill: none; stroke: #ff0000; stroke-width: 1.5; stroke-linecap: round"/>
   </g>
   <g id="line2d_18">
    <path d="M 400.132022 134.120347 
L 400.132022 35.647919 
L 420.941695 44.97664 
L 420.941695 143.449068 
L 400.132022 134.120347 
" clip-path="url(#pf072160deb)" style="fill: none; stroke: #ff0000; stroke-width: 1.5; stroke-linecap: round"/>
   </g>
   <g id="line2d_19">
    <path d="M 379.32235 143.449068 
L 420.941695 143.449068 
L 420.941695 44.97664 
L 379.32235 44.97664 
L 379.32235 143.449068 
" clip-path="url(#pf072160deb)" style="fill: none; stroke: #ff0000; stroke-width: 1.5; stroke-linecap: round"/>
   </g>
   <g id="line2d_20">
    <path d="M 358.512677 35.647919 
L 379.32235 44.97664 
L 420.941695 44.97664 
L 400.132022 35.647919 
L 358.512677 35.647919 
" clip-path="url(#pf072160deb)" style="fill: none; stroke: #ff0000; stroke-width: 1.5; stroke-linecap: round"/>
   </g>
   <g id="patch_12">
    <path d="M 358.512677 134.120347 
Q 358.512677 119.349483 358.512677 105.361243 
" clip-path="url(#pf072160deb)" style="fill: none; stroke: #000000; stroke-width: 0.7; stroke-linecap: round"/>
    <path d="M 357.112677 108.161243 
L 358.512677 105.361243 
L 359.912677 108.161243 
z
" clip-path="url(#pf072160deb)" style="stroke: #000000; stroke-width: 0.7; stroke-linecap: round"/>
   </g>
   <g id="Path3DCollection_12"/>
   <g id="text_13">
    <!-- $\vec{a}_1$ -->
    <g transform="translate(361.196063 139.815087) scale(0.1 -0.1)">
     <use xlink:href="#STIXGeneral-Regular-20d7" transform="translate(54.821873 2)"/>
     <use xlink:href="#STIXGeneral-Italic-61" transform="translate(0 0.203125)"/>
     <use xlink:href="#STIXGeneral-Regular-31" transform="translate(51.643272 -13.025) scale(0.7)"/>
    </g>
   </g>
   <g id="text_14">
    <!-- $\vec{a}_2$ -->
    <g transform="translate(368.479448 136.550035) scale(0.1 -0.1)">
     <use xlink:href="#STIXGeneral-Regular-20d7" transform="translate(54.821873 2)"/>
     <use xlink:href="#STIXGeneral-Italic-61" transform="translate(0 0.203125)"/>
     <use xlink:href="#STIXGeneral-Regular-32" transform="translate(51.643272 -13.025) scale(0.7)"/>
    </g>
   </g>
   <g id="text_15">
    <!-- $\vec{a}_3$ -->
    <g transform="translate(353.912677 102.134685) scale(0.1 -0.1)">
     <use xlink:href="#STIXGeneral-Regular-20d7" transform="translate(54.821873 2)"/>
     <use xlink:href="#STIXGeneral-Italic-61" transform="translate(0 0.203125)"/>
     <use xlink:href="#STIXGeneral-Regular-33" transform="translate(51.643272 -13.025) scale(0.7)"/>
    </g>
   </g>
   <g id="patch_13">
    <path d="M 358.512677 134.120347 
Q 361.634128 135.519655 364.041431 136.598819 
" clip-path="url(#pf072160deb)" style="fill: none; stroke: #000000; stroke-width: 0.7; stroke-linecap: round"/>
    <path d="M 362.059107 134.17593 
L 364.041431 136.598819 
L 360.913725 136.730945 
z
" clip-path="url(#pf072160deb)" style="stroke: #000000; stroke-width: 0.7; stroke-linecap: round"/>
   </g>
   <g id="Line3DCollection_3">
    <path d="M 379.32235 44.97664 
L 379.32235 45.970084 
" clip-path="url(#pf072160deb)" style="fill: none; stroke: #5ab4bd; stroke-opacity: 0.7"/>
    <path d="M 379.32235 45.970084 
L 379.32235 46.963529 
" clip-path="url(#pf072160deb)" style="fill: none; stroke: #324739; stroke-opacity: 0.7"/>
    <path d="M 400.132022 107.515352 
L 400.132022 95.206298 
" clip-path="url(#pf072160deb)" style="fill: none; stroke: #5ab4bd; stroke-opacity: 0.7"/>
    <path d="M 400.132022 95.206298 
L 400.132022 82.897245 
" clip-path="url(#pf072160deb)" style="fill: none; stroke: #324739; stroke-opacity: 0.7"/>
    <path d="M 358.512677 134.120347 
L 358.512677 121.811294 
" clip-path="url(#pf072160deb)" style="fill: none; stroke: #5ab4bd; stroke-opacity: 0.7"/>
    <path d="M 358.512677 121.811294 
L 358.512677 109.50224 
" clip-path="url(#pf072160deb)" style="fill: none; stroke: #324739; stroke-opacity: 0.7"/>
    <path d="M 358.512677 35.647919 
L 368.917513 41.305724 
" clip-path="url(#pf072160deb)" style="fill: none; stroke: #5ab4bd; stroke-opacity: 0.7"/>
    <path d="M 368.917513 41.305724 
L 379.32235 46.963529 
" clip-path="url(#pf072160deb)" style="fill: none; stroke: #324739; stroke-opacity: 0.7"/>
    <path d="M 379.32235 143.449068 
L 379.32235 131.140015 
" clip-path="url(#pf072160deb)" style="fill: none; stroke: #5ab4bd; stroke-opacity: 0.7"/>
    <path d="M 379.32235 131.140015 
L 379.32235 118.830961 
" clip-path="url(#pf072160deb)" style="fill: none; stroke: #324739; stroke-opacity: 0.7"/>
    <path d="M 400.132022 35.647919 
L 389.727186 41.305724 
" clip-path="url(#pf072160deb)" style="fill: none; stroke: #5ab4bd; stroke-opacity: 0.7"/>
    <path d="M 389.727186 41.305724 
L 379.32235 46.963529 
" clip-path="url(#pf072160deb)" style="fill: none; stroke: #324739; stroke-opacity: 0.7"/>
    <path d="M 379.32235 71.581636 
L 379.32235 59.272582 
" clip-path="url(#pf072160deb)" style="fill: none; stroke: #5ab4bd; stroke-opacity: 0.7"/>
    <path d="M 379.32235 59.272582 
L 379.32235 46.963529 
" clip-path="url(#pf072160deb)" style="fill: none; stroke: #324739; stroke-opacity: 0.7"/>
    <path d="M 400.132022 107.515352 
L 410.536859 113.173156 
" clip-path="url(#pf072160deb)" style="fill: none; stroke: #5ab4bd; stroke-opacity: 0.7"/>
    <path d="M 410.536859 113.173156 
L 420.941695 118.830961 
" clip-path="url(#pf072160deb)" style="fill: none; stroke: #324739; stroke-opacity: 0.7"/>
    <path d="M 420.941695 143.449068 
L 420.941695 131.140015 
" clip-path="url(#pf072160deb)" style="fill: none; stroke: #5ab4bd; stroke-opacity: 0.7"/>
    <path d="M 420.941695 131.140015 
L 420.941695 118.830961 
" clip-path="url(#pf072160deb)" style="fill: none; stroke: #324739; stroke-opacity: 0.7"/>
    <path d="M 379.32235 71.581636 
L 389.727186 77.23944 
" clip-path="url(#pf072160deb)" style="fill: none; stroke: #5ab4bd; stroke-opacity: 0.7"/>
    <path d="M 389.727186 77.23944 
L 400.132022 82.897245 
" clip-path="url(#pf072160deb)" style="fill: none; stroke: #324739; stroke-opacity: 0.7"/>
    <path d="M 400.132022 107.515352 
L 389.727186 113.173156 
" clip-path="url(#pf072160deb)" style="fill: none; stroke: #5ab4bd; stroke-opacity: 0.7"/>
    <path d="M 389.727186 113.173156 
L 379.32235 118.830961 
" clip-path="url(#pf072160deb)" style="fill: none; stroke: #324739; stroke-opacity: 0.7"/>
    <path d="M 400.132022 134.120347 
L 400.132022 121.811294 
" clip-path="url(#pf072160deb)" style="fill: none; stroke: #5ab4bd; stroke-opacity: 0.7"/>
    <path d="M 400.132022 121.811294 
L 400.132022 109.50224 
" clip-path="url(#pf072160deb)" style="fill: none; stroke: #324739; stroke-opacity: 0.7"/>
    <path d="M 400.132022 107.515352 
L 400.132022 108.508796 
" clip-path="url(#pf072160deb)" style="fill: none; stroke: #5ab4bd; stroke-opacity: 0.7"/>
    <path d="M 400.132022 108.508796 
L 400.132022 109.50224 
" clip-path="url(#pf072160deb)" style="fill: none; stroke: #324739; stroke-opacity: 0.7"/>
   </g>
   <g id="Path3DCollection_13">
    <path d="M 400.132022 137.655881 
C 401.069657 137.655881 401.969015 137.283355 402.632022 136.620347 
C 403.29503 135.957339 403.667556 135.057982 403.667556 134.120347 
C 403.667556 133.182712 403.29503 132.283355 402.632022 131.620347 
C 401.969015 130.957339 401.069657 130.584813 400.132022 130.584813 
C 399.194388 130.584813 398.29503 130.957339 397.632022 131.620347 
C 396.969015 132.283355 396.596488 133.182712 396.596488 134.120347 
C 396.596488 135.057982 396.969015 135.957339 397.632022 136.620347 
C 398.29503 137.283355 399.194388 137.655881 400.132022 137.655881 
z
" clip-path="url(#pf072160deb)" style="fill: #5ab4bd; fill-opacity: 0.7; stroke: #5ab4bd; stroke-opacity: 0.7"/>
    <path d="M 358.512677 137.655881 
C 359.450312 137.655881 360.349669 137.283355 361.012677 136.620347 
C 361.675685 135.957339 362.048211 135.057982 362.048211 134.120347 
C 362.048211 133.182712 361.675685 132.283355 361.012677 131.620347 
C 360.349669 130.957339 359.450312 130.584813 358.512677 130.584813 
C 357.575043 130.584813 356.675685 130.957339 356.012677 131.620347 
C 355.349669 132.283355 354.977143 133.182712 354.977143 134.120347 
C 354.977143 135.057982 355.349669 135.957339 356.012677 136.620347 
C 356.675685 137.283355 357.575043 137.655881 358.512677 137.655881 
z
" clip-path="url(#pf072160deb)" style="fill: #5ab4bd; fill-opacity: 0.7; stroke: #5ab4bd; stroke-opacity: 0.7"/>
    <path d="M 400.132022 113.037774 
C 401.069657 113.037774 401.969015 112.665248 402.632022 112.00224 
C 403.29503 111.339232 403.667556 110.439875 403.667556 109.50224 
C 403.667556 108.564606 403.29503 107.665248 402.632022 107.00224 
C 401.969015 106.339232 401.069657 105.966706 400.132022 105.966706 
C 399.194388 105.966706 398.29503 106.339232 397.632022 107.00224 
C 396.969015 107.665248 396.596488 108.564606 396.596488 109.50224 
C 396.596488 110.439875 396.969015 111.339232 397.632022 112.00224 
C 398.29503 112.665248 399.194388 113.037774 400.132022 113.037774 
z
" clip-path="url(#pf072160deb)" style="fill: #324739; fill-opacity: 0.7; stroke: #324739; stroke-opacity: 0.7"/>
    <path d="M 358.512677 113.037774 
C 359.450312 113.037774 360.349669 112.665248 361.012677 112.00224 
C 361.675685 111.339232 362.048211 110.439875 362.048211 109.50224 
C 362.048211 108.564606 361.675685 107.665248 361.012677 107.00224 
C 360.349669 106.339232 359.450312 105.966706 358.512677 105.966706 
C 357.575043 105.966706 356.675685 106.339232 356.012677 107.00224 
C 355.349669 107.665248 354.977143 108.564606 354.977143 109.50224 
C 354.977143 110.439875 355.349669 111.339232 356.012677 112.00224 
C 356.675685 112.665248 357.575043 113.037774 358.512677 113.037774 
z
" clip-path="url(#pf072160deb)" style="fill: #324739; fill-opacity: 0.7; stroke: #324739; stroke-opacity: 0.7"/>
    <path d="M 400.132022 39.183453 
C 401.069657 39.183453 401.969015 38.810927 402.632022 38.147919 
C 403.29503 37.484912 403.667556 36.585554 403.667556 35.647919 
C 403.667556 34.710285 403.29503 33.810927 402.632022 33.147919 
C 401.969015 32.484912 401.069657 32.112385 400.132022 32.112385 
C 399.194388 32.112385 398.29503 32.484912 397.632022 33.147919 
C 396.969015 33.810927 396.596488 34.710285 396.596488 35.647919 
C 396.596488 36.585554 396.969015 37.484912 397.632022 38.147919 
C 398.29503 38.810927 399.194388 39.183453 400.132022 39.183453 
z
" clip-path="url(#pf072160deb)" style="fill: #5ab4bd; fill-opacity: 0.7; stroke: #5ab4bd; stroke-opacity: 0.7"/>
    <path d="M 358.512677 39.183453 
C 359.450312 39.183453 360.349669 38.810927 361.012677 38.147919 
C 361.675685 37.484912 362.048211 36.585554 362.048211 35.647919 
C 362.048211 34.710285 361.675685 33.810927 361.012677 33.147919 
C 360.349669 32.484912 359.450312 32.112385 358.512677 32.112385 
C 357.575043 32.112385 356.675685 32.484912 356.012677 33.147919 
C 355.349669 33.810927 354.977143 34.710285 354.977143 35.647919 
C 354.977143 36.585554 355.349669 37.484912 356.012677 38.147919 
C 356.675685 38.810927 357.575043 39.183453 358.512677 39.183453 
z
" clip-path="url(#pf072160deb)" style="fill: #5ab4bd; fill-opacity: 0.7; stroke: #5ab4bd; stroke-opacity: 0.7"/>
    <path d="M 379.32235 75.117169 
C 380.259984 75.117169 381.159342 74.744643 381.82235 74.081636 
C 382.485357 73.418628 382.857884 72.51927 382.857884 71.581636 
C 382.857884 70.644001 382.485357 69.744643 381.82235 69.081636 
C 381.159342 68.418628 380.259984 68.046102 379.32235 68.046102 
C 378.384715 68.046102 377.485357 68.418628 376.82235 69.081636 
C 376.159342 69.744643 375.786816 70.644001 375.786816 71.581636 
C 375.786816 72.51927 376.159342 73.418628 376.82235 74.081636 
C 377.485357 74.744643 378.384715 75.117169 379.32235 75.117169 
z
" clip-path="url(#pf072160deb)" style="fill: #5ab4bd; fill-opacity: 0.7; stroke: #5ab4bd; stroke-opacity: 0.7"/>
    <path d="M 400.132022 111.050886 
C 401.069657 111.050886 401.969015 110.67836 402.632022 110.015352 
C 403.29503 109.352344 403.667556 108.452986 403.667556 107.515352 
C 403.667556 106.577717 403.29503 105.67836 402.632022 105.015352 
C 401.969015 104.352344 401.069657 103.979818 400.132022 103.979818 
C 399.194388 103.979818 398.29503 104.352344 397.632022 105.015352 
C 396.969015 105.67836 396.596488 106.577717 396.596488 107.515352 
C 396.596488 108.452986 396.969015 109.352344 397.632022 110.015352 
C 398.29503 110.67836 399.194388 111.050886 400.132022 111.050886 
z
" clip-path="url(#pf072160deb)" style="fill: #5ab4bd; fill-opacity: 0.7; stroke: #5ab4bd; stroke-opacity: 0.7"/>
    <path d="M 420.941695 146.984602 
C 421.879329 146.984602 422.778687 146.612076 423.441695 145.949068 
C 424.104703 145.28606 424.477229 144.386703 424.477229 143.449068 
C 424.477229 142.511433 424.104703 141.612076 423.441695 140.949068 
C 422.778687 140.28606 421.879329 139.913534 420.941695 139.913534 
C 420.00406 139.913534 419.104703 140.28606 418.441695 140.949068 
C 417.778687 141.612076 417.406161 142.511433 417.406161 143.449068 
C 417.406161 144.386703 417.778687 145.28606 418.441695 145.949068 
C 419.104703 146.612076 420.00406 146.984602 420.941695 146.984602 
z
" clip-path="url(#pf072160deb)" style="fill: #5ab4bd; fill-opacity: 0.7; stroke: #5ab4bd; stroke-opacity: 0.7"/>
    <path d="M 379.32235 146.984602 
C 380.259984 146.984602 381.159342 146.612076 381.82235 145.949068 
C 382.485357 145.28606 382.857884 144.386703 382.857884 143.449068 
C 382.857884 142.511433 382.485357 141.612076 381.82235 140.949068 
C 381.159342 140.28606 380.259984 139.913534 379.32235 139.913534 
C 378.384715 139.913534 377.485357 140.28606 376.82235 140.949068 
C 376.159342 141.612076 375.786816 142.511433 375.786816 143.449068 
C 375.786816 144.386703 376.159342 145.28606 376.82235 145.949068 
C 377.485357 146.612076 378.384715 146.984602 379.32235 146.984602 
z
" clip-path="url(#pf072160deb)" style="fill: #5ab4bd; fill-opacity: 0.7; stroke: #5ab4bd; stroke-opacity: 0.7"/>
    <path d="M 379.32235 50.499063 
C 380.259984 50.499063 381.159342 50.126536 381.82235 49.463529 
C 382.485357 48.800521 382.857884 47.901163 382.857884 46.963529 
C 382.857884 46.025894 382.485357 45.126536 381.82235 44.463529 
C 381.159342 43.800521 380.259984 43.427995 379.32235 43.427995 
C 378.384715 43.427995 377.485357 43.800521 376.82235 44.463529 
C 376.159342 45.126536 375.786816 46.025894 375.786816 46.963529 
C 375.786816 47.901163 376.159342 48.800521 376.82235 49.463529 
C 377.485357 50.126536 378.384715 50.499063 379.32235 50.499063 
z
" clip-path="url(#pf072160deb)" style="fill: #324739; fill-opacity: 0.7; stroke: #324739; stroke-opacity: 0.7"/>
    <path d="M 400.132022 86.432779 
C 401.069657 86.432779 401.969015 86.060253 402.632022 85.397245 
C 403.29503 84.734237 403.667556 83.834879 403.667556 82.897245 
C 403.667556 81.95961 403.29503 81.060253 402.632022 80.397245 
C 401.969015 79.734237 401.069657 79.361711 400.132022 79.361711 
C 399.194388 79.361711 398.29503 79.734237 397.632022 80.397245 
C 396.969015 81.060253 396.596488 81.95961 396.596488 82.897245 
C 396.596488 83.834879 396.969015 84.734237 397.632022 85.397245 
C 398.29503 86.060253 399.194388 86.432779 400.132022 86.432779 
z
" clip-path="url(#pf072160deb)" style="fill: #324739; fill-opacity: 0.7; stroke: #324739; stroke-opacity: 0.7"/>
    <path d="M 420.941695 122.366495 
C 421.879329 122.366495 422.778687 121.993969 423.441695 121.330961 
C 424.104703 120.667953 424.477229 119.768596 424.477229 118.830961 
C 424.477229 117.893327 424.104703 116.993969 423.441695 116.330961 
C 422.778687 115.667953 421.879329 115.295427 420.941695 115.295427 
C 420.00406 115.295427 419.104703 115.667953 418.441695 116.330961 
C 417.778687 116.993969 417.406161 117.893327 417.406161 118.830961 
C 417.406161 119.768596 417.778687 120.667953 418.441695 121.330961 
C 419.104703 121.993969 420.00406 122.366495 420.941695 122.366495 
z
" clip-path="url(#pf072160deb)" style="fill: #324739; fill-opacity: 0.7; stroke: #324739; stroke-opacity: 0.7"/>
    <path d="M 379.32235 122.366495 
C 380.259984 122.366495 381.159342 121.993969 381.82235 121.330961 
C 382.485357 120.667953 382.857884 119.768596 382.857884 118.830961 
C 382.857884 117.893327 382.485357 116.993969 381.82235 116.330961 
C 381.159342 115.667953 380.259984 115.295427 379.32235 115.295427 
C 378.384715 115.295427 377.485357 115.667953 376.82235 116.330961 
C 376.159342 116.993969 375.786816 117.893327 375.786816 118.830961 
C 375.786816 119.768596 376.159342 120.667953 376.82235 121.330961 
C 377.485357 121.993969 378.384715 122.366495 379.32235 122.366495 
z
" clip-path="url(#pf072160deb)" style="fill: #324739; fill-opacity: 0.7; stroke: #324739; stroke-opacity: 0.7"/>
    <path d="M 420.941695 48.512174 
C 421.879329 48.512174 422.778687 48.139648 423.441695 47.47664 
C 424.104703 46.813633 424.477229 45.914275 424.477229 44.97664 
C 424.477229 44.039006 424.104703 43.139648 423.441695 42.47664 
C 422.778687 41.813633 421.879329 41.441106 420.941695 41.441106 
C 420.00406 41.441106 419.104703 41.813633 418.441695 42.47664 
C 417.778687 43.139648 417.406161 44.039006 417.406161 44.97664 
C 417.406161 45.914275 417.778687 46.813633 418.441695 47.47664 
C 419.104703 48.139648 420.00406 48.512174 420.941695 48.512174 
z
" clip-path="url(#pf072160deb)" style="fill: #5ab4bd; fill-opacity: 0.7; stroke: #5ab4bd; stroke-opacity: 0.7"/>
    <path d="M 379.32235 48.512174 
C 380.259984 48.512174 381.159342 48.139648 381.82235 47.47664 
C 382.485357 46.813633 382.857884 45.914275 382.857884 44.97664 
C 382.857884 44.039006 382.485357 43.139648 381.82235 42.47664 
C 381.159342 41.813633 380.259984 41.441106 379.32235 41.441106 
C 378.384715 41.441106 377.485357 41.813633 376.82235 42.47664 
C 376.159342 43.139648 375.786816 44.039006 375.786816 44.97664 
C 375.786816 45.914275 376.159342 46.813633 376.82235 47.47664 
C 377.485357 48.139648 378.384715 48.512174 379.32235 48.512174 
z
" clip-path="url(#pf072160deb)" style="fill: #5ab4bd; fill-opacity: 0.7; stroke: #5ab4bd; stroke-opacity: 0.7"/>
   </g>
   <g id="legend_3">
    <g id="Path3DCollection_14">
     <defs>
      <path id="m93fb029bb1" d="M 0 3.535534 
C 0.937635 3.535534 1.836992 3.163008 2.5 2.5 
C 3.163008 1.836992 3.535534 0.937635 3.535534 0 
C 3.535534 -0.937635 3.163008 -1.836992 2.5 -2.5 
C 1.836992 -3.163008 0.937635 -3.535534 0 -3.535534 
C -0.937635 -3.535534 -1.836992 -3.163008 -2.5 -2.5 
C -3.163008 -1.836992 -3.535534 -0.937635 -3.535534 0 
C -3.535534 0.937635 -3.163008 1.836992 -2.5 2.5 
C -1.836992 3.163008 -0.937635 3.535534 0 3.535534 
z
" style="stroke: #5ab4bd; stroke-opacity: 0.7"/>
     </defs>
     <g>
      <use xlink:href="#m93fb029bb1" x="338.132882" y="14.184184" style="fill: #5ab4bd; fill-opacity: 0.7; stroke: #5ab4bd; stroke-opacity: 0.7"/>
     </g>
    </g>
    <g id="text_16">
     <!-- Ga -->
     <g transform="translate(353.126882 16.370809) scale(0.0833 -0.0833)">
      <use xlink:href="#STIXGeneral-Regular-47"/>
      <use xlink:href="#STIXGeneral-Regular-61" x="72.199982"/>
     </g>
    </g>
    <g id="Path3DCollection_15">
     <defs>
      <path id="mea769d546d" d="M 0 3.535534 
C 0.937635 3.535534 1.836992 3.163008 2.5 2.5 
C 3.163008 1.836992 3.535534 0.937635 3.535534 0 
C 3.535534 -0.937635 3.163008 -1.836992 2.5 -2.5 
C 1.836992 -3.163008 0.937635 -3.535534 0 -3.535534 
C -0.937635 -3.535534 -1.836992 -3.163008 -2.5 -2.5 
C -3.163008 -1.836992 -3.535534 -0.937635 -3.535534 0 
C -3.535534 0.937635 -3.163008 1.836992 -2.5 2.5 
C -1.836992 3.163008 -0.937635 3.535534 0 3.535534 
z
" style="stroke: #324739; stroke-opacity: 0.7"/>
     </defs>
     <g>
      <use xlink:href="#mea769d546d" x="387.830443" y="14.184184" style="fill: #324739; fill-opacity: 0.7; stroke: #324739; stroke-opacity: 0.7"/>
     </g>
    </g>
    <g id="text_17">
     <!-- As -->
     <g transform="translate(402.824443 16.370809) scale(0.0833 -0.0833)">
      <use xlink:href="#STIXGeneral-Regular-41"/>
      <use xlink:href="#STIXGeneral-Regular-73" x="72.199982"/>
     </g>
    </g>
   </g>
  </g>
 </g>
 <defs>
  <clipPath id="p29b3e59b86">
   <rect x="7.2" y="25.67568" width="131.294118" height="131.294118"/>
  </clipPath>
  <clipPath id="p3048f22df3">
   <rect x="164.752941" y="25.67568" width="131.294118" height="131.294118"/>
  </clipPath>
  <clipPath id="pf072160deb">
   <rect x="322.305882" y="25.67568" width="131.294118" height="131.294118"/>
  </clipPath>
 </defs>
</svg>
