<?xml version="1.0" encoding="utf-8" standalone="no"?>
<!DOCTYPE svg PUBLIC "-//W3C//DTD SVG 1.1//EN"
  "http://www.w3.org/Graphics/SVG/1.1/DTD/svg11.dtd">
<svg xmlns:xlink="http://www.w3.org/1999/xlink" width="460.8pt" height="164.169797pt" viewBox="0 0 460.8 164.169797" xmlns="http://www.w3.org/2000/svg" version="1.1">
 <metadata>
  <rdf:RDF xmlns:dc="http://purl.org/dc/elements/1.1/" xmlns:cc="http://creativecommons.org/ns#" xmlns:rdf="http://www.w3.org/1999/02/22-rdf-syntax-ns#">
   <cc:Work>
    <dc:type rdf:resource="http://purl.org/dc/dcmitype/StillImage"/>
    <dc:date>2025-09-14T21:42:04.190866</dc:date>
    <dc:format>image/svg+xml</dc:format>
    <dc:creator>
     <cc:Agent>
      <dc:title>Matplotlib v3.9.4, https://matplotlib.org/</dc:title>
     </cc:Agent>
    </dc:creator>
   </cc:Work>
  </rdf:RDF>
 </metadata>
 <defs>
  <style type="text/css">*{stroke-linejoin: round; stroke-linecap: butt}</style>
 </defs>
 <g id="figure_1">
  <g id="patch_1">
   <path d="M 0 164.169797 
L 460.8 164.169797 
L 460.8 0 
L 0 0 
z
" style="fill: #ffffff"/>
  </g>
  <g id="patch_2">
   <path d="M 7.2 156.969797 
L 138.494118 156.969797 
L 138.494118 25.67568 
L 7.2 25.67568 
z
" style="fill: #ffffff"/>
  </g>
  <g id="axes_1">
   <g id="patch_3">
    <path d="M 22.736953 122.372843 
Q 28.044606 116.075469 32.847888 110.376517 
" clip-path="url(#p25a75ec695)" style="fill: none; stroke: #000000; stroke-width: 0.7; stroke-linecap: round"/>
    <path d="M 29.972903 111.61525 
L 32.847888 110.376517 
L 32.113883 113.419745 
z
" clip-path="url(#p25a75ec695)" style="stroke: #000000; stroke-width: 0.7; stroke-linecap: round"/>
   </g>
   <g id="Path3DCollection_1"/>
   <g id="line2d_1">
    <path d="M 22.736953 122.372843 
L 74.621304 127.260475 
L 91.121299 98.706639 
L 39.236949 93.819007 
L 22.736953 122.372843 
" clip-path="url(#p25a75ec695)" style="fill: none; stroke: #0000ff; stroke-width: 1.5; stroke-linecap: round"/>
   </g>
   <g id="line2d_2">
    <path d="M 22.736953 122.372843 
L 58.121308 80.390349 
L 110.005658 85.277981 
L 74.621304 127.260475 
L 22.736953 122.372843 
" clip-path="url(#p25a75ec695)" style="fill: none; stroke: #0000ff; stroke-width: 1.5; stroke-linecap: round"/>
   </g>
   <g id="line2d_3">
    <path d="M 22.736953 122.372843 
L 39.236949 93.819007 
L 74.621304 51.836513 
L 58.121308 80.390349 
L 22.736953 122.372843 
" clip-path="url(#p25a75ec695)" style="fill: none; stroke: #0000ff; stroke-width: 1.5; stroke-linecap: round"/>
   </g>
   <g id="line2d_4">
    <path d="M 58.121308 80.390349 
L 74.621304 51.836513 
L 126.505654 56.724144 
L 110.005658 85.277981 
L 58.121308 80.390349 
" clip-path="url(#p25a75ec695)" style="fill: none; stroke: #0000ff; stroke-width: 1.5; stroke-linecap: round"/>
   </g>
   <g id="line2d_5">
    <path d="M 74.621304 127.260475 
L 110.005658 85.277981 
L 126.505654 56.724144 
L 91.121299 98.706639 
L 74.621304 127.260475 
" clip-path="url(#p25a75ec695)" style="fill: none; stroke: #0000ff; stroke-width: 1.5; stroke-linecap: round"/>
   </g>
   <g id="line2d_6">
    <path d="M 39.236949 93.819007 
L 91.121299 98.706639 
L 126.505654 56.724144 
L 74.621304 51.836513 
L 39.236949 93.819007 
" clip-path="url(#p25a75ec695)" style="fill: none; stroke: #0000ff; stroke-width: 1.5; stroke-linecap: round"/>
   </g>
   <g id="patch_4">
    <path d="M 22.736953 122.372843 
Q 30.519606 123.105988 37.523084 123.765732 
" clip-path="url(#p25a75ec695)" style="fill: none; stroke: #000000; stroke-width: 0.7; stroke-linecap: round"/>
    <path d="M 34.866728 122.109299 
L 37.523084 123.765732 
L 34.604124 124.896957 
z
" clip-path="url(#p25a75ec695)" style="stroke: #000000; stroke-width: 0.7; stroke-linecap: round"/>
   </g>
   <g id="Path3DCollection_2"/>
   <g id="text_1">
    <!-- $\vec{a}_1$ -->
    <g transform="translate(36.296476 126.513202) scale(0.1 -0.1)">
     <defs>
      <path id="STIXGeneral-Regular-20d7" d="M -109 4186 
L -954 3507 
L -1069 3558 
Q -755 3821 -755 3917 
Q -755 4013 -1069 4013 
L -2899 4013 
L -2899 4358 
L -1069 4358 
Q -755 4358 -755 4454 
Q -755 4474 -768 4496 
Q -781 4518 -816 4553 
Q -851 4589 -880 4621 
Q -909 4653 -973 4713 
Q -1037 4774 -1075 4813 
L -960 4864 
L -109 4186 
z
" transform="scale(0.015625)"/>
      <path id="STIXGeneral-Italic-61" d="M 2963 710 
L 3046 640 
Q 2688 205 2518 70 
Q 2349 -64 2157 -64 
Q 1901 -64 1901 198 
Q 1901 358 2048 934 
Q 1690 397 1389 163 
Q 1088 -70 749 -70 
Q 467 -70 288 125 
Q 109 320 109 672 
Q 109 1158 387 1664 
Q 666 2170 1094 2496 
Q 1523 2822 1939 2822 
Q 2368 2822 2451 2451 
L 2522 2758 
L 2541 2778 
L 2931 2822 
L 2976 2803 
Q 2970 2778 2938 2669 
Q 2368 595 2368 346 
Q 2368 262 2458 262 
Q 2554 262 2790 525 
L 2963 710 
z
M 2336 2310 
Q 2336 2477 2240 2579 
Q 2144 2682 1978 2682 
Q 1542 2682 1139 2093 
Q 928 1779 787 1395 
Q 646 1011 646 717 
Q 646 243 1030 243 
Q 1408 243 1843 870 
Q 2336 1581 2336 2310 
z
" transform="scale(0.015625)"/>
      <path id="STIXGeneral-Regular-31" d="M 2522 0 
L 755 0 
L 755 96 
Q 1107 115 1235 227 
Q 1363 339 1363 608 
L 1363 3482 
Q 1363 3795 1171 3795 
Q 1082 3795 883 3718 
L 710 3654 
L 710 3744 
L 1856 4326 
L 1914 4307 
L 1914 486 
Q 1914 275 2042 185 
Q 2170 96 2522 96 
L 2522 0 
z
" transform="scale(0.015625)"/>
     </defs>
     <use xlink:href="#STIXGeneral-Regular-20d7" transform="translate(54.821873 2)"/>
     <use xlink:href="#STIXGeneral-Italic-61" transform="translate(0 0.203125)"/>
     <use xlink:href="#STIXGeneral-Regular-31" transform="translate(51.643272 -13.025) scale(0.7)"/>
    </g>
   </g>
   <g id="text_2">
    <!-- $\vec{a}_2$ -->
    <g transform="translate(30.521477 110.108657) scale(0.1 -0.1)">
     <defs>
      <path id="STIXGeneral-Regular-32" d="M 3034 877 
L 2688 0 
L 186 0 
L 186 77 
L 1325 1286 
Q 1773 1754 1965 2144 
Q 2157 2534 2157 2950 
Q 2157 3379 1920 3616 
Q 1683 3853 1267 3853 
Q 922 3853 720 3673 
Q 518 3494 326 3021 
L 192 3053 
Q 301 3648 630 3987 
Q 960 4326 1523 4326 
Q 2054 4326 2380 4006 
Q 2707 3686 2707 3200 
Q 2707 2477 1888 1613 
L 832 486 
L 2330 486 
Q 2541 486 2665 569 
Q 2790 653 2944 915 
L 3034 877 
z
" transform="scale(0.015625)"/>
     </defs>
     <use xlink:href="#STIXGeneral-Regular-20d7" transform="translate(54.821873 2)"/>
     <use xlink:href="#STIXGeneral-Italic-61" transform="translate(0 0.203125)"/>
     <use xlink:href="#STIXGeneral-Regular-32" transform="translate(51.643272 -13.025) scale(0.7)"/>
    </g>
   </g>
   <g id="text_3">
    <!-- $\vec{a}_3$ -->
    <g transform="translate(23.911952 114.858688) scale(0.1 -0.1)">
     <defs>
      <path id="STIXGeneral-Regular-33" d="M 390 3264 
L 288 3290 
Q 435 3770 748 4048 
Q 1062 4326 1542 4326 
Q 1990 4326 2265 4083 
Q 2541 3840 2541 3450 
Q 2541 2925 1946 2566 
Q 2298 2413 2477 2227 
Q 2758 1914 2758 1402 
Q 2758 890 2464 506 
Q 2246 211 1840 60 
Q 1434 -90 979 -90 
Q 262 -90 262 275 
Q 262 378 339 442 
Q 416 506 525 506 
Q 685 506 915 339 
Q 1197 141 1466 141 
Q 1818 141 2058 425 
Q 2298 710 2298 1120 
Q 2298 1856 1632 2048 
Q 1434 2112 979 2112 
L 979 2202 
Q 1338 2323 1517 2432 
Q 2035 2726 2035 3290 
Q 2035 3610 1852 3776 
Q 1670 3942 1344 3942 
Q 768 3942 390 3264 
z
" transform="scale(0.015625)"/>
     </defs>
     <use xlink:href="#STIXGeneral-Regular-20d7" transform="translate(54.821873 2)"/>
     <use xlink:href="#STIXGeneral-Italic-61" transform="translate(0 0.203125)"/>
     <use xlink:href="#STIXGeneral-Regular-33" transform="translate(51.643272 -13.025) scale(0.7)"/>
    </g>
   </g>
   <g id="patch_5">
    <path d="M 22.736953 122.372843 
Q 25.211953 118.089768 27.295383 114.484316 
" clip-path="url(#p25a75ec695)" style="fill: none; stroke: #000000; stroke-width: 0.7; stroke-linecap: round"/>
    <path d="M 24.682294 116.208197 
L 27.295383 114.484316 
L 27.106635 117.609116 
z
" clip-path="url(#p25a75ec695)" style="stroke: #000000; stroke-width: 0.7; stroke-linecap: round"/>
   </g>
   <g id="Line3DCollection_1">
    <path d="M 22.736953 122.372843 
L 35.708041 114.166756 
" clip-path="url(#p25a75ec695)" style="fill: none; stroke: #5ab4bd; stroke-opacity: 0.7"/>
    <path d="M 35.708041 114.166756 
L 48.679128 105.960668 
" clip-path="url(#p25a75ec695)" style="fill: none; stroke: #324739; stroke-opacity: 0.7"/>
    <path d="M 39.236949 93.819007 
L 43.958039 99.889838 
" clip-path="url(#p25a75ec695)" style="fill: none; stroke: #5ab4bd; stroke-opacity: 0.7"/>
    <path d="M 43.958039 99.889838 
L 48.679128 105.960668 
" clip-path="url(#p25a75ec695)" style="fill: none; stroke: #324739; stroke-opacity: 0.7"/>
    <path d="M 74.621304 127.260475 
L 61.650216 116.610572 
" clip-path="url(#p25a75ec695)" style="fill: none; stroke: #5ab4bd; stroke-opacity: 0.7"/>
    <path d="M 61.650216 116.610572 
L 48.679128 105.960668 
" clip-path="url(#p25a75ec695)" style="fill: none; stroke: #324739; stroke-opacity: 0.7"/>
    <path d="M 58.121308 80.390349 
L 53.400218 93.175509 
" clip-path="url(#p25a75ec695)" style="fill: none; stroke: #5ab4bd; stroke-opacity: 0.7"/>
    <path d="M 53.400218 93.175509 
L 48.679128 105.960668 
" clip-path="url(#p25a75ec695)" style="fill: none; stroke: #324739; stroke-opacity: 0.7"/>
   </g>
   <g id="Path3DCollection_3">
    <path d="M 58.121308 83.925883 
C 59.058943 83.925883 59.9583 83.553357 60.621308 82.890349 
C 61.284316 82.227341 61.656842 81.327983 61.656842 80.390349 
C 61.656842 79.452714 61.284316 78.553357 60.621308 77.890349 
C 59.9583 77.227341 59.058943 76.854815 58.121308 76.854815 
C 57.183673 76.854815 56.284316 77.227341 55.621308 77.890349 
C 54.9583 78.553357 54.585774 79.452714 54.585774 80.390349 
C 54.585774 81.327983 54.9583 82.227341 55.621308 82.890349 
C 56.284316 83.553357 57.183673 83.925883 58.121308 83.925883 
z
" clip-path="url(#p25a75ec695)" style="fill: #5ab4bd; stroke: #5ab4bd"/>
    <path d="M 22.736953 125.908377 
C 23.674588 125.908377 24.573945 125.535851 25.236953 124.872843 
C 25.899961 124.209835 26.272487 123.310478 26.272487 122.372843 
C 26.272487 121.435208 25.899961 120.535851 25.236953 119.872843 
C 24.573945 119.209835 23.674588 118.837309 22.736953 118.837309 
C 21.799319 118.837309 20.899961 119.209835 20.236953 119.872843 
C 19.573945 120.535851 19.201419 121.435208 19.201419 122.372843 
C 19.201419 123.310478 19.573945 124.209835 20.236953 124.872843 
C 20.899961 125.535851 21.799319 125.908377 22.736953 125.908377 
z
" clip-path="url(#p25a75ec695)" style="fill: #5ab4bd; stroke: #5ab4bd"/>
    <path d="M 110.005658 88.813514 
C 110.943293 88.813514 111.842651 88.440988 112.505658 87.777981 
C 113.168666 87.114973 113.541192 86.215615 113.541192 85.277981 
C 113.541192 84.340346 113.168666 83.440988 112.505658 82.777981 
C 111.842651 82.114973 110.943293 81.742447 110.005658 81.742447 
C 109.068024 81.742447 108.168666 82.114973 107.505658 82.777981 
C 106.842651 83.440988 106.470125 84.340346 106.470125 85.277981 
C 106.470125 86.215615 106.842651 87.114973 107.505658 87.777981 
C 108.168666 88.440988 109.068024 88.813514 110.005658 88.813514 
z
" clip-path="url(#p25a75ec695)" style="fill: #5ab4bd; stroke: #5ab4bd"/>
    <path d="M 48.679128 109.496202 
C 49.616763 109.496202 50.516121 109.123676 51.179128 108.460668 
C 51.842136 107.797661 52.214662 106.898303 52.214662 105.960668 
C 52.214662 105.023034 51.842136 104.123676 51.179128 103.460668 
C 50.516121 102.797661 49.616763 102.425134 48.679128 102.425134 
C 47.741494 102.425134 46.842136 102.797661 46.179128 103.460668 
C 45.516121 104.123676 45.143595 105.023034 45.143595 105.960668 
C 45.143595 106.898303 45.516121 107.797661 46.179128 108.460668 
C 46.842136 109.123676 47.741494 109.496202 48.679128 109.496202 
z
" clip-path="url(#p25a75ec695)" style="fill: #324739; stroke: #324739"/>
    <path d="M 74.621304 130.796009 
C 75.558938 130.796009 76.458296 130.423483 77.121304 129.760475 
C 77.784311 129.097467 78.156838 128.198109 78.156838 127.260475 
C 78.156838 126.32284 77.784311 125.423483 77.121304 124.760475 
C 76.458296 124.097467 75.558938 123.724941 74.621304 123.724941 
C 73.683669 123.724941 72.784311 124.097467 72.121304 124.760475 
C 71.458296 125.423483 71.08577 126.32284 71.08577 127.260475 
C 71.08577 128.198109 71.458296 129.097467 72.121304 129.760475 
C 72.784311 130.423483 73.683669 130.796009 74.621304 130.796009 
z
" clip-path="url(#p25a75ec695)" style="fill: #5ab4bd; stroke: #5ab4bd"/>
    <path d="M 74.621304 55.372046 
C 75.558938 55.372046 76.458296 54.99952 77.121304 54.336513 
C 77.784311 53.673505 78.156838 52.774147 78.156838 51.836513 
C 78.156838 50.898878 77.784311 49.99952 77.121304 49.336513 
C 76.458296 48.673505 75.558938 48.300979 74.621304 48.300979 
C 73.683669 48.300979 72.784311 48.673505 72.121304 49.336513 
C 71.458296 49.99952 71.08577 50.898878 71.08577 51.836513 
C 71.08577 52.774147 71.458296 53.673505 72.121304 54.336513 
C 72.784311 54.99952 73.683669 55.372046 74.621304 55.372046 
z
" clip-path="url(#p25a75ec695)" style="fill: #5ab4bd; stroke: #5ab4bd"/>
    <path d="M 39.236949 97.354541 
C 40.174583 97.354541 41.073941 96.982015 41.736949 96.319007 
C 42.399957 95.655999 42.772483 94.756641 42.772483 93.819007 
C 42.772483 92.881372 42.399957 91.982015 41.736949 91.319007 
C 41.073941 90.655999 40.174583 90.283473 39.236949 90.283473 
C 38.299314 90.283473 37.399957 90.655999 36.736949 91.319007 
C 36.073941 91.982015 35.701415 92.881372 35.701415 93.819007 
C 35.701415 94.756641 36.073941 95.655999 36.736949 96.319007 
C 37.399957 96.982015 38.299314 97.354541 39.236949 97.354541 
z
" clip-path="url(#p25a75ec695)" style="fill: #5ab4bd; stroke: #5ab4bd"/>
    <path d="M 126.505654 60.259678 
C 127.443289 60.259678 128.342646 59.887152 129.005654 59.224144 
C 129.668662 58.561137 130.041188 57.661779 130.041188 56.724144 
C 130.041188 55.78651 129.668662 54.887152 129.005654 54.224144 
C 128.342646 53.561137 127.443289 53.18861 126.505654 53.18861 
C 125.56802 53.18861 124.668662 53.561137 124.005654 54.224144 
C 123.342646 54.887152 122.97012 55.78651 122.97012 56.724144 
C 122.97012 57.661779 123.342646 58.561137 124.005654 59.224144 
C 124.668662 59.887152 125.56802 60.259678 126.505654 60.259678 
z
" clip-path="url(#p25a75ec695)" style="fill: #5ab4bd; stroke: #5ab4bd"/>
    <path d="M 91.121299 102.242173 
C 92.058934 102.242173 92.958292 101.869646 93.621299 101.206639 
C 94.284307 100.543631 94.656833 99.644273 94.656833 98.706639 
C 94.656833 97.769004 94.284307 96.869646 93.621299 96.206639 
C 92.958292 95.543631 92.058934 95.171105 91.121299 95.171105 
C 90.183665 95.171105 89.284307 95.543631 88.621299 96.206639 
C 87.958292 96.869646 87.585765 97.769004 87.585765 98.706639 
C 87.585765 99.644273 87.958292 100.543631 88.621299 101.206639 
C 89.284307 101.869646 90.183665 102.242173 91.121299 102.242173 
z
" clip-path="url(#p25a75ec695)" style="fill: #5ab4bd; stroke: #5ab4bd"/>
   </g>
   <g id="legend_1">
    <g id="line2d_7">
     <path d="M 14.697 13.4475 
L 23.027 13.4475 
L 31.357 13.4475 
" style="fill: none; stroke: #0000ff; stroke-width: 1.5; stroke-linecap: round"/>
    </g>
    <g id="text_4">
     <!-- original -->
     <g transform="translate(38.021 16.363) scale(0.0833 -0.0833)">
      <defs>
       <path id="STIXGeneral-Regular-6f" d="M 3008 1478 
Q 3008 806 2608 371 
Q 2208 -64 1568 -64 
Q 979 -64 582 368 
Q 186 800 186 1459 
Q 186 2125 582 2534 
Q 979 2944 1626 2944 
Q 2221 2944 2614 2537 
Q 3008 2131 3008 1478 
z
M 2432 1306 
Q 2432 2035 2112 2445 
Q 1856 2765 1504 2765 
Q 1171 2765 966 2493 
Q 762 2221 762 1747 
Q 762 928 1101 435 
Q 1318 115 1677 115 
Q 2029 115 2230 432 
Q 2432 749 2432 1306 
z
" transform="scale(0.015625)"/>
       <path id="STIXGeneral-Regular-72" d="M 1024 2931 
L 1024 2342 
Q 1267 2688 1430 2816 
Q 1594 2944 1792 2944 
Q 1958 2944 2051 2854 
Q 2144 2765 2144 2605 
Q 2144 2470 2077 2393 
Q 2010 2317 1894 2317 
Q 1773 2317 1638 2445 
Q 1536 2541 1472 2541 
Q 1338 2541 1181 2355 
Q 1024 2170 1024 2016 
L 1024 576 
Q 1024 301 1133 205 
Q 1242 109 1568 96 
L 1568 0 
L 32 0 
L 32 96 
Q 339 154 412 224 
Q 486 294 486 538 
L 486 2138 
Q 486 2349 438 2435 
Q 390 2522 269 2522 
Q 166 2522 45 2496 
L 45 2598 
Q 448 2726 992 2944 
L 1024 2931 
z
" transform="scale(0.015625)"/>
       <path id="STIXGeneral-Regular-69" d="M 1152 4045 
Q 1152 3904 1056 3811 
Q 960 3718 819 3718 
Q 685 3718 592 3811 
Q 499 3904 499 4045 
Q 499 4179 595 4275 
Q 691 4371 826 4371 
Q 966 4371 1059 4275 
Q 1152 4179 1152 4045 
z
M 1619 0 
L 102 0 
L 102 96 
Q 435 115 521 211 
Q 608 307 608 666 
L 608 2118 
Q 608 2342 563 2432 
Q 518 2522 397 2522 
Q 243 2522 128 2490 
L 128 2592 
L 1120 2944 
L 1146 2918 
L 1146 672 
Q 1146 314 1226 218 
Q 1306 122 1619 96 
L 1619 0 
z
" transform="scale(0.015625)"/>
       <path id="STIXGeneral-Regular-67" d="M 3008 2483 
L 2477 2483 
Q 2598 2208 2598 1946 
Q 2598 1453 2265 1203 
Q 1933 954 1600 954 
Q 1530 954 1357 973 
L 1235 986 
Q 1107 947 979 812 
Q 851 678 851 582 
Q 851 435 1350 410 
L 2176 371 
Q 2528 358 2739 172 
Q 2950 -13 2950 -314 
Q 2950 -685 2566 -986 
Q 2035 -1395 1286 -1395 
Q 826 -1395 502 -1212 
Q 179 -1030 179 -774 
Q 179 -595 320 -419 
Q 461 -243 806 6 
Q 602 102 534 172 
Q 467 243 467 346 
Q 467 531 762 787 
Q 909 915 1037 1043 
Q 717 1203 579 1401 
Q 442 1600 442 1901 
Q 442 2336 752 2640 
Q 1062 2944 1510 2944 
Q 1766 2944 2022 2848 
L 2163 2797 
Q 2349 2733 2515 2733 
L 3008 2733 
L 3008 2483 
z
M 973 2163 
L 973 2144 
Q 973 1683 1155 1398 
Q 1338 1114 1632 1114 
Q 1850 1114 1978 1270 
Q 2106 1427 2106 1690 
Q 2106 2112 1914 2464 
Q 1754 2765 1446 2765 
Q 1222 2765 1097 2605 
Q 973 2445 973 2163 
z
M 2771 -410 
Q 2771 -230 2595 -163 
Q 2419 -96 1978 -96 
Q 1344 -96 941 -13 
Q 749 -243 688 -348 
Q 627 -454 627 -563 
Q 627 -774 880 -902 
Q 1133 -1030 1555 -1030 
Q 2099 -1030 2435 -860 
Q 2771 -691 2771 -410 
z
" transform="scale(0.015625)"/>
       <path id="STIXGeneral-Regular-6e" d="M 3104 0 
L 1773 0 
L 1779 96 
Q 2016 115 2096 233 
Q 2176 352 2176 672 
L 2176 1946 
Q 2176 2592 1709 2592 
Q 1549 2592 1408 2515 
Q 1267 2438 1050 2227 
L 1050 461 
Q 1050 269 1136 192 
Q 1222 115 1466 96 
L 1466 0 
L 115 0 
L 115 96 
Q 358 115 435 214 
Q 512 314 512 602 
L 512 2157 
Q 512 2394 467 2483 
Q 422 2573 288 2573 
Q 160 2573 102 2547 
L 102 2656 
Q 550 2784 979 2944 
L 1030 2925 
L 1030 2426 
L 1037 2426 
Q 1491 2944 1958 2944 
Q 2323 2944 2518 2688 
Q 2714 2432 2714 1958 
L 2714 544 
Q 2714 288 2790 205 
Q 2867 122 3104 96 
L 3104 0 
z
" transform="scale(0.015625)"/>
       <path id="STIXGeneral-Regular-61" d="M 2829 422 
L 2829 243 
Q 2586 -64 2253 -64 
Q 1888 -64 1843 403 
L 1837 403 
Q 1427 -64 909 -64 
Q 608 -64 422 112 
Q 237 288 237 602 
Q 237 1050 685 1350 
Q 992 1555 1837 1869 
L 1837 2214 
Q 1837 2502 1699 2646 
Q 1562 2790 1338 2790 
Q 1146 2790 1018 2697 
Q 890 2605 890 2477 
Q 890 2419 909 2348 
Q 928 2278 928 2208 
Q 928 2112 841 2029 
Q 755 1946 634 1946 
Q 525 1946 441 2029 
Q 358 2112 358 2240 
Q 358 2547 685 2752 
Q 986 2944 1421 2944 
Q 1939 2944 2176 2656 
Q 2291 2522 2323 2384 
Q 2355 2246 2355 1946 
L 2355 723 
Q 2355 301 2554 301 
Q 2682 301 2829 422 
z
M 1837 813 
L 1837 1715 
Q 1248 1510 1018 1293 
Q 800 1094 800 800 
Q 800 557 921 432 
Q 1043 307 1242 307 
Q 1453 307 1613 410 
Q 1747 506 1792 589 
Q 1837 672 1837 813 
z
" transform="scale(0.015625)"/>
       <path id="STIXGeneral-Regular-6c" d="M 1645 0 
L 134 0 
L 134 96 
Q 435 122 531 221 
Q 627 320 627 589 
L 627 3590 
Q 627 3821 569 3910 
Q 512 4000 358 4000 
Q 224 4000 122 3987 
L 122 4090 
Q 730 4237 1133 4371 
L 1165 4346 
L 1165 557 
Q 1165 288 1254 201 
Q 1344 115 1645 96 
L 1645 0 
z
" transform="scale(0.015625)"/>
      </defs>
      <use xlink:href="#STIXGeneral-Regular-6f"/>
      <use xlink:href="#STIXGeneral-Regular-72" x="49.999985"/>
      <use xlink:href="#STIXGeneral-Regular-69" x="83.299973"/>
      <use xlink:href="#STIXGeneral-Regular-67" x="111.09996"/>
      <use xlink:href="#STIXGeneral-Regular-69" x="161.099945"/>
      <use xlink:href="#STIXGeneral-Regular-6e" x="188.899933"/>
      <use xlink:href="#STIXGeneral-Regular-61" x="238.899918"/>
      <use xlink:href="#STIXGeneral-Regular-6c" x="283.299911"/>
     </g>
    </g>
    <g id="Path3DCollection_4">
     <defs>
      <path id="m54ba09a6f9" d="M 0 3.535534 
C 0.937635 3.535534 1.836992 3.163008 2.5 2.5 
C 3.163008 1.836992 3.535534 0.937635 3.535534 0 
C 3.535534 -0.937635 3.163008 -1.836992 2.5 -2.5 
C 1.836992 -3.163008 0.937635 -3.535534 0 -3.535534 
C -0.937635 -3.535534 -1.836992 -3.163008 -2.5 -2.5 
C -3.163008 -1.836992 -3.535534 -0.937635 -3.535534 0 
C -3.535534 0.937635 -3.163008 1.836992 -2.5 2.5 
C -1.836992 3.163008 -0.937635 3.535534 0 3.535534 
z
" style="stroke: #5ab4bd"/>
     </defs>
     <g>
      <use xlink:href="#m54ba09a6f9" x="88.925109" y="14.176375" style="fill: #5ab4bd; stroke: #5ab4bd"/>
     </g>
    </g>
    <g id="text_5">
     <!-- Ga -->
     <g transform="translate(103.919109 16.363) scale(0.0833 -0.0833)">
      <defs>
       <path id="STIXGeneral-Regular-47" d="M 4538 2266 
L 4538 2150 
Q 4256 2125 4173 2035 
Q 4090 1946 4090 1638 
L 4090 358 
Q 3539 -90 2464 -90 
Q 1965 -90 1507 89 
Q 1050 269 736 595 
Q 205 1152 205 2093 
Q 205 3155 890 3776 
Q 1491 4326 2419 4326 
Q 2829 4326 3270 4179 
Q 3443 4115 3552 4115 
Q 3654 4115 3731 4176 
Q 3808 4237 3840 4326 
L 3981 4326 
L 4032 2976 
L 3885 2976 
Q 3680 3475 3430 3718 
Q 3059 4070 2496 4070 
Q 1856 4070 1427 3629 
Q 934 3136 934 2074 
Q 934 1190 1395 678 
Q 1856 166 2618 166 
Q 2982 166 3225 281 
Q 3469 397 3469 557 
L 3469 1562 
Q 3469 1933 3376 2025 
Q 3283 2118 2899 2150 
L 2899 2266 
L 4538 2266 
z
" transform="scale(0.015625)"/>
      </defs>
      <use xlink:href="#STIXGeneral-Regular-47"/>
      <use xlink:href="#STIXGeneral-Regular-61" x="72.199982"/>
     </g>
    </g>
    <g id="Path3DCollection_5">
     <defs>
      <path id="m60f4afeeb9" d="M 0 3.535534 
C 0.937635 3.535534 1.836992 3.163008 2.5 2.5 
C 3.163008 1.836992 3.535534 0.937635 3.535534 0 
C 3.535534 -0.937635 3.163008 -1.836992 2.5 -2.5 
C 1.836992 -3.163008 0.937635 -3.535534 0 -3.535534 
C -0.937635 -3.535534 -1.836992 -3.163008 -2.5 -2.5 
C -3.163008 -1.836992 -3.535534 -0.937635 -3.535534 0 
C -3.535534 0.937635 -3.163008 1.836992 -2.5 2.5 
C -1.836992 3.163008 -0.937635 3.535534 0 3.535534 
z
" style="stroke: #324739"/>
     </defs>
     <g>
      <use xlink:href="#m60f4afeeb9" x="138.62267" y="14.176375" style="fill: #324739; stroke: #324739"/>
     </g>
    </g>
    <g id="text_6">
     <!-- As -->
     <g transform="translate(153.61667 16.363) scale(0.0833 -0.0833)">
      <defs>
       <path id="STIXGeneral-Regular-41" d="M 4525 0 
L 2893 0 
L 2893 122 
Q 3149 122 3245 179 
Q 3334 224 3334 333 
Q 3334 499 3213 781 
L 2950 1382 
L 1274 1382 
L 979 653 
Q 922 506 922 384 
Q 922 237 1027 179 
Q 1133 122 1370 122 
L 1370 0 
L 96 0 
L 96 122 
Q 365 147 486 316 
Q 608 486 902 1190 
L 2221 4314 
L 2349 4314 
L 3923 710 
Q 4064 378 4176 262 
Q 4288 147 4525 122 
L 4525 0 
z
M 2861 1645 
L 2118 3405 
L 1382 1645 
L 2861 1645 
z
" transform="scale(0.015625)"/>
       <path id="STIXGeneral-Regular-73" d="M 998 1926 
L 1664 1523 
Q 1984 1331 2105 1164 
Q 2227 998 2227 736 
Q 2227 416 1961 176 
Q 1696 -64 1331 -64 
Q 1030 -64 864 -6 
Q 691 51 570 51 
Q 461 51 416 -26 
L 333 -26 
L 333 979 
L 435 979 
Q 538 512 730 294 
Q 922 77 1248 77 
Q 1485 77 1632 211 
Q 1779 346 1779 550 
Q 1779 845 1440 1030 
L 1094 1222 
Q 326 1651 326 2150 
Q 326 2522 566 2730 
Q 806 2938 1210 2938 
Q 1491 2938 1638 2867 
Q 1754 2816 1818 2816 
Q 1862 2816 1920 2880 
L 1990 2880 
L 2022 2010 
L 1926 2010 
Q 1818 2445 1654 2621 
Q 1491 2797 1203 2797 
Q 986 2797 854 2688 
Q 723 2579 723 2362 
Q 723 2253 796 2128 
Q 870 2003 998 1926 
z
" transform="scale(0.015625)"/>
      </defs>
      <use xlink:href="#STIXGeneral-Regular-41"/>
      <use xlink:href="#STIXGeneral-Regular-73" x="72.199982"/>
     </g>
    </g>
   </g>
  </g>
  <g id="patch_6">
   <path d="M 164.752941 156.969797 
L 296.047059 156.969797 
L 296.047059 25.67568 
L 164.752941 25.67568 
z
" style="fill: #ffffff"/>
  </g>
  <g id="axes_2">
   <g id="patch_7">
    <path d="M 177.7989 124.778959 
Q 187.393378 123.04018 196.217775 121.440961 
" clip-path="url(#pbf553a3598)" style="fill: none; stroke: #000000; stroke-width: 0.7; stroke-linecap: round"/>
    <path d="M 193.213002 120.562702 
L 196.217775 121.440961 
L 193.712305 123.317824 
z
" clip-path="url(#pbf553a3598)" style="stroke: #000000; stroke-width: 0.7; stroke-linecap: round"/>
   </g>
   <g id="Path3DCollection_6"/>
   <g id="line2d_8">
    <path d="M 177.7989 124.778959 
L 222.586404 141.33385 
L 222.586404 65.909887 
L 177.7989 49.354997 
L 177.7989 124.778959 
" clip-path="url(#pbf553a3598)" style="fill: none; stroke: #ff0000; stroke-width: 1.5; stroke-linecap: round"/>
   </g>
   <g id="line2d_9">
    <path d="M 177.7989 124.778959 
L 241.762085 113.1871 
L 286.54959 129.74199 
L 222.586404 141.33385 
L 177.7989 124.778959 
" clip-path="url(#pbf553a3598)" style="fill: none; stroke: #ff0000; stroke-width: 1.5; stroke-linecap: round"/>
   </g>
   <g id="line2d_10">
    <path d="M 177.7989 124.778959 
L 177.7989 49.354997 
L 241.762085 37.763138 
L 241.762085 113.1871 
L 177.7989 124.778959 
" clip-path="url(#pbf553a3598)" style="fill: none; stroke: #ff0000; stroke-width: 1.5; stroke-linecap: round"/>
   </g>
   <g id="line2d_11">
    <path d="M 241.762085 113.1871 
L 241.762085 37.763138 
L 286.54959 54.318028 
L 286.54959 129.74199 
L 241.762085 113.1871 
" clip-path="url(#pbf553a3598)" style="fill: none; stroke: #ff0000; stroke-width: 1.5; stroke-linecap: round"/>
   </g>
   <g id="line2d_12">
    <path d="M 222.586404 141.33385 
L 286.54959 129.74199 
L 286.54959 54.318028 
L 222.586404 65.909887 
L 222.586404 141.33385 
" clip-path="url(#pbf553a3598)" style="fill: none; stroke: #ff0000; stroke-width: 1.5; stroke-linecap: round"/>
   </g>
   <g id="line2d_13">
    <path d="M 177.7989 49.354997 
L 222.586404 65.909887 
L 286.54959 54.318028 
L 241.762085 37.763138 
L 177.7989 49.354997 
" clip-path="url(#pbf553a3598)" style="fill: none; stroke: #ff0000; stroke-width: 1.5; stroke-linecap: round"/>
   </g>
   <g id="patch_8">
    <path d="M 177.7989 124.778959 
Q 177.7989 113.465365 177.7989 102.934394 
" clip-path="url(#pbf553a3598)" style="fill: none; stroke: #000000; stroke-width: 0.7; stroke-linecap: round"/>
    <path d="M 176.3989 105.734394 
L 177.7989 102.934394 
L 179.1989 105.734394 
z
" clip-path="url(#pbf553a3598)" style="stroke: #000000; stroke-width: 0.7; stroke-linecap: round"/>
   </g>
   <g id="Path3DCollection_7"/>
   <g id="text_7">
    <!-- $\vec{a}_1$ -->
    <g transform="translate(188.874526 133.002858) scale(0.1 -0.1)">
     <use xlink:href="#STIXGeneral-Regular-20d7" transform="translate(54.821873 2)"/>
     <use xlink:href="#STIXGeneral-Italic-61" transform="translate(0 0.203125)"/>
     <use xlink:href="#STIXGeneral-Regular-31" transform="translate(51.643272 -13.025) scale(0.7)"/>
    </g>
   </g>
   <g id="text_8">
    <!-- $\vec{a}_2$ -->
    <g transform="translate(195.586015 123.151496) scale(0.1 -0.1)">
     <use xlink:href="#STIXGeneral-Regular-20d7" transform="translate(54.821873 2)"/>
     <use xlink:href="#STIXGeneral-Italic-61" transform="translate(0 0.203125)"/>
     <use xlink:href="#STIXGeneral-Regular-32" transform="translate(51.643272 -13.025) scale(0.7)"/>
    </g>
   </g>
   <g id="text_9">
    <!-- $\vec{a}_3$ -->
    <g transform="translate(173.1989 100.86026) scale(0.1 -0.1)">
     <use xlink:href="#STIXGeneral-Regular-20d7" transform="translate(54.821873 2)"/>
     <use xlink:href="#STIXGeneral-Italic-61" transform="translate(0 0.203125)"/>
     <use xlink:href="#STIXGeneral-Regular-33" transform="translate(51.643272 -13.025) scale(0.7)"/>
    </g>
   </g>
   <g id="patch_9">
    <path d="M 177.7989 124.778959 
Q 184.517025 127.262193 190.50107 129.474087 
" clip-path="url(#pbf553a3598)" style="fill: none; stroke: #000000; stroke-width: 0.7; stroke-linecap: round"/>
    <path d="M 188.36013 127.190148 
L 190.50107 129.474087 
L 187.389355 129.816476 
z
" clip-path="url(#pbf553a3598)" style="stroke: #000000; stroke-width: 0.7; stroke-linecap: round"/>
   </g>
   <g id="Line3DCollection_2">
    <path d="M 232.174245 127.260475 
L 218.580409 117.212101 
" clip-path="url(#pbf553a3598)" style="fill: none; stroke: #5ab4bd; stroke-opacity: 0.7"/>
    <path d="M 218.580409 117.212101 
L 204.986572 107.163726 
" clip-path="url(#pbf553a3598)" style="fill: none; stroke: #324739; stroke-opacity: 0.7"/>
    <path d="M 264.155838 83.752564 
L 250.562001 73.70419 
" clip-path="url(#pbf553a3598)" style="fill: none; stroke: #5ab4bd; stroke-opacity: 0.7"/>
    <path d="M 250.562001 73.70419 
L 236.968165 63.655816 
" clip-path="url(#pbf553a3598)" style="fill: none; stroke: #324739; stroke-opacity: 0.7"/>
    <path d="M 200.192652 95.344423 
L 213.786488 86.536807 
" clip-path="url(#pbf553a3598)" style="fill: none; stroke: #5ab4bd; stroke-opacity: 0.7"/>
    <path d="M 213.786488 86.536807 
L 227.380325 77.729191 
" clip-path="url(#pbf553a3598)" style="fill: none; stroke: #324739; stroke-opacity: 0.7"/>
    <path d="M 254.567997 97.825939 
L 240.974161 87.777565 
" clip-path="url(#pbf553a3598)" style="fill: none; stroke: #5ab4bd; stroke-opacity: 0.7"/>
    <path d="M 240.974161 87.777565 
L 227.380325 77.729191 
" clip-path="url(#pbf553a3598)" style="fill: none; stroke: #324739; stroke-opacity: 0.7"/>
    <path d="M 286.54959 129.74199 
L 272.955754 119.693616 
" clip-path="url(#pbf553a3598)" style="fill: none; stroke: #5ab4bd; stroke-opacity: 0.7"/>
    <path d="M 272.955754 119.693616 
L 259.361917 109.645242 
" clip-path="url(#pbf553a3598)" style="fill: none; stroke: #324739; stroke-opacity: 0.7"/>
    <path d="M 254.567997 97.825939 
L 256.964957 103.735591 
" clip-path="url(#pbf553a3598)" style="fill: none; stroke: #5ab4bd; stroke-opacity: 0.7"/>
    <path d="M 256.964957 103.735591 
L 259.361917 109.645242 
" clip-path="url(#pbf553a3598)" style="fill: none; stroke: #324739; stroke-opacity: 0.7"/>
    <path d="M 232.174245 51.836513 
L 234.571205 57.746164 
" clip-path="url(#pbf553a3598)" style="fill: none; stroke: #5ab4bd; stroke-opacity: 0.7"/>
    <path d="M 234.571205 57.746164 
L 236.968165 63.655816 
" clip-path="url(#pbf553a3598)" style="fill: none; stroke: #324739; stroke-opacity: 0.7"/>
    <path d="M 222.586404 65.909887 
L 224.983365 71.819539 
" clip-path="url(#pbf553a3598)" style="fill: none; stroke: #5ab4bd; stroke-opacity: 0.7"/>
    <path d="M 224.983365 71.819539 
L 227.380325 77.729191 
" clip-path="url(#pbf553a3598)" style="fill: none; stroke: #324739; stroke-opacity: 0.7"/>
    <path d="M 209.780492 81.271048 
L 223.374329 72.463432 
" clip-path="url(#pbf553a3598)" style="fill: none; stroke: #5ab4bd; stroke-opacity: 0.7"/>
    <path d="M 223.374329 72.463432 
L 236.968165 63.655816 
" clip-path="url(#pbf553a3598)" style="fill: none; stroke: #324739; stroke-opacity: 0.7"/>
    <path d="M 241.762085 37.763138 
L 239.365125 50.709477 
" clip-path="url(#pbf553a3598)" style="fill: none; stroke: #5ab4bd; stroke-opacity: 0.7"/>
    <path d="M 239.365125 50.709477 
L 236.968165 63.655816 
" clip-path="url(#pbf553a3598)" style="fill: none; stroke: #324739; stroke-opacity: 0.7"/>
    <path d="M 232.174245 51.836513 
L 229.777285 64.782852 
" clip-path="url(#pbf553a3598)" style="fill: none; stroke: #5ab4bd; stroke-opacity: 0.7"/>
    <path d="M 229.777285 64.782852 
L 227.380325 77.729191 
" clip-path="url(#pbf553a3598)" style="fill: none; stroke: #324739; stroke-opacity: 0.7"/>
    <path d="M 232.174245 127.260475 
L 245.768081 118.452858 
" clip-path="url(#pbf553a3598)" style="fill: none; stroke: #5ab4bd; stroke-opacity: 0.7"/>
    <path d="M 245.768081 118.452858 
L 259.361917 109.645242 
" clip-path="url(#pbf553a3598)" style="fill: none; stroke: #324739; stroke-opacity: 0.7"/>
    <path d="M 177.7989 124.778959 
L 191.392736 115.971343 
" clip-path="url(#pbf553a3598)" style="fill: none; stroke: #5ab4bd; stroke-opacity: 0.7"/>
    <path d="M 191.392736 115.971343 
L 204.986572 107.163726 
" clip-path="url(#pbf553a3598)" style="fill: none; stroke: #324739; stroke-opacity: 0.7"/>
    <path d="M 209.780492 81.271048 
L 207.383532 94.217387 
" clip-path="url(#pbf553a3598)" style="fill: none; stroke: #5ab4bd; stroke-opacity: 0.7"/>
    <path d="M 207.383532 94.217387 
L 204.986572 107.163726 
" clip-path="url(#pbf553a3598)" style="fill: none; stroke: #324739; stroke-opacity: 0.7"/>
    <path d="M 264.155838 83.752564 
L 261.758877 96.698903 
" clip-path="url(#pbf553a3598)" style="fill: none; stroke: #5ab4bd; stroke-opacity: 0.7"/>
    <path d="M 261.758877 96.698903 
L 259.361917 109.645242 
" clip-path="url(#pbf553a3598)" style="fill: none; stroke: #324739; stroke-opacity: 0.7"/>
    <path d="M 200.192652 95.344423 
L 202.589612 101.254075 
" clip-path="url(#pbf553a3598)" style="fill: none; stroke: #5ab4bd; stroke-opacity: 0.7"/>
    <path d="M 202.589612 101.254075 
L 204.986572 107.163726 
" clip-path="url(#pbf553a3598)" style="fill: none; stroke: #324739; stroke-opacity: 0.7"/>
   </g>
   <g id="Path3DCollection_8">
    <path d="M 241.762085 116.722634 
C 242.69972 116.722634 243.599078 116.350108 244.262085 115.6871 
C 244.925093 115.024092 245.297619 114.124734 245.297619 113.1871 
C 245.297619 112.249465 244.925093 111.350108 244.262085 110.6871 
C 243.599078 110.024092 242.69972 109.651566 241.762085 109.651566 
C 240.824451 109.651566 239.925093 110.024092 239.262085 110.6871 
C 238.599078 111.350108 238.226551 112.249465 238.226551 113.1871 
C 238.226551 114.124734 238.599078 115.024092 239.262085 115.6871 
C 239.925093 116.350108 240.824451 116.722634 241.762085 116.722634 
z
" clip-path="url(#pbf553a3598)" style="fill: #5ab4bd; stroke: #5ab4bd"/>
    <path d="M 241.762085 41.298672 
C 242.69972 41.298672 243.599078 40.926145 244.262085 40.263138 
C 244.925093 39.60013 245.297619 38.700772 245.297619 37.763138 
C 245.297619 36.825503 244.925093 35.926145 244.262085 35.263138 
C 243.599078 34.60013 242.69972 34.227604 241.762085 34.227604 
C 240.824451 34.227604 239.925093 34.60013 239.262085 35.263138 
C 238.599078 35.926145 238.226551 36.825503 238.226551 37.763138 
C 238.226551 38.700772 238.599078 39.60013 239.262085 40.263138 
C 239.925093 40.926145 240.824451 41.298672 241.762085 41.298672 
z
" clip-path="url(#pbf553a3598)" style="fill: #5ab4bd; stroke: #5ab4bd"/>
    <path d="M 209.780492 84.806582 
C 210.718127 84.806582 211.617485 84.434056 212.280492 83.771048 
C 212.9435 83.108041 213.316026 82.208683 213.316026 81.271048 
C 213.316026 80.333414 212.9435 79.434056 212.280492 78.771048 
C 211.617485 78.108041 210.718127 77.735514 209.780492 77.735514 
C 208.842858 77.735514 207.9435 78.108041 207.280492 78.771048 
C 206.617485 79.434056 206.244959 80.333414 206.244959 81.271048 
C 206.244959 82.208683 206.617485 83.108041 207.280492 83.771048 
C 207.9435 84.434056 208.842858 84.806582 209.780492 84.806582 
z
" clip-path="url(#pbf553a3598)" style="fill: #5ab4bd; stroke: #5ab4bd"/>
    <path d="M 264.155838 87.288098 
C 265.093472 87.288098 265.99283 86.915572 266.655838 86.252564 
C 267.318845 85.589556 267.691372 84.690199 267.691372 83.752564 
C 267.691372 82.81493 267.318845 81.915572 266.655838 81.252564 
C 265.99283 80.589556 265.093472 80.21703 264.155838 80.21703 
C 263.218203 80.21703 262.318845 80.589556 261.655838 81.252564 
C 260.99283 81.915572 260.620304 82.81493 260.620304 83.752564 
C 260.620304 84.690199 260.99283 85.589556 261.655838 86.252564 
C 262.318845 86.915572 263.218203 87.288098 264.155838 87.288098 
z
" clip-path="url(#pbf553a3598)" style="fill: #5ab4bd; stroke: #5ab4bd"/>
    <path d="M 236.968165 67.19135 
C 237.9058 67.19135 238.805157 66.818823 239.468165 66.155816 
C 240.131173 65.492808 240.503699 64.59345 240.503699 63.655816 
C 240.503699 62.718181 240.131173 61.818823 239.468165 61.155816 
C 238.805157 60.492808 237.9058 60.120282 236.968165 60.120282 
C 236.03053 60.120282 235.131173 60.492808 234.468165 61.155816 
C 233.805157 61.818823 233.432631 62.718181 233.432631 63.655816 
C 233.432631 64.59345 233.805157 65.492808 234.468165 66.155816 
C 235.131173 66.818823 236.03053 67.19135 236.968165 67.19135 
z
" clip-path="url(#pbf553a3598)" style="fill: #324739; stroke: #324739"/>
    <path d="M 177.7989 128.314493 
C 178.736534 128.314493 179.635892 127.941967 180.2989 127.278959 
C 180.961907 126.615951 181.334434 125.716594 181.334434 124.778959 
C 181.334434 123.841325 180.961907 122.941967 180.2989 122.278959 
C 179.635892 121.615951 178.736534 121.243425 177.7989 121.243425 
C 176.861265 121.243425 175.961907 121.615951 175.2989 122.278959 
C 174.635892 122.941967 174.263366 123.841325 174.263366 124.778959 
C 174.263366 125.716594 174.635892 126.615951 175.2989 127.278959 
C 175.961907 127.941967 176.861265 128.314493 177.7989 128.314493 
z
" clip-path="url(#pbf553a3598)" style="fill: #5ab4bd; stroke: #5ab4bd"/>
    <path d="M 232.174245 130.796009 
C 233.111879 130.796009 234.011237 130.423483 234.674245 129.760475 
C 235.337253 129.097467 235.709779 128.198109 235.709779 127.260475 
C 235.709779 126.32284 235.337253 125.423483 234.674245 124.760475 
C 234.011237 124.097467 233.111879 123.724941 232.174245 123.724941 
C 231.23661 123.724941 230.337253 124.097467 229.674245 124.760475 
C 229.011237 125.423483 228.638711 126.32284 228.638711 127.260475 
C 228.638711 128.198109 229.011237 129.097467 229.674245 129.760475 
C 230.337253 130.423483 231.23661 130.796009 232.174245 130.796009 
z
" clip-path="url(#pbf553a3598)" style="fill: #5ab4bd; stroke: #5ab4bd"/>
    <path d="M 204.986572 110.69926 
C 205.924207 110.69926 206.823565 110.326734 207.486572 109.663726 
C 208.14958 109.000719 208.522106 108.101361 208.522106 107.163726 
C 208.522106 106.226092 208.14958 105.326734 207.486572 104.663726 
C 206.823565 104.000719 205.924207 103.628192 204.986572 103.628192 
C 204.048938 103.628192 203.14958 104.000719 202.486572 104.663726 
C 201.823565 105.326734 201.451038 106.226092 201.451038 107.163726 
C 201.451038 108.101361 201.823565 109.000719 202.486572 109.663726 
C 203.14958 110.326734 204.048938 110.69926 204.986572 110.69926 
z
" clip-path="url(#pbf553a3598)" style="fill: #324739; stroke: #324739"/>
    <path d="M 286.54959 133.277524 
C 287.487224 133.277524 288.386582 132.904998 289.04959 132.24199 
C 289.712598 131.578983 290.085124 130.679625 290.085124 129.74199 
C 290.085124 128.804356 289.712598 127.904998 289.04959 127.24199 
C 288.386582 126.578983 287.487224 126.206457 286.54959 126.206457 
C 285.611955 126.206457 284.712598 126.578983 284.04959 127.24199 
C 283.386582 127.904998 283.014056 128.804356 283.014056 129.74199 
C 283.014056 130.679625 283.386582 131.578983 284.04959 132.24199 
C 284.712598 132.904998 285.611955 133.277524 286.54959 133.277524 
z
" clip-path="url(#pbf553a3598)" style="fill: #5ab4bd; stroke: #5ab4bd"/>
    <path d="M 259.361917 113.180776 
C 260.299552 113.180776 261.19891 112.80825 261.861917 112.145242 
C 262.524925 111.482234 262.897451 110.582877 262.897451 109.645242 
C 262.897451 108.707608 262.524925 107.80825 261.861917 107.145242 
C 261.19891 106.482234 260.299552 106.109708 259.361917 106.109708 
C 258.424283 106.109708 257.524925 106.482234 256.861917 107.145242 
C 256.19891 107.80825 255.826383 108.707608 255.826383 109.645242 
C 255.826383 110.582877 256.19891 111.482234 256.861917 112.145242 
C 257.524925 112.80825 258.424283 113.180776 259.361917 113.180776 
z
" clip-path="url(#pbf553a3598)" style="fill: #324739; stroke: #324739"/>
    <path d="M 177.7989 52.890531 
C 178.736534 52.890531 179.635892 52.518005 180.2989 51.854997 
C 180.961907 51.191989 181.334434 50.292631 181.334434 49.354997 
C 181.334434 48.417362 180.961907 47.518005 180.2989 46.854997 
C 179.635892 46.191989 178.736534 45.819463 177.7989 45.819463 
C 176.861265 45.819463 175.961907 46.191989 175.2989 46.854997 
C 174.635892 47.518005 174.263366 48.417362 174.263366 49.354997 
C 174.263366 50.292631 174.635892 51.191989 175.2989 51.854997 
C 175.961907 52.518005 176.861265 52.890531 177.7989 52.890531 
z
" clip-path="url(#pbf553a3598)" style="fill: #5ab4bd; stroke: #5ab4bd"/>
    <path d="M 232.174245 55.372046 
C 233.111879 55.372046 234.011237 54.99952 234.674245 54.336513 
C 235.337253 53.673505 235.709779 52.774147 235.709779 51.836513 
C 235.709779 50.898878 235.337253 49.99952 234.674245 49.336513 
C 234.011237 48.673505 233.111879 48.300979 232.174245 48.300979 
C 231.23661 48.300979 230.337253 48.673505 229.674245 49.336513 
C 229.011237 49.99952 228.638711 50.898878 228.638711 51.836513 
C 228.638711 52.774147 229.011237 53.673505 229.674245 54.336513 
C 230.337253 54.99952 231.23661 55.372046 232.174245 55.372046 
z
" clip-path="url(#pbf553a3598)" style="fill: #5ab4bd; stroke: #5ab4bd"/>
    <path d="M 286.54959 57.853562 
C 287.487224 57.853562 288.386582 57.481036 289.04959 56.818028 
C 289.712598 56.155021 290.085124 55.255663 290.085124 54.318028 
C 290.085124 53.380394 289.712598 52.481036 289.04959 51.818028 
C 288.386582 51.155021 287.487224 50.782494 286.54959 50.782494 
C 285.611955 50.782494 284.712598 51.155021 284.04959 51.818028 
C 283.386582 52.481036 283.014056 53.380394 283.014056 54.318028 
C 283.014056 55.255663 283.386582 56.155021 284.04959 56.818028 
C 284.712598 57.481036 285.611955 57.853562 286.54959 57.853562 
z
" clip-path="url(#pbf553a3598)" style="fill: #5ab4bd; stroke: #5ab4bd"/>
    <path d="M 200.192652 98.879957 
C 201.130287 98.879957 202.029644 98.507431 202.692652 97.844423 
C 203.35566 97.181416 203.728186 96.282058 203.728186 95.344423 
C 203.728186 94.406789 203.35566 93.507431 202.692652 92.844423 
C 202.029644 92.181416 201.130287 91.808889 200.192652 91.808889 
C 199.255018 91.808889 198.35566 92.181416 197.692652 92.844423 
C 197.029644 93.507431 196.657118 94.406789 196.657118 95.344423 
C 196.657118 96.282058 197.029644 97.181416 197.692652 97.844423 
C 198.35566 98.507431 199.255018 98.879957 200.192652 98.879957 
z
" clip-path="url(#pbf553a3598)" style="fill: #5ab4bd; stroke: #5ab4bd"/>
    <path d="M 254.567997 101.361473 
C 255.505632 101.361473 256.404989 100.988947 257.067997 100.325939 
C 257.731005 99.662931 258.103531 98.763574 258.103531 97.825939 
C 258.103531 96.888304 257.731005 95.988947 257.067997 95.325939 
C 256.404989 94.662931 255.505632 94.290405 254.567997 94.290405 
C 253.630363 94.290405 252.731005 94.662931 252.067997 95.325939 
C 251.404989 95.988947 251.032463 96.888304 251.032463 97.825939 
C 251.032463 98.763574 251.404989 99.662931 252.067997 100.325939 
C 252.731005 100.988947 253.630363 101.361473 254.567997 101.361473 
z
" clip-path="url(#pbf553a3598)" style="fill: #5ab4bd; stroke: #5ab4bd"/>
    <path d="M 227.380325 81.264724 
C 228.317959 81.264724 229.217317 80.892198 229.880325 80.229191 
C 230.543332 79.566183 230.915859 78.666825 230.915859 77.729191 
C 230.915859 76.791556 230.543332 75.892198 229.880325 75.229191 
C 229.217317 74.566183 228.317959 74.193657 227.380325 74.193657 
C 226.44269 74.193657 225.543332 74.566183 224.880325 75.229191 
C 224.217317 75.892198 223.844791 76.791556 223.844791 77.729191 
C 223.844791 78.666825 224.217317 79.566183 224.880325 80.229191 
C 225.543332 80.892198 226.44269 81.264724 227.380325 81.264724 
z
" clip-path="url(#pbf553a3598)" style="fill: #324739; stroke: #324739"/>
    <path d="M 222.586404 144.869384 
C 223.524039 144.869384 224.423397 144.496857 225.086404 143.83385 
C 225.749412 143.170842 226.121938 142.271484 226.121938 141.33385 
C 226.121938 140.396215 225.749412 139.496857 225.086404 138.83385 
C 224.423397 138.170842 223.524039 137.798316 222.586404 137.798316 
C 221.64877 137.798316 220.749412 138.170842 220.086404 138.83385 
C 219.423397 139.496857 219.050871 140.396215 219.050871 141.33385 
C 219.050871 142.271484 219.423397 143.170842 220.086404 143.83385 
C 220.749412 144.496857 221.64877 144.869384 222.586404 144.869384 
z
" clip-path="url(#pbf553a3598)" style="fill: #5ab4bd; stroke: #5ab4bd"/>
    <path d="M 222.586404 69.445421 
C 223.524039 69.445421 224.423397 69.072895 225.086404 68.409887 
C 225.749412 67.74688 226.121938 66.847522 226.121938 65.909887 
C 226.121938 64.972253 225.749412 64.072895 225.086404 63.409887 
C 224.423397 62.74688 223.524039 62.374354 222.586404 62.374354 
C 221.64877 62.374354 220.749412 62.74688 220.086404 63.409887 
C 219.423397 64.072895 219.050871 64.972253 219.050871 65.909887 
C 219.050871 66.847522 219.423397 67.74688 220.086404 68.409887 
C 220.749412 69.072895 221.64877 69.445421 222.586404 69.445421 
z
" clip-path="url(#pbf553a3598)" style="fill: #5ab4bd; stroke: #5ab4bd"/>
   </g>
   <g id="legend_2">
    <g id="line2d_14">
     <path d="M 172.249941 13.455309 
L 180.579941 13.455309 
L 188.909941 13.455309 
" style="fill: none; stroke: #ff0000; stroke-width: 1.5; stroke-linecap: round"/>
    </g>
    <g id="text_10">
     <!-- transformed -->
     <g transform="translate(195.573941 16.370809) scale(0.0833 -0.0833)">
      <defs>
       <path id="STIXGeneral-Regular-74" d="M 1702 493 
L 1786 422 
Q 1478 -64 1011 -64 
Q 448 -64 448 749 
L 448 2675 
L 109 2675 
Q 83 2694 83 2720 
Q 83 2771 192 2842 
Q 435 2982 813 3526 
Q 826 3546 874 3606 
Q 922 3667 941 3706 
Q 986 3706 986 3622 
L 986 2880 
L 1632 2880 
L 1632 2675 
L 986 2675 
L 986 845 
Q 986 538 1062 403 
Q 1139 269 1318 269 
Q 1510 269 1702 493 
z
" transform="scale(0.015625)"/>
       <path id="STIXGeneral-Regular-66" d="M 134 2880 
L 659 2880 
Q 666 3264 710 3478 
Q 755 3693 883 3910 
Q 1152 4371 1786 4371 
Q 2074 4371 2262 4259 
Q 2451 4147 2451 3974 
Q 2451 3866 2374 3789 
Q 2298 3712 2182 3712 
Q 2029 3712 1894 3942 
Q 1741 4192 1555 4192 
Q 1197 4192 1197 3622 
L 1197 2880 
L 1978 2880 
L 1978 2675 
L 1197 2675 
L 1197 666 
Q 1197 307 1299 208 
Q 1402 109 1792 96 
L 1792 0 
L 128 0 
L 128 96 
Q 474 115 566 214 
Q 659 314 659 666 
L 659 2675 
L 134 2675 
L 134 2880 
z
" transform="scale(0.015625)"/>
       <path id="STIXGeneral-Regular-6d" d="M 4960 0 
L 3565 0 
L 3565 96 
Q 3834 122 3907 208 
Q 3981 294 3981 576 
L 3981 1894 
Q 3981 2278 3869 2444 
Q 3757 2611 3488 2611 
Q 3264 2611 3107 2521 
Q 2950 2432 2803 2221 
L 2803 608 
Q 2803 301 2896 201 
Q 2989 102 3264 96 
L 3264 0 
L 1830 0 
L 1830 96 
Q 2112 115 2189 188 
Q 2266 262 2266 550 
L 2266 1901 
Q 2266 2611 1850 2611 
Q 1670 2611 1468 2531 
Q 1267 2451 1171 2336 
Q 1088 2240 1088 2227 
L 1088 448 
Q 1088 243 1177 176 
Q 1267 109 1523 96 
L 1523 0 
L 102 0 
L 102 96 
Q 371 102 460 195 
Q 550 288 550 563 
L 550 2150 
Q 550 2387 499 2480 
Q 448 2573 326 2573 
Q 230 2573 122 2547 
L 122 2656 
Q 557 2778 1011 2944 
L 1062 2925 
L 1062 2451 
L 1075 2451 
Q 1363 2752 1584 2848 
Q 1805 2944 2054 2944 
Q 2560 2944 2733 2406 
Q 3232 2944 3776 2944 
Q 4518 2944 4518 1792 
L 4518 493 
Q 4518 282 4582 202 
Q 4646 122 4794 109 
L 4960 96 
L 4960 0 
z
" transform="scale(0.015625)"/>
       <path id="STIXGeneral-Regular-65" d="M 2611 1050 
L 2714 1005 
Q 2330 -64 1376 -64 
Q 813 -64 486 329 
Q 160 723 160 1389 
Q 160 2074 525 2509 
Q 890 2944 1485 2944 
Q 2061 2944 2374 2502 
Q 2560 2246 2592 1773 
L 621 1773 
Q 646 1370 700 1158 
Q 755 947 915 730 
Q 1184 378 1626 378 
Q 1939 378 2153 531 
Q 2368 685 2611 1050 
z
M 634 1978 
L 1939 1978 
Q 1882 2381 1750 2547 
Q 1619 2714 1312 2714 
Q 1043 2714 864 2525 
Q 685 2336 634 1978 
z
" transform="scale(0.015625)"/>
       <path id="STIXGeneral-Regular-64" d="M 3142 269 
L 2202 -64 
L 2176 -45 
L 2176 365 
Q 1869 -64 1357 -64 
Q 826 -64 499 317 
Q 173 698 173 1312 
Q 173 1990 563 2467 
Q 954 2944 1504 2944 
Q 1850 2944 2176 2669 
L 2176 3667 
Q 2176 3866 2118 3930 
Q 2061 3994 1882 3994 
Q 1792 3994 1741 3987 
L 1741 4090 
Q 2323 4243 2682 4371 
L 2714 4358 
L 2714 730 
Q 2714 506 2768 435 
Q 2822 365 2995 365 
Q 3034 365 3142 371 
L 3142 269 
z
M 2176 653 
L 2176 2125 
Q 2176 2381 1981 2573 
Q 1786 2765 1523 2765 
Q 1158 2765 940 2438 
Q 723 2112 723 1568 
Q 723 979 963 624 
Q 1203 269 1606 269 
Q 1907 269 2080 474 
Q 2176 582 2176 653 
z
" transform="scale(0.015625)"/>
      </defs>
      <use xlink:href="#STIXGeneral-Regular-74"/>
      <use xlink:href="#STIXGeneral-Regular-72" x="27.799988"/>
      <use xlink:href="#STIXGeneral-Regular-61" x="61.099976"/>
      <use xlink:href="#STIXGeneral-Regular-6e" x="105.499969"/>
      <use xlink:href="#STIXGeneral-Regular-73" x="155.499954"/>
      <use xlink:href="#STIXGeneral-Regular-66" x="194.399948"/>
      <use xlink:href="#STIXGeneral-Regular-6f" x="227.699936"/>
      <use xlink:href="#STIXGeneral-Regular-72" x="277.699921"/>
      <use xlink:href="#STIXGeneral-Regular-6d" x="310.999908"/>
      <use xlink:href="#STIXGeneral-Regular-65" x="388.799896"/>
      <use xlink:href="#STIXGeneral-Regular-64" x="433.19989"/>
     </g>
    </g>
    <g id="Path3DCollection_9">
     <g>
      <use xlink:href="#m54ba09a6f9" x="260.814761" y="14.184184" style="fill: #5ab4bd; stroke: #5ab4bd"/>
     </g>
    </g>
    <g id="text_11">
     <!-- Ga -->
     <g transform="translate(275.808761 16.370809) scale(0.0833 -0.0833)">
      <use xlink:href="#STIXGeneral-Regular-47"/>
      <use xlink:href="#STIXGeneral-Regular-61" x="72.199982"/>
     </g>
    </g>
    <g id="Path3DCollection_10">
     <g>
      <use xlink:href="#m60f4afeeb9" x="310.512322" y="14.184184" style="fill: #324739; stroke: #324739"/>
     </g>
    </g>
    <g id="text_12">
     <!-- As -->
     <g transform="translate(325.506322 16.370809) scale(0.0833 -0.0833)">
      <use xlink:href="#STIXGeneral-Regular-41"/>
      <use xlink:href="#STIXGeneral-Regular-73" x="72.199982"/>
     </g>
    </g>
   </g>
   <g id="Poly3DCollection_1">
    <defs>
     <path id="m6f53e80a01" d="M 241.762085 -126.40666 
L 222.586404 -98.25991 
L 222.586404 -22.835948 
L 241.762085 -50.982697 
L 241.762085 -126.40666 
z
" style="stroke: #889988; stroke-opacity: 0.5"/>
    </defs>
    <g clip-path="url(#pbf553a3598)">
     <use xlink:href="#m6f53e80a01" x="0" y="164.169797" style="fill: #889988; fill-opacity: 0.5; stroke: #889988; stroke-opacity: 0.5"/>
    </g>
   </g>
  </g>
  <g id="patch_10">
   <path d="M 322.305882 156.969797 
L 453.6 156.969797 
L 453.6 25.67568 
L 322.305882 25.67568 
z
" style="fill: #ffffff"/>
  </g>
  <g id="axes_3">
   <g id="patch_11">
    <path d="M 357.212073 135.977508 
Q 363.715095 135.977508 369.435494 135.977508 
" clip-path="url(#p3effd0ed1d)" style="fill: none; stroke: #000000; stroke-width: 0.7; stroke-linecap: round"/>
    <path d="M 366.635494 134.577508 
L 369.435494 135.977508 
L 366.635494 137.377508 
z
" clip-path="url(#p3effd0ed1d)" style="stroke: #000000; stroke-width: 0.7; stroke-linecap: round"/>
   </g>
   <g id="Path3DCollection_11"/>
   <g id="line2d_15">
    <path d="M 357.212073 135.977508 
L 378.888815 145.694925 
L 378.888815 43.11948 
L 357.212073 33.402062 
L 357.212073 135.977508 
" clip-path="url(#p3effd0ed1d)" style="fill: none; stroke: #ff0000; stroke-width: 1.5; stroke-linecap: round"/>
   </g>
   <g id="line2d_16">
    <path d="M 357.212073 135.977508 
L 400.565557 135.977508 
L 422.242299 145.694925 
L 378.888815 145.694925 
L 357.212073 135.977508 
" clip-path="url(#p3effd0ed1d)" style="fill: none; stroke: #ff0000; stroke-width: 1.5; stroke-linecap: round"/>
   </g>
   <g id="line2d_17">
    <path d="M 357.212073 135.977508 
L 357.212073 33.402062 
L 400.565557 33.402062 
L 400.565557 135.977508 
L 357.212073 135.977508 
" clip-path="url(#p3effd0ed1d)" style="fill: none; stroke: #ff0000; stroke-width: 1.5; stroke-linecap: round"/>
   </g>
   <g id="line2d_18">
    <path d="M 400.565557 135.977508 
L 400.565557 33.402062 
L 422.242299 43.11948 
L 422.242299 145.694925 
L 400.565557 135.977508 
" clip-path="url(#p3effd0ed1d)" style="fill: none; stroke: #ff0000; stroke-width: 1.5; stroke-linecap: round"/>
   </g>
   <g id="line2d_19">
    <path d="M 378.888815 145.694925 
L 422.242299 145.694925 
L 422.242299 43.11948 
L 378.888815 43.11948 
L 378.888815 145.694925 
" clip-path="url(#p3effd0ed1d)" style="fill: none; stroke: #ff0000; stroke-width: 1.5; stroke-linecap: round"/>
   </g>
   <g id="line2d_20">
    <path d="M 357.212073 33.402062 
L 378.888815 43.11948 
L 422.242299 43.11948 
L 400.565557 33.402062 
L 357.212073 33.402062 
" clip-path="url(#p3effd0ed1d)" style="fill: none; stroke: #ff0000; stroke-width: 1.5; stroke-linecap: round"/>
   </g>
   <g id="patch_12">
    <path d="M 357.212073 135.977508 
Q 357.212073 120.591191 357.212073 105.987498 
" clip-path="url(#p3effd0ed1d)" style="fill: none; stroke: #000000; stroke-width: 0.7; stroke-linecap: round"/>
    <path d="M 355.812073 108.787498 
L 357.212073 105.987498 
L 358.612073 108.787498 
z
" clip-path="url(#p3effd0ed1d)" style="stroke: #000000; stroke-width: 0.7; stroke-linecap: round"/>
   </g>
   <g id="Path3DCollection_12"/>
   <g id="text_13">
    <!-- $\vec{a}_1$ -->
    <g transform="translate(360.198932 141.808291) scale(0.1 -0.1)">
     <use xlink:href="#STIXGeneral-Regular-20d7" transform="translate(54.821873 2)"/>
     <use xlink:href="#STIXGeneral-Italic-61" transform="translate(0 0.203125)"/>
     <use xlink:href="#STIXGeneral-Regular-31" transform="translate(51.643272 -13.025) scale(0.7)"/>
    </g>
   </g>
   <g id="text_14">
    <!-- $\vec{a}_2$ -->
    <g transform="translate(367.785792 138.407195) scale(0.1 -0.1)">
     <use xlink:href="#STIXGeneral-Regular-20d7" transform="translate(54.821873 2)"/>
     <use xlink:href="#STIXGeneral-Italic-61" transform="translate(0 0.203125)"/>
     <use xlink:href="#STIXGeneral-Regular-32" transform="translate(51.643272 -13.025) scale(0.7)"/>
    </g>
   </g>
   <g id="text_15">
    <!-- $\vec{a}_3$ -->
    <g transform="translate(352.612073 102.555789) scale(0.1 -0.1)">
     <use xlink:href="#STIXGeneral-Regular-20d7" transform="translate(54.821873 2)"/>
     <use xlink:href="#STIXGeneral-Italic-61" transform="translate(0 0.203125)"/>
     <use xlink:href="#STIXGeneral-Regular-33" transform="translate(51.643272 -13.025) scale(0.7)"/>
    </g>
   </g>
   <g id="patch_13">
    <path d="M 357.212073 135.977508 
Q 360.463584 137.43512 363.000947 138.572589 
" clip-path="url(#p3effd0ed1d)" style="fill: none; stroke: #000000; stroke-width: 0.7; stroke-linecap: round"/>
    <path d="M 361.018623 136.1497 
L 363.000947 138.572589 
L 359.873241 138.704715 
z
" clip-path="url(#p3effd0ed1d)" style="stroke: #000000; stroke-width: 0.7; stroke-linecap: round"/>
   </g>
   <g id="Line3DCollection_3">
    <path d="M 378.888815 43.11948 
L 378.888815 44.154317 
" clip-path="url(#p3effd0ed1d)" style="fill: none; stroke: #5ab4bd; stroke-opacity: 0.7"/>
    <path d="M 378.888815 44.154317 
L 378.888815 45.189155 
" clip-path="url(#p3effd0ed1d)" style="fill: none; stroke: #324739; stroke-opacity: 0.7"/>
    <path d="M 400.565557 108.263971 
L 400.565557 95.44204 
" clip-path="url(#p3effd0ed1d)" style="fill: none; stroke: #5ab4bd; stroke-opacity: 0.7"/>
    <path d="M 400.565557 95.44204 
L 400.565557 82.620109 
" clip-path="url(#p3effd0ed1d)" style="fill: none; stroke: #324739; stroke-opacity: 0.7"/>
    <path d="M 378.888815 145.694925 
L 378.888815 132.872995 
" clip-path="url(#p3effd0ed1d)" style="fill: none; stroke: #5ab4bd; stroke-opacity: 0.7"/>
    <path d="M 378.888815 132.872995 
L 378.888815 120.051064 
" clip-path="url(#p3effd0ed1d)" style="fill: none; stroke: #324739; stroke-opacity: 0.7"/>
    <path d="M 357.212073 135.977508 
L 357.212073 123.155577 
" clip-path="url(#p3effd0ed1d)" style="fill: none; stroke: #5ab4bd; stroke-opacity: 0.7"/>
    <path d="M 357.212073 123.155577 
L 357.212073 110.333646 
" clip-path="url(#p3effd0ed1d)" style="fill: none; stroke: #324739; stroke-opacity: 0.7"/>
    <path d="M 357.212073 33.402062 
L 368.050444 39.295609 
" clip-path="url(#p3effd0ed1d)" style="fill: none; stroke: #5ab4bd; stroke-opacity: 0.7"/>
    <path d="M 368.050444 39.295609 
L 378.888815 45.189155 
" clip-path="url(#p3effd0ed1d)" style="fill: none; stroke: #324739; stroke-opacity: 0.7"/>
    <path d="M 378.888815 70.833016 
L 378.888815 58.011086 
" clip-path="url(#p3effd0ed1d)" style="fill: none; stroke: #5ab4bd; stroke-opacity: 0.7"/>
    <path d="M 378.888815 58.011086 
L 378.888815 45.189155 
" clip-path="url(#p3effd0ed1d)" style="fill: none; stroke: #324739; stroke-opacity: 0.7"/>
    <path d="M 400.565557 108.263971 
L 389.727186 114.157517 
" clip-path="url(#p3effd0ed1d)" style="fill: none; stroke: #5ab4bd; stroke-opacity: 0.7"/>
    <path d="M 389.727186 114.157517 
L 378.888815 120.051064 
" clip-path="url(#p3effd0ed1d)" style="fill: none; stroke: #324739; stroke-opacity: 0.7"/>
    <path d="M 422.242299 145.694925 
L 422.242299 132.872995 
" clip-path="url(#p3effd0ed1d)" style="fill: none; stroke: #5ab4bd; stroke-opacity: 0.7"/>
    <path d="M 422.242299 132.872995 
L 422.242299 120.051064 
" clip-path="url(#p3effd0ed1d)" style="fill: none; stroke: #324739; stroke-opacity: 0.7"/>
    <path d="M 378.888815 70.833016 
L 389.727186 76.726563 
" clip-path="url(#p3effd0ed1d)" style="fill: none; stroke: #5ab4bd; stroke-opacity: 0.7"/>
    <path d="M 389.727186 76.726563 
L 400.565557 82.620109 
" clip-path="url(#p3effd0ed1d)" style="fill: none; stroke: #324739; stroke-opacity: 0.7"/>
    <path d="M 400.565557 108.263971 
L 411.403928 114.157517 
" clip-path="url(#p3effd0ed1d)" style="fill: none; stroke: #5ab4bd; stroke-opacity: 0.7"/>
    <path d="M 411.403928 114.157517 
L 422.242299 120.051064 
" clip-path="url(#p3effd0ed1d)" style="fill: none; stroke: #324739; stroke-opacity: 0.7"/>
    <path d="M 400.565557 33.402062 
L 389.727186 39.295609 
" clip-path="url(#p3effd0ed1d)" style="fill: none; stroke: #5ab4bd; stroke-opacity: 0.7"/>
    <path d="M 389.727186 39.295609 
L 378.888815 45.189155 
" clip-path="url(#p3effd0ed1d)" style="fill: none; stroke: #324739; stroke-opacity: 0.7"/>
    <path d="M 400.565557 108.263971 
L 400.565557 109.298809 
" clip-path="url(#p3effd0ed1d)" style="fill: none; stroke: #5ab4bd; stroke-opacity: 0.7"/>
    <path d="M 400.565557 109.298809 
L 400.565557 110.333646 
" clip-path="url(#p3effd0ed1d)" style="fill: none; stroke: #324739; stroke-opacity: 0.7"/>
    <path d="M 400.565557 135.977508 
L 400.565557 123.155577 
" clip-path="url(#p3effd0ed1d)" style="fill: none; stroke: #5ab4bd; stroke-opacity: 0.7"/>
    <path d="M 400.565557 123.155577 
L 400.565557 110.333646 
" clip-path="url(#p3effd0ed1d)" style="fill: none; stroke: #324739; stroke-opacity: 0.7"/>
   </g>
   <g id="Path3DCollection_13">
    <path d="M 400.565557 139.513042 
C 401.503192 139.513042 402.402549 139.140515 403.065557 138.477508 
C 403.728565 137.8145 404.101091 136.915142 404.101091 135.977508 
C 404.101091 135.039873 403.728565 134.140515 403.065557 133.477508 
C 402.402549 132.8145 401.503192 132.441974 400.565557 132.441974 
C 399.627923 132.441974 398.728565 132.8145 398.065557 133.477508 
C 397.402549 134.140515 397.030023 135.039873 397.030023 135.977508 
C 397.030023 136.915142 397.402549 137.8145 398.065557 138.477508 
C 398.728565 139.140515 399.627923 139.513042 400.565557 139.513042 
z
" clip-path="url(#p3effd0ed1d)" style="fill: #5ab4bd; fill-opacity: 0.7; stroke: #5ab4bd; stroke-opacity: 0.7"/>
    <path d="M 357.212073 139.513042 
C 358.149707 139.513042 359.049065 139.140515 359.712073 138.477508 
C 360.37508 137.8145 360.747607 136.915142 360.747607 135.977508 
C 360.747607 135.039873 360.37508 134.140515 359.712073 133.477508 
C 359.049065 132.8145 358.149707 132.441974 357.212073 132.441974 
C 356.274438 132.441974 355.37508 132.8145 354.712073 133.477508 
C 354.049065 134.140515 353.676539 135.039873 353.676539 135.977508 
C 353.676539 136.915142 354.049065 137.8145 354.712073 138.477508 
C 355.37508 139.140515 356.274438 139.513042 357.212073 139.513042 
z
" clip-path="url(#p3effd0ed1d)" style="fill: #5ab4bd; fill-opacity: 0.7; stroke: #5ab4bd; stroke-opacity: 0.7"/>
    <path d="M 357.212073 113.86918 
C 358.149707 113.86918 359.049065 113.496654 359.712073 112.833646 
C 360.37508 112.170638 360.747607 111.271281 360.747607 110.333646 
C 360.747607 109.396012 360.37508 108.496654 359.712073 107.833646 
C 359.049065 107.170638 358.149707 106.798112 357.212073 106.798112 
C 356.274438 106.798112 355.37508 107.170638 354.712073 107.833646 
C 354.049065 108.496654 353.676539 109.396012 353.676539 110.333646 
C 353.676539 111.271281 354.049065 112.170638 354.712073 112.833646 
C 355.37508 113.496654 356.274438 113.86918 357.212073 113.86918 
z
" clip-path="url(#p3effd0ed1d)" style="fill: #324739; fill-opacity: 0.7; stroke: #324739; stroke-opacity: 0.7"/>
    <path d="M 400.565557 113.86918 
C 401.503192 113.86918 402.402549 113.496654 403.065557 112.833646 
C 403.728565 112.170638 404.101091 111.271281 404.101091 110.333646 
C 404.101091 109.396012 403.728565 108.496654 403.065557 107.833646 
C 402.402549 107.170638 401.503192 106.798112 400.565557 106.798112 
C 399.627923 106.798112 398.728565 107.170638 398.065557 107.833646 
C 397.402549 108.496654 397.030023 109.396012 397.030023 110.333646 
C 397.030023 111.271281 397.402549 112.170638 398.065557 112.833646 
C 398.728565 113.496654 399.627923 113.86918 400.565557 113.86918 
z
" clip-path="url(#p3effd0ed1d)" style="fill: #324739; fill-opacity: 0.7; stroke: #324739; stroke-opacity: 0.7"/>
    <path d="M 400.565557 36.937596 
C 401.503192 36.937596 402.402549 36.56507 403.065557 35.902062 
C 403.728565 35.239054 404.101091 34.339697 404.101091 33.402062 
C 404.101091 32.464428 403.728565 31.56507 403.065557 30.902062 
C 402.402549 30.239054 401.503192 29.866528 400.565557 29.866528 
C 399.627923 29.866528 398.728565 30.239054 398.065557 30.902062 
C 397.402549 31.56507 397.030023 32.464428 397.030023 33.402062 
C 397.030023 34.339697 397.402549 35.239054 398.065557 35.902062 
C 398.728565 36.56507 399.627923 36.937596 400.565557 36.937596 
z
" clip-path="url(#p3effd0ed1d)" style="fill: #5ab4bd; fill-opacity: 0.7; stroke: #5ab4bd; stroke-opacity: 0.7"/>
    <path d="M 357.212073 36.937596 
C 358.149707 36.937596 359.049065 36.56507 359.712073 35.902062 
C 360.37508 35.239054 360.747607 34.339697 360.747607 33.402062 
C 360.747607 32.464428 360.37508 31.56507 359.712073 30.902062 
C 359.049065 30.239054 358.149707 29.866528 357.212073 29.866528 
C 356.274438 29.866528 355.37508 30.239054 354.712073 30.902062 
C 354.049065 31.56507 353.676539 32.464428 353.676539 33.402062 
C 353.676539 34.339697 354.049065 35.239054 354.712073 35.902062 
C 355.37508 36.56507 356.274438 36.937596 357.212073 36.937596 
z
" clip-path="url(#p3effd0ed1d)" style="fill: #5ab4bd; fill-opacity: 0.7; stroke: #5ab4bd; stroke-opacity: 0.7"/>
    <path d="M 378.888815 74.36855 
C 379.826449 74.36855 380.725807 73.996024 381.388815 73.333016 
C 382.051823 72.670009 382.424349 71.770651 382.424349 70.833016 
C 382.424349 69.895382 382.051823 68.996024 381.388815 68.333016 
C 380.725807 67.670009 379.826449 67.297483 378.888815 67.297483 
C 377.95118 67.297483 377.051823 67.670009 376.388815 68.333016 
C 375.725807 68.996024 375.353281 69.895382 375.353281 70.833016 
C 375.353281 71.770651 375.725807 72.670009 376.388815 73.333016 
C 377.051823 73.996024 377.95118 74.36855 378.888815 74.36855 
z
" clip-path="url(#p3effd0ed1d)" style="fill: #5ab4bd; fill-opacity: 0.7; stroke: #5ab4bd; stroke-opacity: 0.7"/>
    <path d="M 400.565557 111.799505 
C 401.503192 111.799505 402.402549 111.426979 403.065557 110.763971 
C 403.728565 110.100963 404.101091 109.201605 404.101091 108.263971 
C 404.101091 107.326336 403.728565 106.426979 403.065557 105.763971 
C 402.402549 105.100963 401.503192 104.728437 400.565557 104.728437 
C 399.627923 104.728437 398.728565 105.100963 398.065557 105.763971 
C 397.402549 106.426979 397.030023 107.326336 397.030023 108.263971 
C 397.030023 109.201605 397.402549 110.100963 398.065557 110.763971 
C 398.728565 111.426979 399.627923 111.799505 400.565557 111.799505 
z
" clip-path="url(#p3effd0ed1d)" style="fill: #5ab4bd; fill-opacity: 0.7; stroke: #5ab4bd; stroke-opacity: 0.7"/>
    <path d="M 378.888815 149.230459 
C 379.826449 149.230459 380.725807 148.857933 381.388815 148.194925 
C 382.051823 147.531918 382.424349 146.63256 382.424349 145.694925 
C 382.424349 144.757291 382.051823 143.857933 381.388815 143.194925 
C 380.725807 142.531918 379.826449 142.159391 378.888815 142.159391 
C 377.95118 142.159391 377.051823 142.531918 376.388815 143.194925 
C 375.725807 143.857933 375.353281 144.757291 375.353281 145.694925 
C 375.353281 146.63256 375.725807 147.531918 376.388815 148.194925 
C 377.051823 148.857933 377.95118 149.230459 378.888815 149.230459 
z
" clip-path="url(#p3effd0ed1d)" style="fill: #5ab4bd; fill-opacity: 0.7; stroke: #5ab4bd; stroke-opacity: 0.7"/>
    <path d="M 422.242299 149.230459 
C 423.179934 149.230459 424.079292 148.857933 424.742299 148.194925 
C 425.405307 147.531918 425.777833 146.63256 425.777833 145.694925 
C 425.777833 144.757291 425.405307 143.857933 424.742299 143.194925 
C 424.079292 142.531918 423.179934 142.159391 422.242299 142.159391 
C 421.304665 142.159391 420.405307 142.531918 419.742299 143.194925 
C 419.079292 143.857933 418.706765 144.757291 418.706765 145.694925 
C 418.706765 146.63256 419.079292 147.531918 419.742299 148.194925 
C 420.405307 148.857933 421.304665 149.230459 422.242299 149.230459 
z
" clip-path="url(#p3effd0ed1d)" style="fill: #5ab4bd; fill-opacity: 0.7; stroke: #5ab4bd; stroke-opacity: 0.7"/>
    <path d="M 378.888815 48.724689 
C 379.826449 48.724689 380.725807 48.352163 381.388815 47.689155 
C 382.051823 47.026147 382.424349 46.12679 382.424349 45.189155 
C 382.424349 44.251521 382.051823 43.352163 381.388815 42.689155 
C 380.725807 42.026147 379.826449 41.653621 378.888815 41.653621 
C 377.95118 41.653621 377.051823 42.026147 376.388815 42.689155 
C 375.725807 43.352163 375.353281 44.251521 375.353281 45.189155 
C 375.353281 46.12679 375.725807 47.026147 376.388815 47.689155 
C 377.051823 48.352163 377.95118 48.724689 378.888815 48.724689 
z
" clip-path="url(#p3effd0ed1d)" style="fill: #324739; fill-opacity: 0.7; stroke: #324739; stroke-opacity: 0.7"/>
    <path d="M 400.565557 86.155643 
C 401.503192 86.155643 402.402549 85.783117 403.065557 85.120109 
C 403.728565 84.457102 404.101091 83.557744 404.101091 82.620109 
C 404.101091 81.682475 403.728565 80.783117 403.065557 80.120109 
C 402.402549 79.457102 401.503192 79.084576 400.565557 79.084576 
C 399.627923 79.084576 398.728565 79.457102 398.065557 80.120109 
C 397.402549 80.783117 397.030023 81.682475 397.030023 82.620109 
C 397.030023 83.557744 397.402549 84.457102 398.065557 85.120109 
C 398.728565 85.783117 399.627923 86.155643 400.565557 86.155643 
z
" clip-path="url(#p3effd0ed1d)" style="fill: #324739; fill-opacity: 0.7; stroke: #324739; stroke-opacity: 0.7"/>
    <path d="M 378.888815 123.586598 
C 379.826449 123.586598 380.725807 123.214072 381.388815 122.551064 
C 382.051823 121.888056 382.424349 120.988698 382.424349 120.051064 
C 382.424349 119.113429 382.051823 118.214072 381.388815 117.551064 
C 380.725807 116.888056 379.826449 116.51553 378.888815 116.51553 
C 377.95118 116.51553 377.051823 116.888056 376.388815 117.551064 
C 375.725807 118.214072 375.353281 119.113429 375.353281 120.051064 
C 375.353281 120.988698 375.725807 121.888056 376.388815 122.551064 
C 377.051823 123.214072 377.95118 123.586598 378.888815 123.586598 
z
" clip-path="url(#p3effd0ed1d)" style="fill: #324739; fill-opacity: 0.7; stroke: #324739; stroke-opacity: 0.7"/>
    <path d="M 422.242299 123.586598 
C 423.179934 123.586598 424.079292 123.214072 424.742299 122.551064 
C 425.405307 121.888056 425.777833 120.988698 425.777833 120.051064 
C 425.777833 119.113429 425.405307 118.214072 424.742299 117.551064 
C 424.079292 116.888056 423.179934 116.51553 422.242299 116.51553 
C 421.304665 116.51553 420.405307 116.888056 419.742299 117.551064 
C 419.079292 118.214072 418.706765 119.113429 418.706765 120.051064 
C 418.706765 120.988698 419.079292 121.888056 419.742299 122.551064 
C 420.405307 123.214072 421.304665 123.586598 422.242299 123.586598 
z
" clip-path="url(#p3effd0ed1d)" style="fill: #324739; fill-opacity: 0.7; stroke: #324739; stroke-opacity: 0.7"/>
    <path d="M 378.888815 46.655014 
C 379.826449 46.655014 380.725807 46.282488 381.388815 45.61948 
C 382.051823 44.956472 382.424349 44.057114 382.424349 43.11948 
C 382.424349 42.181845 382.051823 41.282488 381.388815 40.61948 
C 380.725807 39.956472 379.826449 39.583946 378.888815 39.583946 
C 377.95118 39.583946 377.051823 39.956472 376.388815 40.61948 
C 375.725807 41.282488 375.353281 42.181845 375.353281 43.11948 
C 375.353281 44.057114 375.725807 44.956472 376.388815 45.61948 
C 377.051823 46.282488 377.95118 46.655014 378.888815 46.655014 
z
" clip-path="url(#p3effd0ed1d)" style="fill: #5ab4bd; fill-opacity: 0.7; stroke: #5ab4bd; stroke-opacity: 0.7"/>
    <path d="M 422.242299 46.655014 
C 423.179934 46.655014 424.079292 46.282488 424.742299 45.61948 
C 425.405307 44.956472 425.777833 44.057114 425.777833 43.11948 
C 425.777833 42.181845 425.405307 41.282488 424.742299 40.61948 
C 424.079292 39.956472 423.179934 39.583946 422.242299 39.583946 
C 421.304665 39.583946 420.405307 39.956472 419.742299 40.61948 
C 419.079292 41.282488 418.706765 42.181845 418.706765 43.11948 
C 418.706765 44.057114 419.079292 44.956472 419.742299 45.61948 
C 420.405307 46.282488 421.304665 46.655014 422.242299 46.655014 
z
" clip-path="url(#p3effd0ed1d)" style="fill: #5ab4bd; fill-opacity: 0.7; stroke: #5ab4bd; stroke-opacity: 0.7"/>
   </g>
   <g id="legend_3">
    <g id="Path3DCollection_14">
     <defs>
      <path id="m469e6cfa65" d="M 0 3.535534 
C 0.937635 3.535534 1.836992 3.163008 2.5 2.5 
C 3.163008 1.836992 3.535534 0.937635 3.535534 0 
C 3.535534 -0.937635 3.163008 -1.836992 2.5 -2.5 
C 1.836992 -3.163008 0.937635 -3.535534 0 -3.535534 
C -0.937635 -3.535534 -1.836992 -3.163008 -2.5 -2.5 
C -3.163008 -1.836992 -3.535534 -0.937635 -3.535534 0 
C -3.535534 0.937635 -3.163008 1.836992 -2.5 2.5 
C -1.836992 3.163008 -0.937635 3.535534 0 3.535534 
z
" style="stroke: #5ab4bd; stroke-opacity: 0.7"/>
     </defs>
     <g>
      <use xlink:href="#m469e6cfa65" x="338.132882" y="14.184184" style="fill: #5ab4bd; fill-opacity: 0.7; stroke: #5ab4bd; stroke-opacity: 0.7"/>
     </g>
    </g>
    <g id="text_16">
     <!-- Ga -->
     <g transform="translate(353.126882 16.370809) scale(0.0833 -0.0833)">
      <use xlink:href="#STIXGeneral-Regular-47"/>
      <use xlink:href="#STIXGeneral-Regular-61" x="72.199982"/>
     </g>
    </g>
    <g id="Path3DCollection_15">
     <defs>
      <path id="m26d16fde11" d="M 0 3.535534 
C 0.937635 3.535534 1.836992 3.163008 2.5 2.5 
C 3.163008 1.836992 3.535534 0.937635 3.535534 0 
C 3.535534 -0.937635 3.163008 -1.836992 2.5 -2.5 
C 1.836992 -3.163008 0.937635 -3.535534 0 -3.535534 
C -0.937635 -3.535534 -1.836992 -3.163008 -2.5 -2.5 
C -3.163008 -1.836992 -3.535534 -0.937635 -3.535534 0 
C -3.535534 0.937635 -3.163008 1.836992 -2.5 2.5 
C -1.836992 3.163008 -0.937635 3.535534 0 3.535534 
z
" style="stroke: #324739; stroke-opacity: 0.7"/>
     </defs>
     <g>
      <use xlink:href="#m26d16fde11" x="387.830443" y="14.184184" style="fill: #324739; fill-opacity: 0.7; stroke: #324739; stroke-opacity: 0.7"/>
     </g>
    </g>
    <g id="text_17">
     <!-- As -->
     <g transform="translate(402.824443 16.370809) scale(0.0833 -0.0833)">
      <use xlink:href="#STIXGeneral-Regular-41"/>
      <use xlink:href="#STIXGeneral-Regular-73" x="72.199982"/>
     </g>
    </g>
   </g>
  </g>
 </g>
 <defs>
  <clipPath id="p25a75ec695">
   <rect x="7.2" y="25.67568" width="131.294118" height="131.294118"/>
  </clipPath>
  <clipPath id="pbf553a3598">
   <rect x="164.752941" y="25.67568" width="131.294118" height="131.294118"/>
  </clipPath>
  <clipPath id="p3effd0ed1d">
   <rect x="322.305882" y="25.67568" width="131.294118" height="131.294118"/>
  </clipPath>
 </defs>
</svg>
